M48
; DRILL file {KiCad (5.1.9-0-10_14)} date Saturday, March 06, 2021 at 07:28:27 AM
; FORMAT={-:-/ absolute / inch / decimal}
; #@! TF.CreationDate,2021-03-06T07:28:27+00:00
; #@! TF.GenerationSoftware,Kicad,Pcbnew,(5.1.9-0-10_14)
; #@! TF.FileFunction,Plated,1,2,PTH
FMAT,2
INCH
T1C0.0157
T2C0.0236
T3C0.0300
T4C0.0335
T5C0.0433
T6C0.0551
T7C0.0669
T8C0.1220
%
G90
G05
T1
X5.2402Y-3.7441
X5.6811Y-3.4724
X6.0197Y-3.563
X6.0394Y-3.6693
X6.0512Y-3.5354
T2
X5.1539Y-4.3154
X5.3815Y-4.3154
T3
X4.8189Y-3.465
X4.8189Y-3.565
X4.8189Y-3.665
X4.8189Y-3.765
X5.0039Y-3.1654
X5.0039Y-3.2654
X5.0039Y-3.3654
X5.0039Y-3.4654
X5.0039Y-3.5654
X5.0039Y-3.6654
X5.0039Y-3.7654
X5.152Y-3.937
X5.252Y-3.937
X5.352Y-3.937
X5.452Y-3.937
T4
X4.9961Y-3.937
X4.9961Y-4.0354
X4.9961Y-4.1339
X4.9961Y-4.2323
X5.9685Y-4.2795
X6.0315Y-3.3661
X6.0669Y-4.2795
X6.1299Y-3.3661
X6.1654Y-4.2795
T5
X5.5394Y-4.3071
X5.5394Y-4.4843
X5.7953Y-4.3071
X5.7953Y-4.4843
T6
X5.0974Y-4.461
X5.438Y-4.461
T7
X5.0974Y-4.2965
X5.438Y-4.2965
T8
X4.8189Y-3.185
X4.8189Y-4.4449
X6.374Y-3.185
X6.374Y-4.4449
T0
M30
