%TF.GenerationSoftware,KiCad,Pcbnew,(5.1.9-0-10_14)*%
%TF.CreationDate,2021-03-06T07:28:35+00:00*%
%TF.ProjectId,EnvMon,456e764d-6f6e-42e6-9b69-6361645f7063,1*%
%TF.SameCoordinates,Original*%
%TF.FileFunction,Copper,L1,Top*%
%TF.FilePolarity,Positive*%
%FSLAX46Y46*%
G04 Gerber Fmt 4.6, Leading zero omitted, Abs format (unit mm)*
G04 Created by KiCad (PCBNEW (5.1.9-0-10_14)) date 2021-03-06 07:28:35*
%MOMM*%
%LPD*%
G01*
G04 APERTURE LIST*
%TA.AperFunction,NonConductor*%
%ADD10C,0.300000*%
%TD*%
%TA.AperFunction,EtchedComponent*%
%ADD11C,0.200000*%
%TD*%
%TA.AperFunction,ComponentPad*%
%ADD12C,2.000000*%
%TD*%
%TA.AperFunction,ComponentPad*%
%ADD13C,0.600000*%
%TD*%
%TA.AperFunction,ComponentPad*%
%ADD14C,1.524000*%
%TD*%
%TA.AperFunction,ComponentPad*%
%ADD15C,5.000000*%
%TD*%
%TA.AperFunction,ComponentPad*%
%ADD16R,1.524000X1.524000*%
%TD*%
%TA.AperFunction,ComponentPad*%
%ADD17O,1.700000X1.850000*%
%TD*%
%TA.AperFunction,ComponentPad*%
%ADD18O,1.850000X1.700000*%
%TD*%
%TA.AperFunction,ViaPad*%
%ADD19C,0.800000*%
%TD*%
%TA.AperFunction,Conductor*%
%ADD20C,0.250000*%
%TD*%
%TA.AperFunction,Conductor*%
%ADD21C,0.400000*%
%TD*%
%TA.AperFunction,Conductor*%
%ADD22C,0.254000*%
%TD*%
%TA.AperFunction,Conductor*%
%ADD23C,0.100000*%
%TD*%
G04 APERTURE END LIST*
D10*
X159178571Y-106485714D02*
X160178571Y-106200000D01*
X159464285Y-105914285D01*
X160178571Y-105628571D01*
X159178571Y-105342857D01*
X159178571Y-104914285D02*
X160178571Y-104628571D01*
X159464285Y-104342857D01*
X160178571Y-104057142D01*
X159178571Y-103771428D01*
X159178571Y-103342857D02*
X160178571Y-103057142D01*
X159464285Y-102771428D01*
X160178571Y-102485714D01*
X159178571Y-102200000D01*
X160035714Y-101628571D02*
X160107142Y-101557142D01*
X160178571Y-101628571D01*
X160107142Y-101700000D01*
X160035714Y-101628571D01*
X160178571Y-101628571D01*
X160178571Y-100914285D02*
X159178571Y-100914285D01*
X159321428Y-100914285D02*
X159250000Y-100842857D01*
X159178571Y-100700000D01*
X159178571Y-100485714D01*
X159250000Y-100342857D01*
X159392857Y-100271428D01*
X160178571Y-100271428D01*
X159392857Y-100271428D02*
X159250000Y-100200000D01*
X159178571Y-100057142D01*
X159178571Y-99842857D01*
X159250000Y-99700000D01*
X159392857Y-99628571D01*
X160178571Y-99628571D01*
X160107142Y-98342857D02*
X160178571Y-98485714D01*
X160178571Y-98771428D01*
X160107142Y-98914285D01*
X159964285Y-98985714D01*
X159392857Y-98985714D01*
X159250000Y-98914285D01*
X159178571Y-98771428D01*
X159178571Y-98485714D01*
X159250000Y-98342857D01*
X159392857Y-98271428D01*
X159535714Y-98271428D01*
X159678571Y-98985714D01*
X160035714Y-97628571D02*
X160107142Y-97557142D01*
X160178571Y-97628571D01*
X160107142Y-97700000D01*
X160035714Y-97628571D01*
X160178571Y-97628571D01*
X159178571Y-96271428D02*
X160178571Y-96271428D01*
X159178571Y-96914285D02*
X159964285Y-96914285D01*
X160107142Y-96842857D01*
X160178571Y-96700000D01*
X160178571Y-96485714D01*
X160107142Y-96342857D01*
X160035714Y-96271428D01*
X160178571Y-95557142D02*
X158678571Y-95557142D01*
X159607142Y-95414285D02*
X160178571Y-94985714D01*
X159178571Y-94985714D02*
X159750000Y-95557142D01*
D11*
%TO.C,REF\u002A\u002A*%
X152170000Y-99750000D02*
X150405290Y-101808820D01*
X150405300Y-101809000D02*
X148934700Y-101809000D01*
X150405290Y-101808820D02*
X152170000Y-103867650D01*
X149150074Y-104387579D02*
X148934712Y-103867650D01*
X150189938Y-104387579D02*
X149670006Y-104602940D01*
X149670006Y-104602940D02*
X149150074Y-104387579D01*
X150405300Y-99750000D02*
X150405300Y-103867650D01*
X150405300Y-103867650D02*
X150189938Y-104387579D01*
X147464120Y-103867650D02*
X150405300Y-99750000D01*
%TD*%
D12*
%TO.P,J4,S1*%
%TO.N,GND*%
X129475000Y-113310000D03*
X138125000Y-113310000D03*
X129475000Y-109130000D03*
X138125000Y-109130000D03*
D13*
X130910000Y-109610000D03*
X136690000Y-109610000D03*
%TD*%
D14*
%TO.P,M1,7*%
%TO.N,Net-(M1-Pad7)*%
X127100000Y-95640000D03*
%TO.P,M1,6*%
%TO.N,Net-(M1-Pad6)*%
X127100000Y-93100000D03*
%TO.P,M1,5*%
%TO.N,Net-(M1-Pad5)*%
X127100000Y-90560000D03*
%TO.P,M1,4*%
%TO.N,Net-(M1-Pad4)*%
X127100000Y-88020000D03*
%TO.P,M1,3*%
%TO.N,Net-(M1-Pad3)*%
X127100000Y-85480000D03*
%TO.P,M1,2*%
%TO.N,GND*%
X127100000Y-82940000D03*
%TO.P,M1,1*%
%TO.N,+3V3*%
X127100000Y-80400000D03*
%TD*%
D15*
%TO.P,M2,S*%
%TO.N,GND*%
X122400000Y-80900000D03*
X122400000Y-112900000D03*
X161900000Y-112900000D03*
X161900000Y-80900000D03*
D14*
%TO.P,M2,5*%
%TO.N,Net-(M2-Pad5)*%
X122400000Y-95630000D03*
%TO.P,M2,4*%
%TO.N,Net-(M2-Pad4)*%
X122400000Y-93090000D03*
%TO.P,M2,2*%
%TO.N,GND*%
X122400000Y-90550000D03*
%TO.P,M2,1*%
%TO.N,+3V3*%
X122400000Y-88010000D03*
%TD*%
%TO.P,M3,4*%
%TO.N,+3V3*%
X130860000Y-100000000D03*
D16*
%TO.P,M3,3*%
%TO.N,GND*%
X133400000Y-100000000D03*
D14*
%TO.P,M3,2*%
%TO.N,/VBUS*%
X135940000Y-100000000D03*
%TO.P,M3,1*%
%TO.N,Net-(M3-Pad1)*%
X138480000Y-100000000D03*
%TD*%
D17*
%TO.P,J1,3*%
%TO.N,+3V3*%
X156600000Y-108700000D03*
%TO.P,J1,2*%
%TO.N,/TEMP*%
X154100000Y-108700000D03*
%TO.P,J1,1*%
%TO.N,GND*%
%TA.AperFunction,ComponentPad*%
G36*
G01*
X150750000Y-109375000D02*
X150750000Y-108025000D01*
G75*
G02*
X151000000Y-107775000I250000J0D01*
G01*
X152200000Y-107775000D01*
G75*
G02*
X152450000Y-108025000I0J-250000D01*
G01*
X152450000Y-109375000D01*
G75*
G02*
X152200000Y-109625000I-250000J0D01*
G01*
X151000000Y-109625000D01*
G75*
G02*
X150750000Y-109375000I0J250000D01*
G01*
G37*
%TD.AperFunction*%
%TD*%
%TO.P,J3,2*%
%TO.N,/VBUS*%
X153200000Y-85500000D03*
%TO.P,J3,1*%
%TO.N,GND*%
%TA.AperFunction,ComponentPad*%
G36*
G01*
X156550000Y-84825000D02*
X156550000Y-86175000D01*
G75*
G02*
X156300000Y-86425000I-250000J0D01*
G01*
X155100000Y-86425000D01*
G75*
G02*
X154850000Y-86175000I0J250000D01*
G01*
X154850000Y-84825000D01*
G75*
G02*
X155100000Y-84575000I250000J0D01*
G01*
X156300000Y-84575000D01*
G75*
G02*
X156550000Y-84825000I0J-250000D01*
G01*
G37*
%TD.AperFunction*%
%TD*%
D18*
%TO.P,J2,4*%
%TO.N,Net-(J2-Pad4)*%
X126900000Y-107500000D03*
%TO.P,J2,3*%
%TO.N,Net-(J2-Pad3)*%
X126900000Y-105000000D03*
%TO.P,J2,2*%
%TO.N,+3V3*%
X126900000Y-102500000D03*
%TO.P,J2,1*%
%TO.N,GND*%
%TA.AperFunction,ComponentPad*%
G36*
G01*
X126225000Y-99150000D02*
X127575000Y-99150000D01*
G75*
G02*
X127825000Y-99400000I0J-250000D01*
G01*
X127825000Y-100600000D01*
G75*
G02*
X127575000Y-100850000I-250000J0D01*
G01*
X126225000Y-100850000D01*
G75*
G02*
X125975000Y-100600000I0J250000D01*
G01*
X125975000Y-99400000D01*
G75*
G02*
X126225000Y-99150000I250000J0D01*
G01*
G37*
%TD.AperFunction*%
%TD*%
D12*
%TO.P,SW1,1*%
%TO.N,Net-(SW1-Pad1)*%
X140700000Y-109400000D03*
%TO.P,SW1,2*%
%TO.N,GND*%
X140700000Y-113900000D03*
%TO.P,SW1,1*%
%TO.N,Net-(SW1-Pad1)*%
X147200000Y-109400000D03*
%TO.P,SW1,2*%
%TO.N,GND*%
X147200000Y-113900000D03*
%TD*%
D19*
%TO.N,/TEMP*%
X153700000Y-89800000D03*
%TO.N,Net-(SW1-Pad1)*%
X144300000Y-88200000D03*
%TO.N,Net-(J2-Pad4)*%
X153400000Y-93200000D03*
%TO.N,Net-(J2-Pad3)*%
X152900000Y-90500000D03*
%TO.N,Net-(M1-Pad5)*%
X133100000Y-95100000D03*
%TD*%
D20*
%TO.N,/TEMP*%
X154200000Y-90300000D02*
X154200000Y-108700000D01*
X153700000Y-89800000D02*
X154200000Y-90300000D01*
%TO.N,Net-(SW1-Pad1)*%
X157773002Y-88200000D02*
X144300000Y-88200000D01*
X159325001Y-90448001D02*
X159325001Y-89751999D01*
X155375010Y-94397992D02*
X159325001Y-90448001D01*
X147200000Y-109400000D02*
X148199999Y-110399999D01*
X154236716Y-110399999D02*
X155375010Y-109261705D01*
X159325001Y-89751999D02*
X157773002Y-88200000D01*
X148199999Y-110399999D02*
X154236716Y-110399999D01*
X155375010Y-109261705D02*
X155375010Y-94397992D01*
%TO.N,Net-(J2-Pad4)*%
X128075000Y-107500000D02*
X130075000Y-105500000D01*
X126900000Y-107500000D02*
X128075000Y-107500000D01*
X140557663Y-105500000D02*
X152857663Y-93200000D01*
X130075000Y-105500000D02*
X140557663Y-105500000D01*
X152857663Y-93200000D02*
X153400000Y-93200000D01*
%TO.N,Net-(J2-Pad3)*%
X152900000Y-92521253D02*
X152900000Y-90500000D01*
X140421253Y-105000000D02*
X152900000Y-92521253D01*
X126900000Y-105000000D02*
X140421253Y-105000000D01*
%TO.N,Net-(M1-Pad5)*%
X128560000Y-90560000D02*
X133100000Y-95100000D01*
X127100000Y-90560000D02*
X128560000Y-90560000D01*
D21*
%TO.N,/VBUS*%
X139041998Y-85500000D02*
X153300000Y-85500000D01*
X135870000Y-88671998D02*
X139041998Y-85500000D01*
X135870000Y-99930000D02*
X135870000Y-88671998D01*
%TD*%
D22*
%TO.N,GND*%
X126438273Y-79161995D02*
X126209465Y-79314880D01*
X126014880Y-79509465D01*
X125861995Y-79738273D01*
X125756686Y-79992510D01*
X125703000Y-80262408D01*
X125703000Y-80537592D01*
X125756686Y-80807490D01*
X125861995Y-81061727D01*
X126014880Y-81290535D01*
X126209465Y-81485120D01*
X126438273Y-81638005D01*
X126509943Y-81667692D01*
X126496977Y-81672364D01*
X126381020Y-81734344D01*
X126314040Y-81974435D01*
X127100000Y-82760395D01*
X127885960Y-81974435D01*
X127818980Y-81734344D01*
X127683240Y-81670515D01*
X127761727Y-81638005D01*
X127990535Y-81485120D01*
X128185120Y-81290535D01*
X128338005Y-81061727D01*
X128443314Y-80807490D01*
X128497000Y-80537592D01*
X128497000Y-80262408D01*
X128443314Y-79992510D01*
X128338005Y-79738273D01*
X128185120Y-79509465D01*
X127990535Y-79314880D01*
X127761727Y-79161995D01*
X127515491Y-79060000D01*
X159419069Y-79060000D01*
X159278882Y-79152627D01*
X158988351Y-79697557D01*
X158809713Y-80288696D01*
X158749832Y-80903328D01*
X158811010Y-81517831D01*
X158990897Y-82108592D01*
X159278882Y-82647373D01*
X159696852Y-82923543D01*
X161720395Y-80900000D01*
X161706253Y-80885858D01*
X161885858Y-80706253D01*
X161900000Y-80720395D01*
X161914143Y-80706253D01*
X162093748Y-80885858D01*
X162079605Y-80900000D01*
X162093748Y-80914143D01*
X161914143Y-81093748D01*
X161900000Y-81079605D01*
X159876457Y-83103148D01*
X160152627Y-83521118D01*
X160697557Y-83811649D01*
X161288696Y-83990287D01*
X161903328Y-84050168D01*
X162517831Y-83988990D01*
X163108592Y-83809103D01*
X163440000Y-83631961D01*
X163440001Y-110168321D01*
X163102443Y-109988351D01*
X162511304Y-109809713D01*
X161896672Y-109749832D01*
X161282169Y-109811010D01*
X160691408Y-109990897D01*
X160152627Y-110278882D01*
X159876457Y-110696852D01*
X161900000Y-112720395D01*
X161914143Y-112706253D01*
X162093748Y-112885858D01*
X162079605Y-112900000D01*
X162093748Y-112914143D01*
X161914143Y-113093748D01*
X161900000Y-113079605D01*
X161885858Y-113093748D01*
X161706253Y-112914143D01*
X161720395Y-112900000D01*
X159696852Y-110876457D01*
X159278882Y-111152627D01*
X158988351Y-111697557D01*
X158809713Y-112288696D01*
X158749832Y-112903328D01*
X158811010Y-113517831D01*
X158990897Y-114108592D01*
X159278882Y-114647373D01*
X159419069Y-114740000D01*
X148609565Y-114740000D01*
X148740704Y-114470429D01*
X148822384Y-114158892D01*
X148841718Y-113837405D01*
X148797961Y-113518325D01*
X148692795Y-113213912D01*
X148599814Y-113039956D01*
X148335413Y-112944192D01*
X147379605Y-113900000D01*
X147393748Y-113914143D01*
X147214143Y-114093748D01*
X147200000Y-114079605D01*
X147185858Y-114093748D01*
X147006253Y-113914143D01*
X147020395Y-113900000D01*
X146064587Y-112944192D01*
X145800186Y-113039956D01*
X145659296Y-113329571D01*
X145577616Y-113641108D01*
X145558282Y-113962595D01*
X145602039Y-114281675D01*
X145707205Y-114586088D01*
X145789472Y-114740000D01*
X142109565Y-114740000D01*
X142240704Y-114470429D01*
X142322384Y-114158892D01*
X142341718Y-113837405D01*
X142297961Y-113518325D01*
X142192795Y-113213912D01*
X142099814Y-113039956D01*
X141835413Y-112944192D01*
X140879605Y-113900000D01*
X140893748Y-113914143D01*
X140714143Y-114093748D01*
X140700000Y-114079605D01*
X140685858Y-114093748D01*
X140506253Y-113914143D01*
X140520395Y-113900000D01*
X140506253Y-113885858D01*
X140685858Y-113706253D01*
X140700000Y-113720395D01*
X141655808Y-112764587D01*
X146244192Y-112764587D01*
X147200000Y-113720395D01*
X148155808Y-112764587D01*
X148060044Y-112500186D01*
X147770429Y-112359296D01*
X147458892Y-112277616D01*
X147137405Y-112258282D01*
X146818325Y-112302039D01*
X146513912Y-112407205D01*
X146339956Y-112500186D01*
X146244192Y-112764587D01*
X141655808Y-112764587D01*
X141560044Y-112500186D01*
X141270429Y-112359296D01*
X140958892Y-112277616D01*
X140637405Y-112258282D01*
X140318325Y-112302039D01*
X140013912Y-112407205D01*
X139839956Y-112500186D01*
X139744193Y-112764585D01*
X139628525Y-112648917D01*
X139626971Y-112650471D01*
X139617795Y-112623912D01*
X139524814Y-112449956D01*
X139260413Y-112354192D01*
X138304605Y-113310000D01*
X138318748Y-113324143D01*
X138139143Y-113503748D01*
X138125000Y-113489605D01*
X137169192Y-114445413D01*
X137264956Y-114709814D01*
X137327007Y-114740000D01*
X130278570Y-114740000D01*
X130335044Y-114709814D01*
X130430808Y-114445413D01*
X129475000Y-113489605D01*
X128519192Y-114445413D01*
X128614956Y-114709814D01*
X128677007Y-114740000D01*
X124880931Y-114740000D01*
X125021118Y-114647373D01*
X125311649Y-114102443D01*
X125490287Y-113511304D01*
X125503800Y-113372595D01*
X127833282Y-113372595D01*
X127877039Y-113691675D01*
X127982205Y-113996088D01*
X128075186Y-114170044D01*
X128339587Y-114265808D01*
X129295395Y-113310000D01*
X129654605Y-113310000D01*
X130610413Y-114265808D01*
X130874814Y-114170044D01*
X131015704Y-113880429D01*
X131097384Y-113568892D01*
X131109189Y-113372595D01*
X136483282Y-113372595D01*
X136527039Y-113691675D01*
X136632205Y-113996088D01*
X136725186Y-114170044D01*
X136989587Y-114265808D01*
X137945395Y-113310000D01*
X136989587Y-112354192D01*
X136725186Y-112449956D01*
X136584296Y-112739571D01*
X136502616Y-113051108D01*
X136483282Y-113372595D01*
X131109189Y-113372595D01*
X131116718Y-113247405D01*
X131072961Y-112928325D01*
X130967795Y-112623912D01*
X130874814Y-112449956D01*
X130610413Y-112354192D01*
X129654605Y-113310000D01*
X129295395Y-113310000D01*
X128339587Y-112354192D01*
X128075186Y-112449956D01*
X127934296Y-112739571D01*
X127852616Y-113051108D01*
X127833282Y-113372595D01*
X125503800Y-113372595D01*
X125550168Y-112896672D01*
X125488990Y-112282169D01*
X125456232Y-112174587D01*
X128519192Y-112174587D01*
X129475000Y-113130395D01*
X130430808Y-112174587D01*
X137169192Y-112174587D01*
X138125000Y-113130395D01*
X139080808Y-112174587D01*
X138985044Y-111910186D01*
X138695429Y-111769296D01*
X138383892Y-111687616D01*
X138062405Y-111668282D01*
X137743325Y-111712039D01*
X137438912Y-111817205D01*
X137264956Y-111910186D01*
X137169192Y-112174587D01*
X130430808Y-112174587D01*
X130335044Y-111910186D01*
X130045429Y-111769296D01*
X129733892Y-111687616D01*
X129412405Y-111668282D01*
X129093325Y-111712039D01*
X128788912Y-111817205D01*
X128614956Y-111910186D01*
X128519192Y-112174587D01*
X125456232Y-112174587D01*
X125309103Y-111691408D01*
X125021118Y-111152627D01*
X124603148Y-110876457D01*
X122579605Y-112900000D01*
X122593748Y-112914143D01*
X122414143Y-113093748D01*
X122400000Y-113079605D01*
X122385858Y-113093748D01*
X122206253Y-112914143D01*
X122220395Y-112900000D01*
X122206253Y-112885858D01*
X122385858Y-112706253D01*
X122400000Y-112720395D01*
X124423543Y-110696852D01*
X124147373Y-110278882D01*
X124122111Y-110265413D01*
X128519192Y-110265413D01*
X128614956Y-110529814D01*
X128904571Y-110670704D01*
X129216108Y-110752384D01*
X129537595Y-110771718D01*
X129856675Y-110727961D01*
X130161088Y-110622795D01*
X130335044Y-110529814D01*
X130428885Y-110270723D01*
X130432500Y-110267108D01*
X130457660Y-110292268D01*
X130465575Y-110437763D01*
X130635603Y-110508562D01*
X130816176Y-110544828D01*
X131000355Y-110545171D01*
X131181061Y-110509574D01*
X131351351Y-110439408D01*
X131354425Y-110437763D01*
X131364936Y-110244541D01*
X130951926Y-109831531D01*
X131015704Y-109700429D01*
X131039413Y-109610000D01*
X131089605Y-109610000D01*
X131544541Y-110064936D01*
X131737763Y-110054425D01*
X131808562Y-109884397D01*
X131844828Y-109703824D01*
X131844834Y-109700355D01*
X135754829Y-109700355D01*
X135790426Y-109881061D01*
X135860592Y-110051351D01*
X135862237Y-110054425D01*
X136055459Y-110064936D01*
X136510395Y-109610000D01*
X136055459Y-109155064D01*
X135862237Y-109165575D01*
X135791438Y-109335603D01*
X135755172Y-109516176D01*
X135754829Y-109700355D01*
X131844834Y-109700355D01*
X131845171Y-109519645D01*
X131809574Y-109338939D01*
X131739408Y-109168649D01*
X131737763Y-109165575D01*
X131544541Y-109155064D01*
X131089605Y-109610000D01*
X131039413Y-109610000D01*
X131097384Y-109388892D01*
X131106719Y-109233676D01*
X131364936Y-108975459D01*
X136235064Y-108975459D01*
X136488222Y-109228617D01*
X136527039Y-109511675D01*
X136632205Y-109816088D01*
X136643112Y-109836493D01*
X136235064Y-110244541D01*
X136245575Y-110437763D01*
X136415603Y-110508562D01*
X136596176Y-110544828D01*
X136780355Y-110545171D01*
X136961061Y-110509574D01*
X137131351Y-110439408D01*
X137134425Y-110437763D01*
X137142340Y-110292268D01*
X137167500Y-110267108D01*
X137171115Y-110270723D01*
X137264956Y-110529814D01*
X137554571Y-110670704D01*
X137866108Y-110752384D01*
X138187595Y-110771718D01*
X138506675Y-110727961D01*
X138811088Y-110622795D01*
X138985044Y-110529814D01*
X139080808Y-110265413D01*
X138125000Y-109309605D01*
X138110858Y-109323748D01*
X137931253Y-109144143D01*
X137945395Y-109130000D01*
X138304605Y-109130000D01*
X139181795Y-110007190D01*
X139251082Y-110174463D01*
X139430013Y-110442252D01*
X139657748Y-110669987D01*
X139925537Y-110848918D01*
X140223088Y-110972168D01*
X140538967Y-111035000D01*
X140861033Y-111035000D01*
X141176912Y-110972168D01*
X141474463Y-110848918D01*
X141742252Y-110669987D01*
X141969987Y-110442252D01*
X142148918Y-110174463D01*
X142272168Y-109876912D01*
X142335000Y-109561033D01*
X142335000Y-109238967D01*
X142272168Y-108923088D01*
X142148918Y-108625537D01*
X141969987Y-108357748D01*
X141742252Y-108130013D01*
X141474463Y-107951082D01*
X141176912Y-107827832D01*
X140861033Y-107765000D01*
X140538967Y-107765000D01*
X140223088Y-107827832D01*
X139925537Y-107951082D01*
X139657748Y-108130013D01*
X139519669Y-108268092D01*
X139260413Y-108174192D01*
X138304605Y-109130000D01*
X137945395Y-109130000D01*
X136989587Y-108174192D01*
X136725186Y-108269956D01*
X136584296Y-108559571D01*
X136551596Y-108684294D01*
X136418939Y-108710426D01*
X136248649Y-108780592D01*
X136245575Y-108782237D01*
X136235064Y-108975459D01*
X131364936Y-108975459D01*
X131354425Y-108782237D01*
X131184397Y-108711438D01*
X131050959Y-108684639D01*
X130967795Y-108443912D01*
X130874814Y-108269956D01*
X130610413Y-108174192D01*
X129654605Y-109130000D01*
X129668748Y-109144143D01*
X129489143Y-109323748D01*
X129475000Y-109309605D01*
X128519192Y-110265413D01*
X124122111Y-110265413D01*
X123602443Y-109988351D01*
X123011304Y-109809713D01*
X122396672Y-109749832D01*
X121782169Y-109811010D01*
X121191408Y-109990897D01*
X120652627Y-110278882D01*
X120560000Y-110419069D01*
X120560000Y-102500000D01*
X125332815Y-102500000D01*
X125361487Y-102791111D01*
X125446401Y-103071034D01*
X125584294Y-103329014D01*
X125769866Y-103555134D01*
X125995986Y-103740706D01*
X126013374Y-103750000D01*
X125995986Y-103759294D01*
X125769866Y-103944866D01*
X125584294Y-104170986D01*
X125446401Y-104428966D01*
X125361487Y-104708889D01*
X125332815Y-105000000D01*
X125361487Y-105291111D01*
X125446401Y-105571034D01*
X125584294Y-105829014D01*
X125769866Y-106055134D01*
X125995986Y-106240706D01*
X126013374Y-106250000D01*
X125995986Y-106259294D01*
X125769866Y-106444866D01*
X125584294Y-106670986D01*
X125446401Y-106928966D01*
X125361487Y-107208889D01*
X125332815Y-107500000D01*
X125361487Y-107791111D01*
X125446401Y-108071034D01*
X125584294Y-108329014D01*
X125769866Y-108555134D01*
X125995986Y-108740706D01*
X126253966Y-108878599D01*
X126533889Y-108963513D01*
X126752050Y-108985000D01*
X127047950Y-108985000D01*
X127266111Y-108963513D01*
X127546034Y-108878599D01*
X127804014Y-108740706D01*
X127909503Y-108654133D01*
X127852616Y-108871108D01*
X127833282Y-109192595D01*
X127877039Y-109511675D01*
X127982205Y-109816088D01*
X128075186Y-109990044D01*
X128339587Y-110085808D01*
X129295395Y-109130000D01*
X129281253Y-109115858D01*
X129460858Y-108936253D01*
X129475000Y-108950395D01*
X130430808Y-107994587D01*
X137169192Y-107994587D01*
X138125000Y-108950395D01*
X139080808Y-107994587D01*
X138985044Y-107730186D01*
X138695429Y-107589296D01*
X138383892Y-107507616D01*
X138062405Y-107488282D01*
X137743325Y-107532039D01*
X137438912Y-107637205D01*
X137264956Y-107730186D01*
X137169192Y-107994587D01*
X130430808Y-107994587D01*
X130335044Y-107730186D01*
X130045429Y-107589296D01*
X129733892Y-107507616D01*
X129412405Y-107488282D01*
X129121646Y-107528155D01*
X130389802Y-106260000D01*
X140520341Y-106260000D01*
X140557663Y-106263676D01*
X140594985Y-106260000D01*
X140594996Y-106260000D01*
X140706649Y-106249003D01*
X140849910Y-106205546D01*
X140981939Y-106134974D01*
X141097664Y-106040001D01*
X141121467Y-106010997D01*
X143287853Y-103844611D01*
X146725924Y-103844611D01*
X146735613Y-103989067D01*
X146773299Y-104128859D01*
X146837532Y-104258613D01*
X146925845Y-104373342D01*
X147034843Y-104468637D01*
X147160339Y-104540837D01*
X147297508Y-104587167D01*
X147441081Y-104605846D01*
X147585537Y-104596157D01*
X147725329Y-104558471D01*
X147855083Y-104494238D01*
X147969812Y-104405925D01*
X148041228Y-104324240D01*
X148226474Y-104064896D01*
X148241844Y-104115566D01*
X148457208Y-104635499D01*
X148467739Y-104670214D01*
X148484839Y-104702206D01*
X148484840Y-104702208D01*
X148510919Y-104750997D01*
X148535989Y-104797900D01*
X148568343Y-104837323D01*
X148627836Y-104909817D01*
X148739755Y-105001666D01*
X148867442Y-105069915D01*
X148902158Y-105080446D01*
X149355386Y-105268179D01*
X149387371Y-105285275D01*
X149422081Y-105295804D01*
X149422092Y-105295809D01*
X149510968Y-105322769D01*
X149525919Y-105327304D01*
X149525920Y-105327304D01*
X149525923Y-105327305D01*
X149613240Y-105335905D01*
X149670004Y-105341496D01*
X149670008Y-105341496D01*
X149726772Y-105335905D01*
X149814089Y-105327305D01*
X149814092Y-105327304D01*
X149814093Y-105327304D01*
X149865738Y-105311638D01*
X149917919Y-105295809D01*
X149917921Y-105295808D01*
X149952641Y-105285276D01*
X149984637Y-105268174D01*
X150437856Y-105080446D01*
X150472570Y-105069915D01*
X150504562Y-105052815D01*
X150504565Y-105052814D01*
X150600256Y-105001667D01*
X150712174Y-104909818D01*
X150804024Y-104797900D01*
X150872274Y-104670214D01*
X150882807Y-104635492D01*
X151070535Y-104182279D01*
X151087637Y-104150283D01*
X151129665Y-104011735D01*
X151140300Y-103903755D01*
X151140300Y-103903753D01*
X151143856Y-103867651D01*
X151140300Y-103831546D01*
X151140300Y-103795727D01*
X151635442Y-104373394D01*
X151713789Y-104448457D01*
X151835865Y-104526299D01*
X151970782Y-104578830D01*
X152113354Y-104604030D01*
X152258103Y-104600932D01*
X152399467Y-104569653D01*
X152532012Y-104511398D01*
X152650645Y-104428403D01*
X152750807Y-104323859D01*
X152828649Y-104201783D01*
X152881180Y-104066866D01*
X152906380Y-103924294D01*
X152903282Y-103779545D01*
X152872003Y-103638181D01*
X152813748Y-103505637D01*
X152751550Y-103416731D01*
X151373342Y-101808821D01*
X152751549Y-100200920D01*
X152813747Y-100112015D01*
X152872003Y-99979470D01*
X152903282Y-99838106D01*
X152906380Y-99693357D01*
X152881181Y-99550785D01*
X152828650Y-99415868D01*
X152750809Y-99293792D01*
X152650647Y-99189248D01*
X152532014Y-99106253D01*
X152399469Y-99047997D01*
X152258106Y-99016718D01*
X152113356Y-99013620D01*
X151970784Y-99038819D01*
X151835867Y-99091350D01*
X151713791Y-99169191D01*
X151635444Y-99244255D01*
X151140300Y-99821921D01*
X151140300Y-99797606D01*
X151143496Y-99773040D01*
X151140300Y-99725390D01*
X151140300Y-99713895D01*
X151137883Y-99689357D01*
X151133807Y-99628583D01*
X151130798Y-99617423D01*
X151129665Y-99605915D01*
X151111978Y-99547609D01*
X151096122Y-99488791D01*
X151090993Y-99478430D01*
X151087637Y-99467367D01*
X151058913Y-99413628D01*
X151031888Y-99359037D01*
X151024838Y-99349878D01*
X151019387Y-99339680D01*
X150980733Y-99292581D01*
X150943575Y-99244308D01*
X150934871Y-99236698D01*
X150927537Y-99227762D01*
X150880443Y-99189113D01*
X150834577Y-99149013D01*
X150824557Y-99143248D01*
X150815619Y-99135913D01*
X150761883Y-99107191D01*
X150709082Y-99076813D01*
X150698130Y-99073114D01*
X150687932Y-99067663D01*
X150629622Y-99049975D01*
X150571912Y-99030483D01*
X150560450Y-99028992D01*
X150549384Y-99025635D01*
X150488736Y-99019662D01*
X150428339Y-99011804D01*
X150416808Y-99012577D01*
X150405300Y-99011444D01*
X150344659Y-99017417D01*
X150283882Y-99021493D01*
X150272721Y-99024502D01*
X150261215Y-99025635D01*
X150202917Y-99043319D01*
X150144090Y-99059178D01*
X150133728Y-99064308D01*
X150122667Y-99067663D01*
X150068941Y-99096380D01*
X150014336Y-99123412D01*
X150005175Y-99130464D01*
X149994980Y-99135913D01*
X149947896Y-99174555D01*
X149899607Y-99211725D01*
X149891994Y-99220432D01*
X149883062Y-99227763D01*
X149844432Y-99274834D01*
X149828191Y-99293410D01*
X149821506Y-99302769D01*
X149791213Y-99339681D01*
X149779536Y-99361526D01*
X148350030Y-101362835D01*
X148320613Y-101398680D01*
X148309274Y-101419894D01*
X146845041Y-103469820D01*
X146790933Y-103563869D01*
X146744603Y-103701038D01*
X146725924Y-103844611D01*
X143287853Y-103844611D01*
X152984355Y-94148110D01*
X153098102Y-94195226D01*
X153298061Y-94235000D01*
X153440000Y-94235000D01*
X153440001Y-107293954D01*
X153270986Y-107384294D01*
X153050055Y-107565608D01*
X153039502Y-107530820D01*
X152980537Y-107420506D01*
X152901185Y-107323815D01*
X152804494Y-107244463D01*
X152694180Y-107185498D01*
X152574482Y-107149188D01*
X152450000Y-107136928D01*
X151885750Y-107140000D01*
X151727000Y-107298750D01*
X151727000Y-108573000D01*
X151747000Y-108573000D01*
X151747000Y-108827000D01*
X151727000Y-108827000D01*
X151727000Y-108847000D01*
X151473000Y-108847000D01*
X151473000Y-108827000D01*
X150273750Y-108827000D01*
X150115000Y-108985750D01*
X150111928Y-109625000D01*
X150113405Y-109639999D01*
X148819293Y-109639999D01*
X148835000Y-109561033D01*
X148835000Y-109238967D01*
X148772168Y-108923088D01*
X148648918Y-108625537D01*
X148469987Y-108357748D01*
X148242252Y-108130013D01*
X147974463Y-107951082D01*
X147676912Y-107827832D01*
X147411307Y-107775000D01*
X150111928Y-107775000D01*
X150115000Y-108414250D01*
X150273750Y-108573000D01*
X151473000Y-108573000D01*
X151473000Y-107298750D01*
X151314250Y-107140000D01*
X150750000Y-107136928D01*
X150625518Y-107149188D01*
X150505820Y-107185498D01*
X150395506Y-107244463D01*
X150298815Y-107323815D01*
X150219463Y-107420506D01*
X150160498Y-107530820D01*
X150124188Y-107650518D01*
X150111928Y-107775000D01*
X147411307Y-107775000D01*
X147361033Y-107765000D01*
X147038967Y-107765000D01*
X146723088Y-107827832D01*
X146425537Y-107951082D01*
X146157748Y-108130013D01*
X145930013Y-108357748D01*
X145751082Y-108625537D01*
X145627832Y-108923088D01*
X145565000Y-109238967D01*
X145565000Y-109561033D01*
X145627832Y-109876912D01*
X145751082Y-110174463D01*
X145930013Y-110442252D01*
X146157748Y-110669987D01*
X146425537Y-110848918D01*
X146723088Y-110972168D01*
X147038967Y-111035000D01*
X147361033Y-111035000D01*
X147676912Y-110972168D01*
X147691721Y-110966034D01*
X147775722Y-111034973D01*
X147897378Y-111100000D01*
X147907752Y-111105545D01*
X148051013Y-111149002D01*
X148162666Y-111159999D01*
X148162675Y-111159999D01*
X148199998Y-111163675D01*
X148237321Y-111159999D01*
X154199394Y-111159999D01*
X154236716Y-111163675D01*
X154274038Y-111159999D01*
X154274049Y-111159999D01*
X154385702Y-111149002D01*
X154528963Y-111105545D01*
X154660992Y-111034973D01*
X154776717Y-110940000D01*
X154800520Y-110910997D01*
X155729697Y-109981820D01*
X155770987Y-110015706D01*
X156028967Y-110153599D01*
X156308890Y-110238513D01*
X156600000Y-110267185D01*
X156891111Y-110238513D01*
X157171034Y-110153599D01*
X157429014Y-110015706D01*
X157655134Y-109830134D01*
X157840706Y-109604013D01*
X157978599Y-109346033D01*
X158063513Y-109066110D01*
X158085000Y-108847949D01*
X158085000Y-108552050D01*
X158063513Y-108333889D01*
X157978599Y-108053966D01*
X157840706Y-107795986D01*
X157655134Y-107569866D01*
X157429013Y-107384294D01*
X157171033Y-107246401D01*
X156891110Y-107161487D01*
X156600000Y-107132815D01*
X156308889Y-107161487D01*
X156135010Y-107214233D01*
X156135010Y-94712793D01*
X156932803Y-93915000D01*
X157710000Y-93915000D01*
X157710000Y-107485000D01*
X161530000Y-107485000D01*
X161530000Y-93915000D01*
X157710000Y-93915000D01*
X156932803Y-93915000D01*
X159836005Y-91011799D01*
X159865002Y-90988002D01*
X159959975Y-90872277D01*
X160030547Y-90740248D01*
X160074004Y-90596987D01*
X160085001Y-90485334D01*
X160085001Y-90485324D01*
X160088677Y-90448001D01*
X160085001Y-90410678D01*
X160085001Y-89789321D01*
X160088677Y-89751998D01*
X160085001Y-89714675D01*
X160085001Y-89714666D01*
X160074004Y-89603013D01*
X160030547Y-89459752D01*
X160002350Y-89407000D01*
X159959975Y-89327722D01*
X159888800Y-89240996D01*
X159865002Y-89211998D01*
X159836004Y-89188200D01*
X158336806Y-87689003D01*
X158313003Y-87659999D01*
X158197278Y-87565026D01*
X158065249Y-87494454D01*
X157921988Y-87450997D01*
X157810335Y-87440000D01*
X157810324Y-87440000D01*
X157773002Y-87436324D01*
X157735680Y-87440000D01*
X145003711Y-87440000D01*
X144959774Y-87396063D01*
X144790256Y-87282795D01*
X144601898Y-87204774D01*
X144401939Y-87165000D01*
X144198061Y-87165000D01*
X143998102Y-87204774D01*
X143809744Y-87282795D01*
X143640226Y-87396063D01*
X143496063Y-87540226D01*
X143382795Y-87709744D01*
X143304774Y-87898102D01*
X143265000Y-88098061D01*
X143265000Y-88301939D01*
X143304774Y-88501898D01*
X143382795Y-88690256D01*
X143496063Y-88859774D01*
X143640226Y-89003937D01*
X143809744Y-89117205D01*
X143998102Y-89195226D01*
X144198061Y-89235000D01*
X144401939Y-89235000D01*
X144601898Y-89195226D01*
X144790256Y-89117205D01*
X144959774Y-89003937D01*
X145003711Y-88960000D01*
X153094198Y-88960000D01*
X153040226Y-88996063D01*
X152896063Y-89140226D01*
X152782795Y-89309744D01*
X152711340Y-89482250D01*
X152598102Y-89504774D01*
X152409744Y-89582795D01*
X152240226Y-89696063D01*
X152096063Y-89840226D01*
X151982795Y-90009744D01*
X151904774Y-90198102D01*
X151865000Y-90398061D01*
X151865000Y-90601939D01*
X151904774Y-90801898D01*
X151982795Y-90990256D01*
X152096063Y-91159774D01*
X152140001Y-91203712D01*
X152140000Y-92206451D01*
X140106452Y-104240000D01*
X128252595Y-104240000D01*
X128215706Y-104170986D01*
X128030134Y-103944866D01*
X127804014Y-103759294D01*
X127786626Y-103750000D01*
X127804014Y-103740706D01*
X128030134Y-103555134D01*
X128215706Y-103329014D01*
X128353599Y-103071034D01*
X128438513Y-102791111D01*
X128467185Y-102500000D01*
X128438513Y-102208889D01*
X128353599Y-101928966D01*
X128215706Y-101670986D01*
X128034392Y-101450055D01*
X128069180Y-101439502D01*
X128179494Y-101380537D01*
X128276185Y-101301185D01*
X128355537Y-101204494D01*
X128414502Y-101094180D01*
X128450812Y-100974482D01*
X128463072Y-100850000D01*
X128460000Y-100285750D01*
X128301250Y-100127000D01*
X127027000Y-100127000D01*
X127027000Y-100147000D01*
X126773000Y-100147000D01*
X126773000Y-100127000D01*
X125498750Y-100127000D01*
X125340000Y-100285750D01*
X125336928Y-100850000D01*
X125349188Y-100974482D01*
X125385498Y-101094180D01*
X125444463Y-101204494D01*
X125523815Y-101301185D01*
X125620506Y-101380537D01*
X125730820Y-101439502D01*
X125765608Y-101450055D01*
X125584294Y-101670986D01*
X125446401Y-101928966D01*
X125361487Y-102208889D01*
X125332815Y-102500000D01*
X120560000Y-102500000D01*
X120560000Y-99150000D01*
X125336928Y-99150000D01*
X125340000Y-99714250D01*
X125498750Y-99873000D01*
X126773000Y-99873000D01*
X126773000Y-98673750D01*
X127027000Y-98673750D01*
X127027000Y-99873000D01*
X128301250Y-99873000D01*
X128311842Y-99862408D01*
X129463000Y-99862408D01*
X129463000Y-100137592D01*
X129516686Y-100407490D01*
X129621995Y-100661727D01*
X129774880Y-100890535D01*
X129969465Y-101085120D01*
X130198273Y-101238005D01*
X130452510Y-101343314D01*
X130722408Y-101397000D01*
X130997592Y-101397000D01*
X131267490Y-101343314D01*
X131521727Y-101238005D01*
X131750535Y-101085120D01*
X131945120Y-100890535D01*
X132003920Y-100802535D01*
X132012188Y-100886482D01*
X132048498Y-101006180D01*
X132107463Y-101116494D01*
X132186815Y-101213185D01*
X132283506Y-101292537D01*
X132393820Y-101351502D01*
X132513518Y-101387812D01*
X132638000Y-101400072D01*
X133114250Y-101397000D01*
X133273000Y-101238250D01*
X133273000Y-100127000D01*
X133253000Y-100127000D01*
X133253000Y-99873000D01*
X133273000Y-99873000D01*
X133273000Y-98761750D01*
X133527000Y-98761750D01*
X133527000Y-99873000D01*
X133547000Y-99873000D01*
X133547000Y-100127000D01*
X133527000Y-100127000D01*
X133527000Y-101238250D01*
X133685750Y-101397000D01*
X134162000Y-101400072D01*
X134286482Y-101387812D01*
X134406180Y-101351502D01*
X134516494Y-101292537D01*
X134613185Y-101213185D01*
X134692537Y-101116494D01*
X134751502Y-101006180D01*
X134787812Y-100886482D01*
X134796080Y-100802535D01*
X134854880Y-100890535D01*
X135049465Y-101085120D01*
X135278273Y-101238005D01*
X135532510Y-101343314D01*
X135802408Y-101397000D01*
X136077592Y-101397000D01*
X136347490Y-101343314D01*
X136601727Y-101238005D01*
X136830535Y-101085120D01*
X137025120Y-100890535D01*
X137178005Y-100661727D01*
X137210000Y-100584485D01*
X137241995Y-100661727D01*
X137394880Y-100890535D01*
X137589465Y-101085120D01*
X137818273Y-101238005D01*
X138072510Y-101343314D01*
X138342408Y-101397000D01*
X138617592Y-101397000D01*
X138887490Y-101343314D01*
X139141727Y-101238005D01*
X139370535Y-101085120D01*
X139565120Y-100890535D01*
X139718005Y-100661727D01*
X139823314Y-100407490D01*
X139877000Y-100137592D01*
X139877000Y-99862408D01*
X139823314Y-99592510D01*
X139718005Y-99338273D01*
X139565120Y-99109465D01*
X139370535Y-98914880D01*
X139141727Y-98761995D01*
X138887490Y-98656686D01*
X138617592Y-98603000D01*
X138342408Y-98603000D01*
X138072510Y-98656686D01*
X137818273Y-98761995D01*
X137589465Y-98914880D01*
X137394880Y-99109465D01*
X137241995Y-99338273D01*
X137210000Y-99415515D01*
X137178005Y-99338273D01*
X137025120Y-99109465D01*
X136830535Y-98914880D01*
X136705000Y-98831000D01*
X136705000Y-89017865D01*
X139387867Y-86335000D01*
X151922406Y-86335000D01*
X151959294Y-86404013D01*
X152144866Y-86630134D01*
X152370986Y-86815706D01*
X152628966Y-86953599D01*
X152908889Y-87038513D01*
X153200000Y-87067185D01*
X153491110Y-87038513D01*
X153771033Y-86953599D01*
X154029013Y-86815706D01*
X154249945Y-86634392D01*
X154260498Y-86669180D01*
X154319463Y-86779494D01*
X154398815Y-86876185D01*
X154495506Y-86955537D01*
X154605820Y-87014502D01*
X154725518Y-87050812D01*
X154850000Y-87063072D01*
X155414250Y-87060000D01*
X155573000Y-86901250D01*
X155573000Y-85627000D01*
X155827000Y-85627000D01*
X155827000Y-86901250D01*
X155985750Y-87060000D01*
X156550000Y-87063072D01*
X156674482Y-87050812D01*
X156794180Y-87014502D01*
X156904494Y-86955537D01*
X157001185Y-86876185D01*
X157080537Y-86779494D01*
X157139502Y-86669180D01*
X157175812Y-86549482D01*
X157188072Y-86425000D01*
X157185000Y-85785750D01*
X157026250Y-85627000D01*
X155827000Y-85627000D01*
X155573000Y-85627000D01*
X155553000Y-85627000D01*
X155553000Y-85373000D01*
X155573000Y-85373000D01*
X155573000Y-84098750D01*
X155827000Y-84098750D01*
X155827000Y-85373000D01*
X157026250Y-85373000D01*
X157185000Y-85214250D01*
X157188072Y-84575000D01*
X157175812Y-84450518D01*
X157139502Y-84330820D01*
X157080537Y-84220506D01*
X157001185Y-84123815D01*
X156904494Y-84044463D01*
X156794180Y-83985498D01*
X156674482Y-83949188D01*
X156550000Y-83936928D01*
X155985750Y-83940000D01*
X155827000Y-84098750D01*
X155573000Y-84098750D01*
X155414250Y-83940000D01*
X154850000Y-83936928D01*
X154725518Y-83949188D01*
X154605820Y-83985498D01*
X154495506Y-84044463D01*
X154398815Y-84123815D01*
X154319463Y-84220506D01*
X154260498Y-84330820D01*
X154249945Y-84365608D01*
X154029014Y-84184294D01*
X153771034Y-84046401D01*
X153491111Y-83961487D01*
X153200000Y-83932815D01*
X152908890Y-83961487D01*
X152628967Y-84046401D01*
X152370987Y-84184294D01*
X152144866Y-84369866D01*
X151959294Y-84595986D01*
X151922405Y-84665000D01*
X139083016Y-84665000D01*
X139041998Y-84660960D01*
X139000980Y-84665000D01*
X139000979Y-84665000D01*
X138878309Y-84677082D01*
X138720911Y-84724828D01*
X138575852Y-84802364D01*
X138512975Y-84853966D01*
X138448707Y-84906709D01*
X138422561Y-84938568D01*
X135308574Y-88052557D01*
X135276710Y-88078707D01*
X135250562Y-88110569D01*
X135172364Y-88205853D01*
X135094828Y-88350912D01*
X135047082Y-88508310D01*
X135030960Y-88671998D01*
X135035001Y-88713027D01*
X135035000Y-98929345D01*
X134854880Y-99109465D01*
X134796080Y-99197465D01*
X134787812Y-99113518D01*
X134751502Y-98993820D01*
X134692537Y-98883506D01*
X134613185Y-98786815D01*
X134516494Y-98707463D01*
X134406180Y-98648498D01*
X134286482Y-98612188D01*
X134162000Y-98599928D01*
X133685750Y-98603000D01*
X133527000Y-98761750D01*
X133273000Y-98761750D01*
X133114250Y-98603000D01*
X132638000Y-98599928D01*
X132513518Y-98612188D01*
X132393820Y-98648498D01*
X132283506Y-98707463D01*
X132186815Y-98786815D01*
X132107463Y-98883506D01*
X132048498Y-98993820D01*
X132012188Y-99113518D01*
X132003920Y-99197465D01*
X131945120Y-99109465D01*
X131750535Y-98914880D01*
X131521727Y-98761995D01*
X131267490Y-98656686D01*
X130997592Y-98603000D01*
X130722408Y-98603000D01*
X130452510Y-98656686D01*
X130198273Y-98761995D01*
X129969465Y-98914880D01*
X129774880Y-99109465D01*
X129621995Y-99338273D01*
X129516686Y-99592510D01*
X129463000Y-99862408D01*
X128311842Y-99862408D01*
X128460000Y-99714250D01*
X128463072Y-99150000D01*
X128450812Y-99025518D01*
X128414502Y-98905820D01*
X128355537Y-98795506D01*
X128276185Y-98698815D01*
X128179494Y-98619463D01*
X128069180Y-98560498D01*
X127949482Y-98524188D01*
X127825000Y-98511928D01*
X127185750Y-98515000D01*
X127027000Y-98673750D01*
X126773000Y-98673750D01*
X126614250Y-98515000D01*
X125975000Y-98511928D01*
X125850518Y-98524188D01*
X125730820Y-98560498D01*
X125620506Y-98619463D01*
X125523815Y-98698815D01*
X125444463Y-98795506D01*
X125385498Y-98905820D01*
X125349188Y-99025518D01*
X125336928Y-99150000D01*
X120560000Y-99150000D01*
X120560000Y-92952408D01*
X121003000Y-92952408D01*
X121003000Y-93227592D01*
X121056686Y-93497490D01*
X121161995Y-93751727D01*
X121314880Y-93980535D01*
X121509465Y-94175120D01*
X121738273Y-94328005D01*
X121815515Y-94360000D01*
X121738273Y-94391995D01*
X121509465Y-94544880D01*
X121314880Y-94739465D01*
X121161995Y-94968273D01*
X121056686Y-95222510D01*
X121003000Y-95492408D01*
X121003000Y-95767592D01*
X121056686Y-96037490D01*
X121161995Y-96291727D01*
X121314880Y-96520535D01*
X121509465Y-96715120D01*
X121738273Y-96868005D01*
X121992510Y-96973314D01*
X122262408Y-97027000D01*
X122537592Y-97027000D01*
X122807490Y-96973314D01*
X123061727Y-96868005D01*
X123290535Y-96715120D01*
X123485120Y-96520535D01*
X123638005Y-96291727D01*
X123743314Y-96037490D01*
X123797000Y-95767592D01*
X123797000Y-95492408D01*
X123743314Y-95222510D01*
X123638005Y-94968273D01*
X123485120Y-94739465D01*
X123290535Y-94544880D01*
X123061727Y-94391995D01*
X122984485Y-94360000D01*
X123061727Y-94328005D01*
X123290535Y-94175120D01*
X123485120Y-93980535D01*
X123638005Y-93751727D01*
X123743314Y-93497490D01*
X123797000Y-93227592D01*
X123797000Y-92952408D01*
X123743314Y-92682510D01*
X123638005Y-92428273D01*
X123485120Y-92199465D01*
X123290535Y-92004880D01*
X123061727Y-91851995D01*
X122990057Y-91822308D01*
X123003023Y-91817636D01*
X123118980Y-91755656D01*
X123185960Y-91515565D01*
X122400000Y-90729605D01*
X121614040Y-91515565D01*
X121681020Y-91755656D01*
X121816760Y-91819485D01*
X121738273Y-91851995D01*
X121509465Y-92004880D01*
X121314880Y-92199465D01*
X121161995Y-92428273D01*
X121056686Y-92682510D01*
X121003000Y-92952408D01*
X120560000Y-92952408D01*
X120560000Y-90622017D01*
X120998090Y-90622017D01*
X121039078Y-90894133D01*
X121132364Y-91153023D01*
X121194344Y-91268980D01*
X121434435Y-91335960D01*
X122220395Y-90550000D01*
X122579605Y-90550000D01*
X123365565Y-91335960D01*
X123605656Y-91268980D01*
X123722756Y-91019952D01*
X123789023Y-90752865D01*
X123801910Y-90477983D01*
X123760922Y-90205867D01*
X123667636Y-89946977D01*
X123605656Y-89831020D01*
X123365565Y-89764040D01*
X122579605Y-90550000D01*
X122220395Y-90550000D01*
X121434435Y-89764040D01*
X121194344Y-89831020D01*
X121077244Y-90080048D01*
X121010977Y-90347135D01*
X120998090Y-90622017D01*
X120560000Y-90622017D01*
X120560000Y-87872408D01*
X121003000Y-87872408D01*
X121003000Y-88147592D01*
X121056686Y-88417490D01*
X121161995Y-88671727D01*
X121314880Y-88900535D01*
X121509465Y-89095120D01*
X121738273Y-89248005D01*
X121809943Y-89277692D01*
X121796977Y-89282364D01*
X121681020Y-89344344D01*
X121614040Y-89584435D01*
X122400000Y-90370395D01*
X123185960Y-89584435D01*
X123118980Y-89344344D01*
X122983240Y-89280515D01*
X123061727Y-89248005D01*
X123290535Y-89095120D01*
X123485120Y-88900535D01*
X123638005Y-88671727D01*
X123743314Y-88417490D01*
X123797000Y-88147592D01*
X123797000Y-87872408D01*
X123743314Y-87602510D01*
X123638005Y-87348273D01*
X123485120Y-87119465D01*
X123290535Y-86924880D01*
X123061727Y-86771995D01*
X122807490Y-86666686D01*
X122537592Y-86613000D01*
X122262408Y-86613000D01*
X121992510Y-86666686D01*
X121738273Y-86771995D01*
X121509465Y-86924880D01*
X121314880Y-87119465D01*
X121161995Y-87348273D01*
X121056686Y-87602510D01*
X121003000Y-87872408D01*
X120560000Y-87872408D01*
X120560000Y-85342408D01*
X125703000Y-85342408D01*
X125703000Y-85617592D01*
X125756686Y-85887490D01*
X125861995Y-86141727D01*
X126014880Y-86370535D01*
X126209465Y-86565120D01*
X126438273Y-86718005D01*
X126515515Y-86750000D01*
X126438273Y-86781995D01*
X126209465Y-86934880D01*
X126014880Y-87129465D01*
X125861995Y-87358273D01*
X125756686Y-87612510D01*
X125703000Y-87882408D01*
X125703000Y-88157592D01*
X125756686Y-88427490D01*
X125861995Y-88681727D01*
X126014880Y-88910535D01*
X126209465Y-89105120D01*
X126438273Y-89258005D01*
X126515515Y-89290000D01*
X126438273Y-89321995D01*
X126209465Y-89474880D01*
X126014880Y-89669465D01*
X125861995Y-89898273D01*
X125756686Y-90152510D01*
X125703000Y-90422408D01*
X125703000Y-90697592D01*
X125756686Y-90967490D01*
X125861995Y-91221727D01*
X126014880Y-91450535D01*
X126209465Y-91645120D01*
X126438273Y-91798005D01*
X126515515Y-91830000D01*
X126438273Y-91861995D01*
X126209465Y-92014880D01*
X126014880Y-92209465D01*
X125861995Y-92438273D01*
X125756686Y-92692510D01*
X125703000Y-92962408D01*
X125703000Y-93237592D01*
X125756686Y-93507490D01*
X125861995Y-93761727D01*
X126014880Y-93990535D01*
X126209465Y-94185120D01*
X126438273Y-94338005D01*
X126515515Y-94370000D01*
X126438273Y-94401995D01*
X126209465Y-94554880D01*
X126014880Y-94749465D01*
X125861995Y-94978273D01*
X125756686Y-95232510D01*
X125703000Y-95502408D01*
X125703000Y-95777592D01*
X125756686Y-96047490D01*
X125861995Y-96301727D01*
X126014880Y-96530535D01*
X126209465Y-96725120D01*
X126438273Y-96878005D01*
X126692510Y-96983314D01*
X126962408Y-97037000D01*
X127237592Y-97037000D01*
X127507490Y-96983314D01*
X127761727Y-96878005D01*
X127990535Y-96725120D01*
X128185120Y-96530535D01*
X128338005Y-96301727D01*
X128443314Y-96047490D01*
X128497000Y-95777592D01*
X128497000Y-95502408D01*
X128443314Y-95232510D01*
X128338005Y-94978273D01*
X128185120Y-94749465D01*
X127990535Y-94554880D01*
X127761727Y-94401995D01*
X127684485Y-94370000D01*
X127761727Y-94338005D01*
X127990535Y-94185120D01*
X128185120Y-93990535D01*
X128338005Y-93761727D01*
X128443314Y-93507490D01*
X128497000Y-93237592D01*
X128497000Y-92962408D01*
X128443314Y-92692510D01*
X128338005Y-92438273D01*
X128185120Y-92209465D01*
X127990535Y-92014880D01*
X127761727Y-91861995D01*
X127684485Y-91830000D01*
X127761727Y-91798005D01*
X127990535Y-91645120D01*
X128185120Y-91450535D01*
X128261469Y-91336270D01*
X132065000Y-95139802D01*
X132065000Y-95201939D01*
X132104774Y-95401898D01*
X132182795Y-95590256D01*
X132296063Y-95759774D01*
X132440226Y-95903937D01*
X132609744Y-96017205D01*
X132798102Y-96095226D01*
X132998061Y-96135000D01*
X133201939Y-96135000D01*
X133401898Y-96095226D01*
X133590256Y-96017205D01*
X133759774Y-95903937D01*
X133903937Y-95759774D01*
X134017205Y-95590256D01*
X134095226Y-95401898D01*
X134135000Y-95201939D01*
X134135000Y-94998061D01*
X134095226Y-94798102D01*
X134017205Y-94609744D01*
X133903937Y-94440226D01*
X133759774Y-94296063D01*
X133590256Y-94182795D01*
X133401898Y-94104774D01*
X133201939Y-94065000D01*
X133139802Y-94065000D01*
X129123804Y-90049003D01*
X129100001Y-90019999D01*
X128984276Y-89925026D01*
X128852247Y-89854454D01*
X128708986Y-89810997D01*
X128597333Y-89800000D01*
X128597322Y-89800000D01*
X128560000Y-89796324D01*
X128522678Y-89800000D01*
X128272341Y-89800000D01*
X128185120Y-89669465D01*
X127990535Y-89474880D01*
X127761727Y-89321995D01*
X127684485Y-89290000D01*
X127761727Y-89258005D01*
X127990535Y-89105120D01*
X128185120Y-88910535D01*
X128338005Y-88681727D01*
X128443314Y-88427490D01*
X128497000Y-88157592D01*
X128497000Y-87882408D01*
X128443314Y-87612510D01*
X128338005Y-87358273D01*
X128185120Y-87129465D01*
X127990535Y-86934880D01*
X127761727Y-86781995D01*
X127684485Y-86750000D01*
X127761727Y-86718005D01*
X127990535Y-86565120D01*
X128185120Y-86370535D01*
X128338005Y-86141727D01*
X128443314Y-85887490D01*
X128497000Y-85617592D01*
X128497000Y-85342408D01*
X128443314Y-85072510D01*
X128338005Y-84818273D01*
X128185120Y-84589465D01*
X127990535Y-84394880D01*
X127761727Y-84241995D01*
X127690057Y-84212308D01*
X127703023Y-84207636D01*
X127818980Y-84145656D01*
X127885960Y-83905565D01*
X127100000Y-83119605D01*
X126314040Y-83905565D01*
X126381020Y-84145656D01*
X126516760Y-84209485D01*
X126438273Y-84241995D01*
X126209465Y-84394880D01*
X126014880Y-84589465D01*
X125861995Y-84818273D01*
X125756686Y-85072510D01*
X125703000Y-85342408D01*
X120560000Y-85342408D01*
X120560000Y-83380931D01*
X120652627Y-83521118D01*
X121197557Y-83811649D01*
X121788696Y-83990287D01*
X122403328Y-84050168D01*
X123017831Y-83988990D01*
X123608592Y-83809103D01*
X124147373Y-83521118D01*
X124423543Y-83103148D01*
X124332412Y-83012017D01*
X125698090Y-83012017D01*
X125739078Y-83284133D01*
X125832364Y-83543023D01*
X125894344Y-83658980D01*
X126134435Y-83725960D01*
X126920395Y-82940000D01*
X127279605Y-82940000D01*
X128065565Y-83725960D01*
X128305656Y-83658980D01*
X128422756Y-83409952D01*
X128489023Y-83142865D01*
X128501910Y-82867983D01*
X128460922Y-82595867D01*
X128367636Y-82336977D01*
X128305656Y-82221020D01*
X128065565Y-82154040D01*
X127279605Y-82940000D01*
X126920395Y-82940000D01*
X126134435Y-82154040D01*
X125894344Y-82221020D01*
X125777244Y-82470048D01*
X125710977Y-82737135D01*
X125698090Y-83012017D01*
X124332412Y-83012017D01*
X122400000Y-81079605D01*
X122385858Y-81093748D01*
X122206253Y-80914143D01*
X122220395Y-80900000D01*
X122206253Y-80885858D01*
X122385858Y-80706253D01*
X122400000Y-80720395D01*
X122414143Y-80706253D01*
X122593748Y-80885858D01*
X122579605Y-80900000D01*
X124603148Y-82923543D01*
X125021118Y-82647373D01*
X125311649Y-82102443D01*
X125490287Y-81511304D01*
X125550168Y-80896672D01*
X125488990Y-80282169D01*
X125309103Y-79691408D01*
X125021118Y-79152627D01*
X124880931Y-79060000D01*
X126684509Y-79060000D01*
X126438273Y-79161995D01*
%TA.AperFunction,Conductor*%
D23*
G36*
X126438273Y-79161995D02*
G01*
X126209465Y-79314880D01*
X126014880Y-79509465D01*
X125861995Y-79738273D01*
X125756686Y-79992510D01*
X125703000Y-80262408D01*
X125703000Y-80537592D01*
X125756686Y-80807490D01*
X125861995Y-81061727D01*
X126014880Y-81290535D01*
X126209465Y-81485120D01*
X126438273Y-81638005D01*
X126509943Y-81667692D01*
X126496977Y-81672364D01*
X126381020Y-81734344D01*
X126314040Y-81974435D01*
X127100000Y-82760395D01*
X127885960Y-81974435D01*
X127818980Y-81734344D01*
X127683240Y-81670515D01*
X127761727Y-81638005D01*
X127990535Y-81485120D01*
X128185120Y-81290535D01*
X128338005Y-81061727D01*
X128443314Y-80807490D01*
X128497000Y-80537592D01*
X128497000Y-80262408D01*
X128443314Y-79992510D01*
X128338005Y-79738273D01*
X128185120Y-79509465D01*
X127990535Y-79314880D01*
X127761727Y-79161995D01*
X127515491Y-79060000D01*
X159419069Y-79060000D01*
X159278882Y-79152627D01*
X158988351Y-79697557D01*
X158809713Y-80288696D01*
X158749832Y-80903328D01*
X158811010Y-81517831D01*
X158990897Y-82108592D01*
X159278882Y-82647373D01*
X159696852Y-82923543D01*
X161720395Y-80900000D01*
X161706253Y-80885858D01*
X161885858Y-80706253D01*
X161900000Y-80720395D01*
X161914143Y-80706253D01*
X162093748Y-80885858D01*
X162079605Y-80900000D01*
X162093748Y-80914143D01*
X161914143Y-81093748D01*
X161900000Y-81079605D01*
X159876457Y-83103148D01*
X160152627Y-83521118D01*
X160697557Y-83811649D01*
X161288696Y-83990287D01*
X161903328Y-84050168D01*
X162517831Y-83988990D01*
X163108592Y-83809103D01*
X163440000Y-83631961D01*
X163440001Y-110168321D01*
X163102443Y-109988351D01*
X162511304Y-109809713D01*
X161896672Y-109749832D01*
X161282169Y-109811010D01*
X160691408Y-109990897D01*
X160152627Y-110278882D01*
X159876457Y-110696852D01*
X161900000Y-112720395D01*
X161914143Y-112706253D01*
X162093748Y-112885858D01*
X162079605Y-112900000D01*
X162093748Y-112914143D01*
X161914143Y-113093748D01*
X161900000Y-113079605D01*
X161885858Y-113093748D01*
X161706253Y-112914143D01*
X161720395Y-112900000D01*
X159696852Y-110876457D01*
X159278882Y-111152627D01*
X158988351Y-111697557D01*
X158809713Y-112288696D01*
X158749832Y-112903328D01*
X158811010Y-113517831D01*
X158990897Y-114108592D01*
X159278882Y-114647373D01*
X159419069Y-114740000D01*
X148609565Y-114740000D01*
X148740704Y-114470429D01*
X148822384Y-114158892D01*
X148841718Y-113837405D01*
X148797961Y-113518325D01*
X148692795Y-113213912D01*
X148599814Y-113039956D01*
X148335413Y-112944192D01*
X147379605Y-113900000D01*
X147393748Y-113914143D01*
X147214143Y-114093748D01*
X147200000Y-114079605D01*
X147185858Y-114093748D01*
X147006253Y-113914143D01*
X147020395Y-113900000D01*
X146064587Y-112944192D01*
X145800186Y-113039956D01*
X145659296Y-113329571D01*
X145577616Y-113641108D01*
X145558282Y-113962595D01*
X145602039Y-114281675D01*
X145707205Y-114586088D01*
X145789472Y-114740000D01*
X142109565Y-114740000D01*
X142240704Y-114470429D01*
X142322384Y-114158892D01*
X142341718Y-113837405D01*
X142297961Y-113518325D01*
X142192795Y-113213912D01*
X142099814Y-113039956D01*
X141835413Y-112944192D01*
X140879605Y-113900000D01*
X140893748Y-113914143D01*
X140714143Y-114093748D01*
X140700000Y-114079605D01*
X140685858Y-114093748D01*
X140506253Y-113914143D01*
X140520395Y-113900000D01*
X140506253Y-113885858D01*
X140685858Y-113706253D01*
X140700000Y-113720395D01*
X141655808Y-112764587D01*
X146244192Y-112764587D01*
X147200000Y-113720395D01*
X148155808Y-112764587D01*
X148060044Y-112500186D01*
X147770429Y-112359296D01*
X147458892Y-112277616D01*
X147137405Y-112258282D01*
X146818325Y-112302039D01*
X146513912Y-112407205D01*
X146339956Y-112500186D01*
X146244192Y-112764587D01*
X141655808Y-112764587D01*
X141560044Y-112500186D01*
X141270429Y-112359296D01*
X140958892Y-112277616D01*
X140637405Y-112258282D01*
X140318325Y-112302039D01*
X140013912Y-112407205D01*
X139839956Y-112500186D01*
X139744193Y-112764585D01*
X139628525Y-112648917D01*
X139626971Y-112650471D01*
X139617795Y-112623912D01*
X139524814Y-112449956D01*
X139260413Y-112354192D01*
X138304605Y-113310000D01*
X138318748Y-113324143D01*
X138139143Y-113503748D01*
X138125000Y-113489605D01*
X137169192Y-114445413D01*
X137264956Y-114709814D01*
X137327007Y-114740000D01*
X130278570Y-114740000D01*
X130335044Y-114709814D01*
X130430808Y-114445413D01*
X129475000Y-113489605D01*
X128519192Y-114445413D01*
X128614956Y-114709814D01*
X128677007Y-114740000D01*
X124880931Y-114740000D01*
X125021118Y-114647373D01*
X125311649Y-114102443D01*
X125490287Y-113511304D01*
X125503800Y-113372595D01*
X127833282Y-113372595D01*
X127877039Y-113691675D01*
X127982205Y-113996088D01*
X128075186Y-114170044D01*
X128339587Y-114265808D01*
X129295395Y-113310000D01*
X129654605Y-113310000D01*
X130610413Y-114265808D01*
X130874814Y-114170044D01*
X131015704Y-113880429D01*
X131097384Y-113568892D01*
X131109189Y-113372595D01*
X136483282Y-113372595D01*
X136527039Y-113691675D01*
X136632205Y-113996088D01*
X136725186Y-114170044D01*
X136989587Y-114265808D01*
X137945395Y-113310000D01*
X136989587Y-112354192D01*
X136725186Y-112449956D01*
X136584296Y-112739571D01*
X136502616Y-113051108D01*
X136483282Y-113372595D01*
X131109189Y-113372595D01*
X131116718Y-113247405D01*
X131072961Y-112928325D01*
X130967795Y-112623912D01*
X130874814Y-112449956D01*
X130610413Y-112354192D01*
X129654605Y-113310000D01*
X129295395Y-113310000D01*
X128339587Y-112354192D01*
X128075186Y-112449956D01*
X127934296Y-112739571D01*
X127852616Y-113051108D01*
X127833282Y-113372595D01*
X125503800Y-113372595D01*
X125550168Y-112896672D01*
X125488990Y-112282169D01*
X125456232Y-112174587D01*
X128519192Y-112174587D01*
X129475000Y-113130395D01*
X130430808Y-112174587D01*
X137169192Y-112174587D01*
X138125000Y-113130395D01*
X139080808Y-112174587D01*
X138985044Y-111910186D01*
X138695429Y-111769296D01*
X138383892Y-111687616D01*
X138062405Y-111668282D01*
X137743325Y-111712039D01*
X137438912Y-111817205D01*
X137264956Y-111910186D01*
X137169192Y-112174587D01*
X130430808Y-112174587D01*
X130335044Y-111910186D01*
X130045429Y-111769296D01*
X129733892Y-111687616D01*
X129412405Y-111668282D01*
X129093325Y-111712039D01*
X128788912Y-111817205D01*
X128614956Y-111910186D01*
X128519192Y-112174587D01*
X125456232Y-112174587D01*
X125309103Y-111691408D01*
X125021118Y-111152627D01*
X124603148Y-110876457D01*
X122579605Y-112900000D01*
X122593748Y-112914143D01*
X122414143Y-113093748D01*
X122400000Y-113079605D01*
X122385858Y-113093748D01*
X122206253Y-112914143D01*
X122220395Y-112900000D01*
X122206253Y-112885858D01*
X122385858Y-112706253D01*
X122400000Y-112720395D01*
X124423543Y-110696852D01*
X124147373Y-110278882D01*
X124122111Y-110265413D01*
X128519192Y-110265413D01*
X128614956Y-110529814D01*
X128904571Y-110670704D01*
X129216108Y-110752384D01*
X129537595Y-110771718D01*
X129856675Y-110727961D01*
X130161088Y-110622795D01*
X130335044Y-110529814D01*
X130428885Y-110270723D01*
X130432500Y-110267108D01*
X130457660Y-110292268D01*
X130465575Y-110437763D01*
X130635603Y-110508562D01*
X130816176Y-110544828D01*
X131000355Y-110545171D01*
X131181061Y-110509574D01*
X131351351Y-110439408D01*
X131354425Y-110437763D01*
X131364936Y-110244541D01*
X130951926Y-109831531D01*
X131015704Y-109700429D01*
X131039413Y-109610000D01*
X131089605Y-109610000D01*
X131544541Y-110064936D01*
X131737763Y-110054425D01*
X131808562Y-109884397D01*
X131844828Y-109703824D01*
X131844834Y-109700355D01*
X135754829Y-109700355D01*
X135790426Y-109881061D01*
X135860592Y-110051351D01*
X135862237Y-110054425D01*
X136055459Y-110064936D01*
X136510395Y-109610000D01*
X136055459Y-109155064D01*
X135862237Y-109165575D01*
X135791438Y-109335603D01*
X135755172Y-109516176D01*
X135754829Y-109700355D01*
X131844834Y-109700355D01*
X131845171Y-109519645D01*
X131809574Y-109338939D01*
X131739408Y-109168649D01*
X131737763Y-109165575D01*
X131544541Y-109155064D01*
X131089605Y-109610000D01*
X131039413Y-109610000D01*
X131097384Y-109388892D01*
X131106719Y-109233676D01*
X131364936Y-108975459D01*
X136235064Y-108975459D01*
X136488222Y-109228617D01*
X136527039Y-109511675D01*
X136632205Y-109816088D01*
X136643112Y-109836493D01*
X136235064Y-110244541D01*
X136245575Y-110437763D01*
X136415603Y-110508562D01*
X136596176Y-110544828D01*
X136780355Y-110545171D01*
X136961061Y-110509574D01*
X137131351Y-110439408D01*
X137134425Y-110437763D01*
X137142340Y-110292268D01*
X137167500Y-110267108D01*
X137171115Y-110270723D01*
X137264956Y-110529814D01*
X137554571Y-110670704D01*
X137866108Y-110752384D01*
X138187595Y-110771718D01*
X138506675Y-110727961D01*
X138811088Y-110622795D01*
X138985044Y-110529814D01*
X139080808Y-110265413D01*
X138125000Y-109309605D01*
X138110858Y-109323748D01*
X137931253Y-109144143D01*
X137945395Y-109130000D01*
X138304605Y-109130000D01*
X139181795Y-110007190D01*
X139251082Y-110174463D01*
X139430013Y-110442252D01*
X139657748Y-110669987D01*
X139925537Y-110848918D01*
X140223088Y-110972168D01*
X140538967Y-111035000D01*
X140861033Y-111035000D01*
X141176912Y-110972168D01*
X141474463Y-110848918D01*
X141742252Y-110669987D01*
X141969987Y-110442252D01*
X142148918Y-110174463D01*
X142272168Y-109876912D01*
X142335000Y-109561033D01*
X142335000Y-109238967D01*
X142272168Y-108923088D01*
X142148918Y-108625537D01*
X141969987Y-108357748D01*
X141742252Y-108130013D01*
X141474463Y-107951082D01*
X141176912Y-107827832D01*
X140861033Y-107765000D01*
X140538967Y-107765000D01*
X140223088Y-107827832D01*
X139925537Y-107951082D01*
X139657748Y-108130013D01*
X139519669Y-108268092D01*
X139260413Y-108174192D01*
X138304605Y-109130000D01*
X137945395Y-109130000D01*
X136989587Y-108174192D01*
X136725186Y-108269956D01*
X136584296Y-108559571D01*
X136551596Y-108684294D01*
X136418939Y-108710426D01*
X136248649Y-108780592D01*
X136245575Y-108782237D01*
X136235064Y-108975459D01*
X131364936Y-108975459D01*
X131354425Y-108782237D01*
X131184397Y-108711438D01*
X131050959Y-108684639D01*
X130967795Y-108443912D01*
X130874814Y-108269956D01*
X130610413Y-108174192D01*
X129654605Y-109130000D01*
X129668748Y-109144143D01*
X129489143Y-109323748D01*
X129475000Y-109309605D01*
X128519192Y-110265413D01*
X124122111Y-110265413D01*
X123602443Y-109988351D01*
X123011304Y-109809713D01*
X122396672Y-109749832D01*
X121782169Y-109811010D01*
X121191408Y-109990897D01*
X120652627Y-110278882D01*
X120560000Y-110419069D01*
X120560000Y-102500000D01*
X125332815Y-102500000D01*
X125361487Y-102791111D01*
X125446401Y-103071034D01*
X125584294Y-103329014D01*
X125769866Y-103555134D01*
X125995986Y-103740706D01*
X126013374Y-103750000D01*
X125995986Y-103759294D01*
X125769866Y-103944866D01*
X125584294Y-104170986D01*
X125446401Y-104428966D01*
X125361487Y-104708889D01*
X125332815Y-105000000D01*
X125361487Y-105291111D01*
X125446401Y-105571034D01*
X125584294Y-105829014D01*
X125769866Y-106055134D01*
X125995986Y-106240706D01*
X126013374Y-106250000D01*
X125995986Y-106259294D01*
X125769866Y-106444866D01*
X125584294Y-106670986D01*
X125446401Y-106928966D01*
X125361487Y-107208889D01*
X125332815Y-107500000D01*
X125361487Y-107791111D01*
X125446401Y-108071034D01*
X125584294Y-108329014D01*
X125769866Y-108555134D01*
X125995986Y-108740706D01*
X126253966Y-108878599D01*
X126533889Y-108963513D01*
X126752050Y-108985000D01*
X127047950Y-108985000D01*
X127266111Y-108963513D01*
X127546034Y-108878599D01*
X127804014Y-108740706D01*
X127909503Y-108654133D01*
X127852616Y-108871108D01*
X127833282Y-109192595D01*
X127877039Y-109511675D01*
X127982205Y-109816088D01*
X128075186Y-109990044D01*
X128339587Y-110085808D01*
X129295395Y-109130000D01*
X129281253Y-109115858D01*
X129460858Y-108936253D01*
X129475000Y-108950395D01*
X130430808Y-107994587D01*
X137169192Y-107994587D01*
X138125000Y-108950395D01*
X139080808Y-107994587D01*
X138985044Y-107730186D01*
X138695429Y-107589296D01*
X138383892Y-107507616D01*
X138062405Y-107488282D01*
X137743325Y-107532039D01*
X137438912Y-107637205D01*
X137264956Y-107730186D01*
X137169192Y-107994587D01*
X130430808Y-107994587D01*
X130335044Y-107730186D01*
X130045429Y-107589296D01*
X129733892Y-107507616D01*
X129412405Y-107488282D01*
X129121646Y-107528155D01*
X130389802Y-106260000D01*
X140520341Y-106260000D01*
X140557663Y-106263676D01*
X140594985Y-106260000D01*
X140594996Y-106260000D01*
X140706649Y-106249003D01*
X140849910Y-106205546D01*
X140981939Y-106134974D01*
X141097664Y-106040001D01*
X141121467Y-106010997D01*
X143287853Y-103844611D01*
X146725924Y-103844611D01*
X146735613Y-103989067D01*
X146773299Y-104128859D01*
X146837532Y-104258613D01*
X146925845Y-104373342D01*
X147034843Y-104468637D01*
X147160339Y-104540837D01*
X147297508Y-104587167D01*
X147441081Y-104605846D01*
X147585537Y-104596157D01*
X147725329Y-104558471D01*
X147855083Y-104494238D01*
X147969812Y-104405925D01*
X148041228Y-104324240D01*
X148226474Y-104064896D01*
X148241844Y-104115566D01*
X148457208Y-104635499D01*
X148467739Y-104670214D01*
X148484839Y-104702206D01*
X148484840Y-104702208D01*
X148510919Y-104750997D01*
X148535989Y-104797900D01*
X148568343Y-104837323D01*
X148627836Y-104909817D01*
X148739755Y-105001666D01*
X148867442Y-105069915D01*
X148902158Y-105080446D01*
X149355386Y-105268179D01*
X149387371Y-105285275D01*
X149422081Y-105295804D01*
X149422092Y-105295809D01*
X149510968Y-105322769D01*
X149525919Y-105327304D01*
X149525920Y-105327304D01*
X149525923Y-105327305D01*
X149613240Y-105335905D01*
X149670004Y-105341496D01*
X149670008Y-105341496D01*
X149726772Y-105335905D01*
X149814089Y-105327305D01*
X149814092Y-105327304D01*
X149814093Y-105327304D01*
X149865738Y-105311638D01*
X149917919Y-105295809D01*
X149917921Y-105295808D01*
X149952641Y-105285276D01*
X149984637Y-105268174D01*
X150437856Y-105080446D01*
X150472570Y-105069915D01*
X150504562Y-105052815D01*
X150504565Y-105052814D01*
X150600256Y-105001667D01*
X150712174Y-104909818D01*
X150804024Y-104797900D01*
X150872274Y-104670214D01*
X150882807Y-104635492D01*
X151070535Y-104182279D01*
X151087637Y-104150283D01*
X151129665Y-104011735D01*
X151140300Y-103903755D01*
X151140300Y-103903753D01*
X151143856Y-103867651D01*
X151140300Y-103831546D01*
X151140300Y-103795727D01*
X151635442Y-104373394D01*
X151713789Y-104448457D01*
X151835865Y-104526299D01*
X151970782Y-104578830D01*
X152113354Y-104604030D01*
X152258103Y-104600932D01*
X152399467Y-104569653D01*
X152532012Y-104511398D01*
X152650645Y-104428403D01*
X152750807Y-104323859D01*
X152828649Y-104201783D01*
X152881180Y-104066866D01*
X152906380Y-103924294D01*
X152903282Y-103779545D01*
X152872003Y-103638181D01*
X152813748Y-103505637D01*
X152751550Y-103416731D01*
X151373342Y-101808821D01*
X152751549Y-100200920D01*
X152813747Y-100112015D01*
X152872003Y-99979470D01*
X152903282Y-99838106D01*
X152906380Y-99693357D01*
X152881181Y-99550785D01*
X152828650Y-99415868D01*
X152750809Y-99293792D01*
X152650647Y-99189248D01*
X152532014Y-99106253D01*
X152399469Y-99047997D01*
X152258106Y-99016718D01*
X152113356Y-99013620D01*
X151970784Y-99038819D01*
X151835867Y-99091350D01*
X151713791Y-99169191D01*
X151635444Y-99244255D01*
X151140300Y-99821921D01*
X151140300Y-99797606D01*
X151143496Y-99773040D01*
X151140300Y-99725390D01*
X151140300Y-99713895D01*
X151137883Y-99689357D01*
X151133807Y-99628583D01*
X151130798Y-99617423D01*
X151129665Y-99605915D01*
X151111978Y-99547609D01*
X151096122Y-99488791D01*
X151090993Y-99478430D01*
X151087637Y-99467367D01*
X151058913Y-99413628D01*
X151031888Y-99359037D01*
X151024838Y-99349878D01*
X151019387Y-99339680D01*
X150980733Y-99292581D01*
X150943575Y-99244308D01*
X150934871Y-99236698D01*
X150927537Y-99227762D01*
X150880443Y-99189113D01*
X150834577Y-99149013D01*
X150824557Y-99143248D01*
X150815619Y-99135913D01*
X150761883Y-99107191D01*
X150709082Y-99076813D01*
X150698130Y-99073114D01*
X150687932Y-99067663D01*
X150629622Y-99049975D01*
X150571912Y-99030483D01*
X150560450Y-99028992D01*
X150549384Y-99025635D01*
X150488736Y-99019662D01*
X150428339Y-99011804D01*
X150416808Y-99012577D01*
X150405300Y-99011444D01*
X150344659Y-99017417D01*
X150283882Y-99021493D01*
X150272721Y-99024502D01*
X150261215Y-99025635D01*
X150202917Y-99043319D01*
X150144090Y-99059178D01*
X150133728Y-99064308D01*
X150122667Y-99067663D01*
X150068941Y-99096380D01*
X150014336Y-99123412D01*
X150005175Y-99130464D01*
X149994980Y-99135913D01*
X149947896Y-99174555D01*
X149899607Y-99211725D01*
X149891994Y-99220432D01*
X149883062Y-99227763D01*
X149844432Y-99274834D01*
X149828191Y-99293410D01*
X149821506Y-99302769D01*
X149791213Y-99339681D01*
X149779536Y-99361526D01*
X148350030Y-101362835D01*
X148320613Y-101398680D01*
X148309274Y-101419894D01*
X146845041Y-103469820D01*
X146790933Y-103563869D01*
X146744603Y-103701038D01*
X146725924Y-103844611D01*
X143287853Y-103844611D01*
X152984355Y-94148110D01*
X153098102Y-94195226D01*
X153298061Y-94235000D01*
X153440000Y-94235000D01*
X153440001Y-107293954D01*
X153270986Y-107384294D01*
X153050055Y-107565608D01*
X153039502Y-107530820D01*
X152980537Y-107420506D01*
X152901185Y-107323815D01*
X152804494Y-107244463D01*
X152694180Y-107185498D01*
X152574482Y-107149188D01*
X152450000Y-107136928D01*
X151885750Y-107140000D01*
X151727000Y-107298750D01*
X151727000Y-108573000D01*
X151747000Y-108573000D01*
X151747000Y-108827000D01*
X151727000Y-108827000D01*
X151727000Y-108847000D01*
X151473000Y-108847000D01*
X151473000Y-108827000D01*
X150273750Y-108827000D01*
X150115000Y-108985750D01*
X150111928Y-109625000D01*
X150113405Y-109639999D01*
X148819293Y-109639999D01*
X148835000Y-109561033D01*
X148835000Y-109238967D01*
X148772168Y-108923088D01*
X148648918Y-108625537D01*
X148469987Y-108357748D01*
X148242252Y-108130013D01*
X147974463Y-107951082D01*
X147676912Y-107827832D01*
X147411307Y-107775000D01*
X150111928Y-107775000D01*
X150115000Y-108414250D01*
X150273750Y-108573000D01*
X151473000Y-108573000D01*
X151473000Y-107298750D01*
X151314250Y-107140000D01*
X150750000Y-107136928D01*
X150625518Y-107149188D01*
X150505820Y-107185498D01*
X150395506Y-107244463D01*
X150298815Y-107323815D01*
X150219463Y-107420506D01*
X150160498Y-107530820D01*
X150124188Y-107650518D01*
X150111928Y-107775000D01*
X147411307Y-107775000D01*
X147361033Y-107765000D01*
X147038967Y-107765000D01*
X146723088Y-107827832D01*
X146425537Y-107951082D01*
X146157748Y-108130013D01*
X145930013Y-108357748D01*
X145751082Y-108625537D01*
X145627832Y-108923088D01*
X145565000Y-109238967D01*
X145565000Y-109561033D01*
X145627832Y-109876912D01*
X145751082Y-110174463D01*
X145930013Y-110442252D01*
X146157748Y-110669987D01*
X146425537Y-110848918D01*
X146723088Y-110972168D01*
X147038967Y-111035000D01*
X147361033Y-111035000D01*
X147676912Y-110972168D01*
X147691721Y-110966034D01*
X147775722Y-111034973D01*
X147897378Y-111100000D01*
X147907752Y-111105545D01*
X148051013Y-111149002D01*
X148162666Y-111159999D01*
X148162675Y-111159999D01*
X148199998Y-111163675D01*
X148237321Y-111159999D01*
X154199394Y-111159999D01*
X154236716Y-111163675D01*
X154274038Y-111159999D01*
X154274049Y-111159999D01*
X154385702Y-111149002D01*
X154528963Y-111105545D01*
X154660992Y-111034973D01*
X154776717Y-110940000D01*
X154800520Y-110910997D01*
X155729697Y-109981820D01*
X155770987Y-110015706D01*
X156028967Y-110153599D01*
X156308890Y-110238513D01*
X156600000Y-110267185D01*
X156891111Y-110238513D01*
X157171034Y-110153599D01*
X157429014Y-110015706D01*
X157655134Y-109830134D01*
X157840706Y-109604013D01*
X157978599Y-109346033D01*
X158063513Y-109066110D01*
X158085000Y-108847949D01*
X158085000Y-108552050D01*
X158063513Y-108333889D01*
X157978599Y-108053966D01*
X157840706Y-107795986D01*
X157655134Y-107569866D01*
X157429013Y-107384294D01*
X157171033Y-107246401D01*
X156891110Y-107161487D01*
X156600000Y-107132815D01*
X156308889Y-107161487D01*
X156135010Y-107214233D01*
X156135010Y-94712793D01*
X156932803Y-93915000D01*
X157710000Y-93915000D01*
X157710000Y-107485000D01*
X161530000Y-107485000D01*
X161530000Y-93915000D01*
X157710000Y-93915000D01*
X156932803Y-93915000D01*
X159836005Y-91011799D01*
X159865002Y-90988002D01*
X159959975Y-90872277D01*
X160030547Y-90740248D01*
X160074004Y-90596987D01*
X160085001Y-90485334D01*
X160085001Y-90485324D01*
X160088677Y-90448001D01*
X160085001Y-90410678D01*
X160085001Y-89789321D01*
X160088677Y-89751998D01*
X160085001Y-89714675D01*
X160085001Y-89714666D01*
X160074004Y-89603013D01*
X160030547Y-89459752D01*
X160002350Y-89407000D01*
X159959975Y-89327722D01*
X159888800Y-89240996D01*
X159865002Y-89211998D01*
X159836004Y-89188200D01*
X158336806Y-87689003D01*
X158313003Y-87659999D01*
X158197278Y-87565026D01*
X158065249Y-87494454D01*
X157921988Y-87450997D01*
X157810335Y-87440000D01*
X157810324Y-87440000D01*
X157773002Y-87436324D01*
X157735680Y-87440000D01*
X145003711Y-87440000D01*
X144959774Y-87396063D01*
X144790256Y-87282795D01*
X144601898Y-87204774D01*
X144401939Y-87165000D01*
X144198061Y-87165000D01*
X143998102Y-87204774D01*
X143809744Y-87282795D01*
X143640226Y-87396063D01*
X143496063Y-87540226D01*
X143382795Y-87709744D01*
X143304774Y-87898102D01*
X143265000Y-88098061D01*
X143265000Y-88301939D01*
X143304774Y-88501898D01*
X143382795Y-88690256D01*
X143496063Y-88859774D01*
X143640226Y-89003937D01*
X143809744Y-89117205D01*
X143998102Y-89195226D01*
X144198061Y-89235000D01*
X144401939Y-89235000D01*
X144601898Y-89195226D01*
X144790256Y-89117205D01*
X144959774Y-89003937D01*
X145003711Y-88960000D01*
X153094198Y-88960000D01*
X153040226Y-88996063D01*
X152896063Y-89140226D01*
X152782795Y-89309744D01*
X152711340Y-89482250D01*
X152598102Y-89504774D01*
X152409744Y-89582795D01*
X152240226Y-89696063D01*
X152096063Y-89840226D01*
X151982795Y-90009744D01*
X151904774Y-90198102D01*
X151865000Y-90398061D01*
X151865000Y-90601939D01*
X151904774Y-90801898D01*
X151982795Y-90990256D01*
X152096063Y-91159774D01*
X152140001Y-91203712D01*
X152140000Y-92206451D01*
X140106452Y-104240000D01*
X128252595Y-104240000D01*
X128215706Y-104170986D01*
X128030134Y-103944866D01*
X127804014Y-103759294D01*
X127786626Y-103750000D01*
X127804014Y-103740706D01*
X128030134Y-103555134D01*
X128215706Y-103329014D01*
X128353599Y-103071034D01*
X128438513Y-102791111D01*
X128467185Y-102500000D01*
X128438513Y-102208889D01*
X128353599Y-101928966D01*
X128215706Y-101670986D01*
X128034392Y-101450055D01*
X128069180Y-101439502D01*
X128179494Y-101380537D01*
X128276185Y-101301185D01*
X128355537Y-101204494D01*
X128414502Y-101094180D01*
X128450812Y-100974482D01*
X128463072Y-100850000D01*
X128460000Y-100285750D01*
X128301250Y-100127000D01*
X127027000Y-100127000D01*
X127027000Y-100147000D01*
X126773000Y-100147000D01*
X126773000Y-100127000D01*
X125498750Y-100127000D01*
X125340000Y-100285750D01*
X125336928Y-100850000D01*
X125349188Y-100974482D01*
X125385498Y-101094180D01*
X125444463Y-101204494D01*
X125523815Y-101301185D01*
X125620506Y-101380537D01*
X125730820Y-101439502D01*
X125765608Y-101450055D01*
X125584294Y-101670986D01*
X125446401Y-101928966D01*
X125361487Y-102208889D01*
X125332815Y-102500000D01*
X120560000Y-102500000D01*
X120560000Y-99150000D01*
X125336928Y-99150000D01*
X125340000Y-99714250D01*
X125498750Y-99873000D01*
X126773000Y-99873000D01*
X126773000Y-98673750D01*
X127027000Y-98673750D01*
X127027000Y-99873000D01*
X128301250Y-99873000D01*
X128311842Y-99862408D01*
X129463000Y-99862408D01*
X129463000Y-100137592D01*
X129516686Y-100407490D01*
X129621995Y-100661727D01*
X129774880Y-100890535D01*
X129969465Y-101085120D01*
X130198273Y-101238005D01*
X130452510Y-101343314D01*
X130722408Y-101397000D01*
X130997592Y-101397000D01*
X131267490Y-101343314D01*
X131521727Y-101238005D01*
X131750535Y-101085120D01*
X131945120Y-100890535D01*
X132003920Y-100802535D01*
X132012188Y-100886482D01*
X132048498Y-101006180D01*
X132107463Y-101116494D01*
X132186815Y-101213185D01*
X132283506Y-101292537D01*
X132393820Y-101351502D01*
X132513518Y-101387812D01*
X132638000Y-101400072D01*
X133114250Y-101397000D01*
X133273000Y-101238250D01*
X133273000Y-100127000D01*
X133253000Y-100127000D01*
X133253000Y-99873000D01*
X133273000Y-99873000D01*
X133273000Y-98761750D01*
X133527000Y-98761750D01*
X133527000Y-99873000D01*
X133547000Y-99873000D01*
X133547000Y-100127000D01*
X133527000Y-100127000D01*
X133527000Y-101238250D01*
X133685750Y-101397000D01*
X134162000Y-101400072D01*
X134286482Y-101387812D01*
X134406180Y-101351502D01*
X134516494Y-101292537D01*
X134613185Y-101213185D01*
X134692537Y-101116494D01*
X134751502Y-101006180D01*
X134787812Y-100886482D01*
X134796080Y-100802535D01*
X134854880Y-100890535D01*
X135049465Y-101085120D01*
X135278273Y-101238005D01*
X135532510Y-101343314D01*
X135802408Y-101397000D01*
X136077592Y-101397000D01*
X136347490Y-101343314D01*
X136601727Y-101238005D01*
X136830535Y-101085120D01*
X137025120Y-100890535D01*
X137178005Y-100661727D01*
X137210000Y-100584485D01*
X137241995Y-100661727D01*
X137394880Y-100890535D01*
X137589465Y-101085120D01*
X137818273Y-101238005D01*
X138072510Y-101343314D01*
X138342408Y-101397000D01*
X138617592Y-101397000D01*
X138887490Y-101343314D01*
X139141727Y-101238005D01*
X139370535Y-101085120D01*
X139565120Y-100890535D01*
X139718005Y-100661727D01*
X139823314Y-100407490D01*
X139877000Y-100137592D01*
X139877000Y-99862408D01*
X139823314Y-99592510D01*
X139718005Y-99338273D01*
X139565120Y-99109465D01*
X139370535Y-98914880D01*
X139141727Y-98761995D01*
X138887490Y-98656686D01*
X138617592Y-98603000D01*
X138342408Y-98603000D01*
X138072510Y-98656686D01*
X137818273Y-98761995D01*
X137589465Y-98914880D01*
X137394880Y-99109465D01*
X137241995Y-99338273D01*
X137210000Y-99415515D01*
X137178005Y-99338273D01*
X137025120Y-99109465D01*
X136830535Y-98914880D01*
X136705000Y-98831000D01*
X136705000Y-89017865D01*
X139387867Y-86335000D01*
X151922406Y-86335000D01*
X151959294Y-86404013D01*
X152144866Y-86630134D01*
X152370986Y-86815706D01*
X152628966Y-86953599D01*
X152908889Y-87038513D01*
X153200000Y-87067185D01*
X153491110Y-87038513D01*
X153771033Y-86953599D01*
X154029013Y-86815706D01*
X154249945Y-86634392D01*
X154260498Y-86669180D01*
X154319463Y-86779494D01*
X154398815Y-86876185D01*
X154495506Y-86955537D01*
X154605820Y-87014502D01*
X154725518Y-87050812D01*
X154850000Y-87063072D01*
X155414250Y-87060000D01*
X155573000Y-86901250D01*
X155573000Y-85627000D01*
X155827000Y-85627000D01*
X155827000Y-86901250D01*
X155985750Y-87060000D01*
X156550000Y-87063072D01*
X156674482Y-87050812D01*
X156794180Y-87014502D01*
X156904494Y-86955537D01*
X157001185Y-86876185D01*
X157080537Y-86779494D01*
X157139502Y-86669180D01*
X157175812Y-86549482D01*
X157188072Y-86425000D01*
X157185000Y-85785750D01*
X157026250Y-85627000D01*
X155827000Y-85627000D01*
X155573000Y-85627000D01*
X155553000Y-85627000D01*
X155553000Y-85373000D01*
X155573000Y-85373000D01*
X155573000Y-84098750D01*
X155827000Y-84098750D01*
X155827000Y-85373000D01*
X157026250Y-85373000D01*
X157185000Y-85214250D01*
X157188072Y-84575000D01*
X157175812Y-84450518D01*
X157139502Y-84330820D01*
X157080537Y-84220506D01*
X157001185Y-84123815D01*
X156904494Y-84044463D01*
X156794180Y-83985498D01*
X156674482Y-83949188D01*
X156550000Y-83936928D01*
X155985750Y-83940000D01*
X155827000Y-84098750D01*
X155573000Y-84098750D01*
X155414250Y-83940000D01*
X154850000Y-83936928D01*
X154725518Y-83949188D01*
X154605820Y-83985498D01*
X154495506Y-84044463D01*
X154398815Y-84123815D01*
X154319463Y-84220506D01*
X154260498Y-84330820D01*
X154249945Y-84365608D01*
X154029014Y-84184294D01*
X153771034Y-84046401D01*
X153491111Y-83961487D01*
X153200000Y-83932815D01*
X152908890Y-83961487D01*
X152628967Y-84046401D01*
X152370987Y-84184294D01*
X152144866Y-84369866D01*
X151959294Y-84595986D01*
X151922405Y-84665000D01*
X139083016Y-84665000D01*
X139041998Y-84660960D01*
X139000980Y-84665000D01*
X139000979Y-84665000D01*
X138878309Y-84677082D01*
X138720911Y-84724828D01*
X138575852Y-84802364D01*
X138512975Y-84853966D01*
X138448707Y-84906709D01*
X138422561Y-84938568D01*
X135308574Y-88052557D01*
X135276710Y-88078707D01*
X135250562Y-88110569D01*
X135172364Y-88205853D01*
X135094828Y-88350912D01*
X135047082Y-88508310D01*
X135030960Y-88671998D01*
X135035001Y-88713027D01*
X135035000Y-98929345D01*
X134854880Y-99109465D01*
X134796080Y-99197465D01*
X134787812Y-99113518D01*
X134751502Y-98993820D01*
X134692537Y-98883506D01*
X134613185Y-98786815D01*
X134516494Y-98707463D01*
X134406180Y-98648498D01*
X134286482Y-98612188D01*
X134162000Y-98599928D01*
X133685750Y-98603000D01*
X133527000Y-98761750D01*
X133273000Y-98761750D01*
X133114250Y-98603000D01*
X132638000Y-98599928D01*
X132513518Y-98612188D01*
X132393820Y-98648498D01*
X132283506Y-98707463D01*
X132186815Y-98786815D01*
X132107463Y-98883506D01*
X132048498Y-98993820D01*
X132012188Y-99113518D01*
X132003920Y-99197465D01*
X131945120Y-99109465D01*
X131750535Y-98914880D01*
X131521727Y-98761995D01*
X131267490Y-98656686D01*
X130997592Y-98603000D01*
X130722408Y-98603000D01*
X130452510Y-98656686D01*
X130198273Y-98761995D01*
X129969465Y-98914880D01*
X129774880Y-99109465D01*
X129621995Y-99338273D01*
X129516686Y-99592510D01*
X129463000Y-99862408D01*
X128311842Y-99862408D01*
X128460000Y-99714250D01*
X128463072Y-99150000D01*
X128450812Y-99025518D01*
X128414502Y-98905820D01*
X128355537Y-98795506D01*
X128276185Y-98698815D01*
X128179494Y-98619463D01*
X128069180Y-98560498D01*
X127949482Y-98524188D01*
X127825000Y-98511928D01*
X127185750Y-98515000D01*
X127027000Y-98673750D01*
X126773000Y-98673750D01*
X126614250Y-98515000D01*
X125975000Y-98511928D01*
X125850518Y-98524188D01*
X125730820Y-98560498D01*
X125620506Y-98619463D01*
X125523815Y-98698815D01*
X125444463Y-98795506D01*
X125385498Y-98905820D01*
X125349188Y-99025518D01*
X125336928Y-99150000D01*
X120560000Y-99150000D01*
X120560000Y-92952408D01*
X121003000Y-92952408D01*
X121003000Y-93227592D01*
X121056686Y-93497490D01*
X121161995Y-93751727D01*
X121314880Y-93980535D01*
X121509465Y-94175120D01*
X121738273Y-94328005D01*
X121815515Y-94360000D01*
X121738273Y-94391995D01*
X121509465Y-94544880D01*
X121314880Y-94739465D01*
X121161995Y-94968273D01*
X121056686Y-95222510D01*
X121003000Y-95492408D01*
X121003000Y-95767592D01*
X121056686Y-96037490D01*
X121161995Y-96291727D01*
X121314880Y-96520535D01*
X121509465Y-96715120D01*
X121738273Y-96868005D01*
X121992510Y-96973314D01*
X122262408Y-97027000D01*
X122537592Y-97027000D01*
X122807490Y-96973314D01*
X123061727Y-96868005D01*
X123290535Y-96715120D01*
X123485120Y-96520535D01*
X123638005Y-96291727D01*
X123743314Y-96037490D01*
X123797000Y-95767592D01*
X123797000Y-95492408D01*
X123743314Y-95222510D01*
X123638005Y-94968273D01*
X123485120Y-94739465D01*
X123290535Y-94544880D01*
X123061727Y-94391995D01*
X122984485Y-94360000D01*
X123061727Y-94328005D01*
X123290535Y-94175120D01*
X123485120Y-93980535D01*
X123638005Y-93751727D01*
X123743314Y-93497490D01*
X123797000Y-93227592D01*
X123797000Y-92952408D01*
X123743314Y-92682510D01*
X123638005Y-92428273D01*
X123485120Y-92199465D01*
X123290535Y-92004880D01*
X123061727Y-91851995D01*
X122990057Y-91822308D01*
X123003023Y-91817636D01*
X123118980Y-91755656D01*
X123185960Y-91515565D01*
X122400000Y-90729605D01*
X121614040Y-91515565D01*
X121681020Y-91755656D01*
X121816760Y-91819485D01*
X121738273Y-91851995D01*
X121509465Y-92004880D01*
X121314880Y-92199465D01*
X121161995Y-92428273D01*
X121056686Y-92682510D01*
X121003000Y-92952408D01*
X120560000Y-92952408D01*
X120560000Y-90622017D01*
X120998090Y-90622017D01*
X121039078Y-90894133D01*
X121132364Y-91153023D01*
X121194344Y-91268980D01*
X121434435Y-91335960D01*
X122220395Y-90550000D01*
X122579605Y-90550000D01*
X123365565Y-91335960D01*
X123605656Y-91268980D01*
X123722756Y-91019952D01*
X123789023Y-90752865D01*
X123801910Y-90477983D01*
X123760922Y-90205867D01*
X123667636Y-89946977D01*
X123605656Y-89831020D01*
X123365565Y-89764040D01*
X122579605Y-90550000D01*
X122220395Y-90550000D01*
X121434435Y-89764040D01*
X121194344Y-89831020D01*
X121077244Y-90080048D01*
X121010977Y-90347135D01*
X120998090Y-90622017D01*
X120560000Y-90622017D01*
X120560000Y-87872408D01*
X121003000Y-87872408D01*
X121003000Y-88147592D01*
X121056686Y-88417490D01*
X121161995Y-88671727D01*
X121314880Y-88900535D01*
X121509465Y-89095120D01*
X121738273Y-89248005D01*
X121809943Y-89277692D01*
X121796977Y-89282364D01*
X121681020Y-89344344D01*
X121614040Y-89584435D01*
X122400000Y-90370395D01*
X123185960Y-89584435D01*
X123118980Y-89344344D01*
X122983240Y-89280515D01*
X123061727Y-89248005D01*
X123290535Y-89095120D01*
X123485120Y-88900535D01*
X123638005Y-88671727D01*
X123743314Y-88417490D01*
X123797000Y-88147592D01*
X123797000Y-87872408D01*
X123743314Y-87602510D01*
X123638005Y-87348273D01*
X123485120Y-87119465D01*
X123290535Y-86924880D01*
X123061727Y-86771995D01*
X122807490Y-86666686D01*
X122537592Y-86613000D01*
X122262408Y-86613000D01*
X121992510Y-86666686D01*
X121738273Y-86771995D01*
X121509465Y-86924880D01*
X121314880Y-87119465D01*
X121161995Y-87348273D01*
X121056686Y-87602510D01*
X121003000Y-87872408D01*
X120560000Y-87872408D01*
X120560000Y-85342408D01*
X125703000Y-85342408D01*
X125703000Y-85617592D01*
X125756686Y-85887490D01*
X125861995Y-86141727D01*
X126014880Y-86370535D01*
X126209465Y-86565120D01*
X126438273Y-86718005D01*
X126515515Y-86750000D01*
X126438273Y-86781995D01*
X126209465Y-86934880D01*
X126014880Y-87129465D01*
X125861995Y-87358273D01*
X125756686Y-87612510D01*
X125703000Y-87882408D01*
X125703000Y-88157592D01*
X125756686Y-88427490D01*
X125861995Y-88681727D01*
X126014880Y-88910535D01*
X126209465Y-89105120D01*
X126438273Y-89258005D01*
X126515515Y-89290000D01*
X126438273Y-89321995D01*
X126209465Y-89474880D01*
X126014880Y-89669465D01*
X125861995Y-89898273D01*
X125756686Y-90152510D01*
X125703000Y-90422408D01*
X125703000Y-90697592D01*
X125756686Y-90967490D01*
X125861995Y-91221727D01*
X126014880Y-91450535D01*
X126209465Y-91645120D01*
X126438273Y-91798005D01*
X126515515Y-91830000D01*
X126438273Y-91861995D01*
X126209465Y-92014880D01*
X126014880Y-92209465D01*
X125861995Y-92438273D01*
X125756686Y-92692510D01*
X125703000Y-92962408D01*
X125703000Y-93237592D01*
X125756686Y-93507490D01*
X125861995Y-93761727D01*
X126014880Y-93990535D01*
X126209465Y-94185120D01*
X126438273Y-94338005D01*
X126515515Y-94370000D01*
X126438273Y-94401995D01*
X126209465Y-94554880D01*
X126014880Y-94749465D01*
X125861995Y-94978273D01*
X125756686Y-95232510D01*
X125703000Y-95502408D01*
X125703000Y-95777592D01*
X125756686Y-96047490D01*
X125861995Y-96301727D01*
X126014880Y-96530535D01*
X126209465Y-96725120D01*
X126438273Y-96878005D01*
X126692510Y-96983314D01*
X126962408Y-97037000D01*
X127237592Y-97037000D01*
X127507490Y-96983314D01*
X127761727Y-96878005D01*
X127990535Y-96725120D01*
X128185120Y-96530535D01*
X128338005Y-96301727D01*
X128443314Y-96047490D01*
X128497000Y-95777592D01*
X128497000Y-95502408D01*
X128443314Y-95232510D01*
X128338005Y-94978273D01*
X128185120Y-94749465D01*
X127990535Y-94554880D01*
X127761727Y-94401995D01*
X127684485Y-94370000D01*
X127761727Y-94338005D01*
X127990535Y-94185120D01*
X128185120Y-93990535D01*
X128338005Y-93761727D01*
X128443314Y-93507490D01*
X128497000Y-93237592D01*
X128497000Y-92962408D01*
X128443314Y-92692510D01*
X128338005Y-92438273D01*
X128185120Y-92209465D01*
X127990535Y-92014880D01*
X127761727Y-91861995D01*
X127684485Y-91830000D01*
X127761727Y-91798005D01*
X127990535Y-91645120D01*
X128185120Y-91450535D01*
X128261469Y-91336270D01*
X132065000Y-95139802D01*
X132065000Y-95201939D01*
X132104774Y-95401898D01*
X132182795Y-95590256D01*
X132296063Y-95759774D01*
X132440226Y-95903937D01*
X132609744Y-96017205D01*
X132798102Y-96095226D01*
X132998061Y-96135000D01*
X133201939Y-96135000D01*
X133401898Y-96095226D01*
X133590256Y-96017205D01*
X133759774Y-95903937D01*
X133903937Y-95759774D01*
X134017205Y-95590256D01*
X134095226Y-95401898D01*
X134135000Y-95201939D01*
X134135000Y-94998061D01*
X134095226Y-94798102D01*
X134017205Y-94609744D01*
X133903937Y-94440226D01*
X133759774Y-94296063D01*
X133590256Y-94182795D01*
X133401898Y-94104774D01*
X133201939Y-94065000D01*
X133139802Y-94065000D01*
X129123804Y-90049003D01*
X129100001Y-90019999D01*
X128984276Y-89925026D01*
X128852247Y-89854454D01*
X128708986Y-89810997D01*
X128597333Y-89800000D01*
X128597322Y-89800000D01*
X128560000Y-89796324D01*
X128522678Y-89800000D01*
X128272341Y-89800000D01*
X128185120Y-89669465D01*
X127990535Y-89474880D01*
X127761727Y-89321995D01*
X127684485Y-89290000D01*
X127761727Y-89258005D01*
X127990535Y-89105120D01*
X128185120Y-88910535D01*
X128338005Y-88681727D01*
X128443314Y-88427490D01*
X128497000Y-88157592D01*
X128497000Y-87882408D01*
X128443314Y-87612510D01*
X128338005Y-87358273D01*
X128185120Y-87129465D01*
X127990535Y-86934880D01*
X127761727Y-86781995D01*
X127684485Y-86750000D01*
X127761727Y-86718005D01*
X127990535Y-86565120D01*
X128185120Y-86370535D01*
X128338005Y-86141727D01*
X128443314Y-85887490D01*
X128497000Y-85617592D01*
X128497000Y-85342408D01*
X128443314Y-85072510D01*
X128338005Y-84818273D01*
X128185120Y-84589465D01*
X127990535Y-84394880D01*
X127761727Y-84241995D01*
X127690057Y-84212308D01*
X127703023Y-84207636D01*
X127818980Y-84145656D01*
X127885960Y-83905565D01*
X127100000Y-83119605D01*
X126314040Y-83905565D01*
X126381020Y-84145656D01*
X126516760Y-84209485D01*
X126438273Y-84241995D01*
X126209465Y-84394880D01*
X126014880Y-84589465D01*
X125861995Y-84818273D01*
X125756686Y-85072510D01*
X125703000Y-85342408D01*
X120560000Y-85342408D01*
X120560000Y-83380931D01*
X120652627Y-83521118D01*
X121197557Y-83811649D01*
X121788696Y-83990287D01*
X122403328Y-84050168D01*
X123017831Y-83988990D01*
X123608592Y-83809103D01*
X124147373Y-83521118D01*
X124423543Y-83103148D01*
X124332412Y-83012017D01*
X125698090Y-83012017D01*
X125739078Y-83284133D01*
X125832364Y-83543023D01*
X125894344Y-83658980D01*
X126134435Y-83725960D01*
X126920395Y-82940000D01*
X127279605Y-82940000D01*
X128065565Y-83725960D01*
X128305656Y-83658980D01*
X128422756Y-83409952D01*
X128489023Y-83142865D01*
X128501910Y-82867983D01*
X128460922Y-82595867D01*
X128367636Y-82336977D01*
X128305656Y-82221020D01*
X128065565Y-82154040D01*
X127279605Y-82940000D01*
X126920395Y-82940000D01*
X126134435Y-82154040D01*
X125894344Y-82221020D01*
X125777244Y-82470048D01*
X125710977Y-82737135D01*
X125698090Y-83012017D01*
X124332412Y-83012017D01*
X122400000Y-81079605D01*
X122385858Y-81093748D01*
X122206253Y-80914143D01*
X122220395Y-80900000D01*
X122206253Y-80885858D01*
X122385858Y-80706253D01*
X122400000Y-80720395D01*
X122414143Y-80706253D01*
X122593748Y-80885858D01*
X122579605Y-80900000D01*
X124603148Y-82923543D01*
X125021118Y-82647373D01*
X125311649Y-82102443D01*
X125490287Y-81511304D01*
X125550168Y-80896672D01*
X125488990Y-80282169D01*
X125309103Y-79691408D01*
X125021118Y-79152627D01*
X124880931Y-79060000D01*
X126684509Y-79060000D01*
X126438273Y-79161995D01*
G37*
%TD.AperFunction*%
%TD*%
M02*
