%TF.GenerationSoftware,KiCad,Pcbnew,(5.1.9-0-10_14)*%
%TF.CreationDate,2021-03-08T13:23:50+00:00*%
%TF.ProjectId,EnvMon,456e764d-6f6e-42e6-9b69-6361645f7063,1*%
%TF.SameCoordinates,Original*%
%TF.FileFunction,Copper,L2,Bot*%
%TF.FilePolarity,Positive*%
%FSLAX46Y46*%
G04 Gerber Fmt 4.6, Leading zero omitted, Abs format (unit mm)*
G04 Created by KiCad (PCBNEW (5.1.9-0-10_14)) date 2021-03-08 13:23:50*
%MOMM*%
%LPD*%
G01*
G04 APERTURE LIST*
%TA.AperFunction,NonConductor*%
%ADD10C,0.300000*%
%TD*%
%TA.AperFunction,ComponentPad*%
%ADD11O,1.850000X1.700000*%
%TD*%
%TA.AperFunction,SMDPad,CuDef*%
%ADD12R,8.340000X5.490000*%
%TD*%
%TA.AperFunction,SMDPad,CuDef*%
%ADD13R,0.600000X1.140000*%
%TD*%
%TA.AperFunction,ComponentPad*%
%ADD14C,1.700000*%
%TD*%
%TA.AperFunction,ComponentPad*%
%ADD15C,2.000000*%
%TD*%
%TA.AperFunction,SMDPad,CuDef*%
%ADD16R,0.300000X1.140000*%
%TD*%
%TA.AperFunction,ComponentPad*%
%ADD17C,0.600000*%
%TD*%
%TA.AperFunction,ComponentPad*%
%ADD18C,1.750000*%
%TD*%
%TA.AperFunction,ComponentPad*%
%ADD19C,5.000000*%
%TD*%
%TA.AperFunction,ComponentPad*%
%ADD20R,1.700000X1.700000*%
%TD*%
%TA.AperFunction,ComponentPad*%
%ADD21O,1.700000X1.850000*%
%TD*%
%TA.AperFunction,SMDPad,CuDef*%
%ADD22R,0.900000X2.000000*%
%TD*%
%TA.AperFunction,SMDPad,CuDef*%
%ADD23R,2.000000X0.900000*%
%TD*%
%TA.AperFunction,SMDPad,CuDef*%
%ADD24R,5.000000X5.000000*%
%TD*%
%TA.AperFunction,ViaPad*%
%ADD25C,0.800000*%
%TD*%
%TA.AperFunction,Conductor*%
%ADD26C,0.350000*%
%TD*%
%TA.AperFunction,Conductor*%
%ADD27C,0.400000*%
%TD*%
%TA.AperFunction,Conductor*%
%ADD28C,0.250000*%
%TD*%
%TA.AperFunction,Conductor*%
%ADD29C,0.254000*%
%TD*%
%TA.AperFunction,Conductor*%
%ADD30C,0.100000*%
%TD*%
G04 APERTURE END LIST*
D10*
X157285714Y-81178571D02*
X157000000Y-82178571D01*
X156714285Y-81464285D01*
X156428571Y-82178571D01*
X156142857Y-81178571D01*
X155714285Y-81178571D02*
X155428571Y-82178571D01*
X155142857Y-81464285D01*
X154857142Y-82178571D01*
X154571428Y-81178571D01*
X154142857Y-81178571D02*
X153857142Y-82178571D01*
X153571428Y-81464285D01*
X153285714Y-82178571D01*
X153000000Y-81178571D01*
X152428571Y-82035714D02*
X152357142Y-82107142D01*
X152428571Y-82178571D01*
X152500000Y-82107142D01*
X152428571Y-82035714D01*
X152428571Y-82178571D01*
X151714285Y-82178571D02*
X151714285Y-81178571D01*
X151714285Y-81321428D02*
X151642857Y-81250000D01*
X151500000Y-81178571D01*
X151285714Y-81178571D01*
X151142857Y-81250000D01*
X151071428Y-81392857D01*
X151071428Y-82178571D01*
X151071428Y-81392857D02*
X151000000Y-81250000D01*
X150857142Y-81178571D01*
X150642857Y-81178571D01*
X150500000Y-81250000D01*
X150428571Y-81392857D01*
X150428571Y-82178571D01*
X149142857Y-82107142D02*
X149285714Y-82178571D01*
X149571428Y-82178571D01*
X149714285Y-82107142D01*
X149785714Y-81964285D01*
X149785714Y-81392857D01*
X149714285Y-81250000D01*
X149571428Y-81178571D01*
X149285714Y-81178571D01*
X149142857Y-81250000D01*
X149071428Y-81392857D01*
X149071428Y-81535714D01*
X149785714Y-81678571D01*
X148428571Y-82035714D02*
X148357142Y-82107142D01*
X148428571Y-82178571D01*
X148500000Y-82107142D01*
X148428571Y-82035714D01*
X148428571Y-82178571D01*
X147071428Y-81178571D02*
X147071428Y-82178571D01*
X147714285Y-81178571D02*
X147714285Y-81964285D01*
X147642857Y-82107142D01*
X147500000Y-82178571D01*
X147285714Y-82178571D01*
X147142857Y-82107142D01*
X147071428Y-82035714D01*
X146357142Y-82178571D02*
X146357142Y-80678571D01*
X146214285Y-81607142D02*
X145785714Y-82178571D01*
X145785714Y-81178571D02*
X146357142Y-81750000D01*
D11*
%TO.P,J2,4*%
%TO.N,Net-(J2-Pad4)*%
X127000000Y-107500000D03*
%TO.P,J2,3*%
%TO.N,Net-(J2-Pad3)*%
X127000000Y-105000000D03*
%TO.P,J2,2*%
%TO.N,+3V3*%
X127000000Y-102500000D03*
%TO.P,J2,1*%
%TO.N,GND*%
%TA.AperFunction,ComponentPad*%
G36*
G01*
X126325000Y-99150000D02*
X127675000Y-99150000D01*
G75*
G02*
X127925000Y-99400000I0J-250000D01*
G01*
X127925000Y-100600000D01*
G75*
G02*
X127675000Y-100850000I-250000J0D01*
G01*
X126325000Y-100850000D01*
G75*
G02*
X126075000Y-100600000I0J250000D01*
G01*
X126075000Y-99400000D01*
G75*
G02*
X126325000Y-99150000I250000J0D01*
G01*
G37*
%TD.AperFunction*%
%TD*%
D12*
%TO.P,J4,S1*%
%TO.N,GND*%
X133800000Y-112655000D03*
D13*
%TO.P,J4,A12*%
X130600000Y-108540000D03*
%TO.P,J4,A4*%
%TO.N,/VBUS*%
X136200000Y-108540000D03*
%TO.P,J4,B12*%
%TO.N,GND*%
X137000000Y-108540000D03*
%TO.P,J4,B4*%
%TO.N,/VBUS*%
X131400000Y-108540000D03*
D14*
%TO.P,J4,S1*%
%TO.N,GND*%
X129475000Y-113310000D03*
X138125000Y-113310000D03*
D15*
X129475000Y-109130000D03*
X138125000Y-109130000D03*
D16*
%TO.P,J4,A7*%
%TO.N,Net-(J4-PadA7)*%
X133550000Y-108540000D03*
%TO.P,J4,A6*%
%TO.N,Net-(J4-PadA6)*%
X134050000Y-108540000D03*
%TO.P,J4,B6*%
%TO.N,Net-(J4-PadB6)*%
X133050000Y-108540000D03*
%TO.P,J4,B7*%
%TO.N,Net-(J4-PadB7)*%
X134550000Y-108540000D03*
%TO.P,J4,A8*%
%TO.N,Net-(J4-PadA8)*%
X132550000Y-108540000D03*
%TO.P,J4,A5*%
%TO.N,Net-(J4-PadA5)*%
X135050000Y-108540000D03*
%TO.P,J4,B5*%
%TO.N,Net-(J4-PadB5)*%
X132050000Y-108540000D03*
%TO.P,J4,B8*%
%TO.N,Net-(J4-PadB8)*%
X135550000Y-108540000D03*
D13*
%TO.P,J4,A9*%
%TO.N,/VBUS*%
X131400000Y-108540000D03*
%TO.P,J4,B9*%
X136200000Y-108540000D03*
%TO.P,J4,B1*%
%TO.N,GND*%
X130600000Y-108540000D03*
D17*
%TO.P,J4,S1*%
X130910000Y-109610000D03*
X136690000Y-109610000D03*
D13*
%TO.P,J4,A1*%
X137000000Y-108540000D03*
%TD*%
D18*
%TO.P,M1,7*%
%TO.N,Net-(M1-Pad7)*%
X127100000Y-95640000D03*
%TO.P,M1,6*%
%TO.N,Net-(M1-Pad6)*%
X127100000Y-93100000D03*
%TO.P,M1,5*%
%TO.N,Net-(M1-Pad5)*%
X127100000Y-90560000D03*
%TO.P,M1,4*%
%TO.N,Net-(M1-Pad4)*%
X127100000Y-88020000D03*
%TO.P,M1,3*%
%TO.N,Net-(M1-Pad3)*%
X127100000Y-85480000D03*
%TO.P,M1,2*%
%TO.N,GND*%
X127100000Y-82940000D03*
%TO.P,M1,1*%
%TO.N,+3V3*%
X127100000Y-80400000D03*
%TD*%
D19*
%TO.P,M2,S*%
%TO.N,GND*%
X122400000Y-80900000D03*
X122400000Y-112900000D03*
X161900000Y-112900000D03*
X161900000Y-80900000D03*
D18*
%TO.P,M2,5*%
%TO.N,Net-(M2-Pad5)*%
X122400000Y-95630000D03*
%TO.P,M2,4*%
%TO.N,Net-(M2-Pad4)*%
X122400000Y-93090000D03*
%TO.P,M2,2*%
%TO.N,GND*%
X122400000Y-90550000D03*
%TO.P,M2,1*%
%TO.N,+3V3*%
X122400000Y-88010000D03*
%TD*%
D14*
%TO.P,M3,4*%
%TO.N,+3V3*%
X130860000Y-100000000D03*
D20*
%TO.P,M3,3*%
%TO.N,GND*%
X133400000Y-100000000D03*
D14*
%TO.P,M3,2*%
%TO.N,/VBUS*%
X135940000Y-100000000D03*
%TO.P,M3,1*%
%TO.N,Net-(M3-Pad1)*%
X138480000Y-100000000D03*
%TD*%
D21*
%TO.P,J1,3*%
%TO.N,+3V3*%
X156600000Y-108700000D03*
%TO.P,J1,2*%
%TO.N,/TEMP*%
X154100000Y-108700000D03*
%TO.P,J1,1*%
%TO.N,GND*%
%TA.AperFunction,ComponentPad*%
G36*
G01*
X150750000Y-109375000D02*
X150750000Y-108025000D01*
G75*
G02*
X151000000Y-107775000I250000J0D01*
G01*
X152200000Y-107775000D01*
G75*
G02*
X152450000Y-108025000I0J-250000D01*
G01*
X152450000Y-109375000D01*
G75*
G02*
X152200000Y-109625000I-250000J0D01*
G01*
X151000000Y-109625000D01*
G75*
G02*
X150750000Y-109375000I0J250000D01*
G01*
G37*
%TD.AperFunction*%
%TD*%
%TO.P,J3,2*%
%TO.N,/VBUS*%
X153200000Y-85500000D03*
%TO.P,J3,1*%
%TO.N,GND*%
%TA.AperFunction,ComponentPad*%
G36*
G01*
X156550000Y-84825000D02*
X156550000Y-86175000D01*
G75*
G02*
X156300000Y-86425000I-250000J0D01*
G01*
X155100000Y-86425000D01*
G75*
G02*
X154850000Y-86175000I0J250000D01*
G01*
X154850000Y-84825000D01*
G75*
G02*
X155100000Y-84575000I250000J0D01*
G01*
X156300000Y-84575000D01*
G75*
G02*
X156550000Y-84825000I0J-250000D01*
G01*
G37*
%TD.AperFunction*%
%TD*%
D15*
%TO.P,SW1,1*%
%TO.N,Net-(SW1-Pad1)*%
X140700000Y-109400000D03*
%TO.P,SW1,2*%
%TO.N,GND*%
X140700000Y-113900000D03*
%TO.P,SW1,1*%
%TO.N,Net-(SW1-Pad1)*%
X147200000Y-109400000D03*
%TO.P,SW1,2*%
%TO.N,GND*%
X147200000Y-113900000D03*
%TD*%
D22*
%TO.P,U1,38*%
%TO.N,GND*%
X162655000Y-88400000D03*
%TO.P,U1,37*%
%TO.N,Net-(U1-Pad37)*%
X161385000Y-88400000D03*
%TO.P,U1,36*%
%TO.N,Net-(U1-Pad36)*%
X160115000Y-88400000D03*
%TO.P,U1,35*%
%TO.N,Net-(J2-Pad3)*%
X158845000Y-88400000D03*
%TO.P,U1,34*%
%TO.N,Net-(J2-Pad4)*%
X157575000Y-88400000D03*
%TO.P,U1,33*%
%TO.N,Net-(U1-Pad33)*%
X156305000Y-88400000D03*
%TO.P,U1,32*%
%TO.N,Net-(U1-Pad32)*%
X155035000Y-88400000D03*
%TO.P,U1,31*%
%TO.N,/TEMP*%
X153765000Y-88400000D03*
%TO.P,U1,30*%
%TO.N,Net-(M2-Pad5)*%
X152495000Y-88400000D03*
%TO.P,U1,29*%
%TO.N,Net-(M2-Pad4)*%
X151225000Y-88400000D03*
%TO.P,U1,28*%
%TO.N,Net-(M1-Pad4)*%
X149955000Y-88400000D03*
%TO.P,U1,27*%
%TO.N,Net-(M1-Pad3)*%
X148685000Y-88400000D03*
%TO.P,U1,26*%
%TO.N,Net-(U1-Pad26)*%
X147415000Y-88400000D03*
%TO.P,U1,25*%
%TO.N,Net-(SW1-Pad1)*%
X146145000Y-88400000D03*
D23*
%TO.P,U1,24*%
%TO.N,Net-(U1-Pad24)*%
X145145000Y-91185000D03*
%TO.P,U1,23*%
%TO.N,Net-(M1-Pad6)*%
X145145000Y-92455000D03*
%TO.P,U1,22*%
%TO.N,Net-(U1-Pad22)*%
X145145000Y-93725000D03*
%TO.P,U1,21*%
%TO.N,Net-(U1-Pad21)*%
X145145000Y-94995000D03*
%TO.P,U1,20*%
%TO.N,Net-(U1-Pad20)*%
X145145000Y-96265000D03*
%TO.P,U1,19*%
%TO.N,Net-(U1-Pad19)*%
X145145000Y-97535000D03*
%TO.P,U1,18*%
%TO.N,Net-(U1-Pad18)*%
X145145000Y-98805000D03*
%TO.P,U1,17*%
%TO.N,Net-(U1-Pad17)*%
X145145000Y-100075000D03*
%TO.P,U1,16*%
%TO.N,Net-(U1-Pad16)*%
X145145000Y-101345000D03*
%TO.P,U1,15*%
%TO.N,GND*%
X145145000Y-102615000D03*
D22*
%TO.P,U1,14*%
%TO.N,Net-(U1-Pad14)*%
X146145000Y-105400000D03*
%TO.P,U1,13*%
%TO.N,Net-(M1-Pad5)*%
X147415000Y-105400000D03*
%TO.P,U1,12*%
%TO.N,Net-(U1-Pad12)*%
X148685000Y-105400000D03*
%TO.P,U1,11*%
%TO.N,Net-(U1-Pad11)*%
X149955000Y-105400000D03*
%TO.P,U1,10*%
%TO.N,Net-(U1-Pad10)*%
X151225000Y-105400000D03*
%TO.P,U1,9*%
%TO.N,Net-(U1-Pad9)*%
X152495000Y-105400000D03*
%TO.P,U1,8*%
%TO.N,Net-(U1-Pad8)*%
X153765000Y-105400000D03*
%TO.P,U1,7*%
%TO.N,Net-(U1-Pad7)*%
X155035000Y-105400000D03*
%TO.P,U1,6*%
%TO.N,Net-(U1-Pad6)*%
X156305000Y-105400000D03*
%TO.P,U1,5*%
%TO.N,Net-(U1-Pad5)*%
X157575000Y-105400000D03*
%TO.P,U1,4*%
%TO.N,Net-(U1-Pad4)*%
X158845000Y-105400000D03*
%TO.P,U1,3*%
%TO.N,+3V3*%
X160115000Y-105400000D03*
%TO.P,U1,2*%
X161385000Y-105400000D03*
%TO.P,U1,1*%
%TO.N,GND*%
X162655000Y-105400000D03*
D24*
%TO.P,U1,39*%
X155155000Y-97900000D03*
%TD*%
%TO.P,R2,2*%
%TO.N,GND*%
%TA.AperFunction,SMDPad,CuDef*%
G36*
G01*
X130334999Y-105340001D02*
X130334999Y-106590001D01*
G75*
G02*
X130084999Y-106840001I-250000J0D01*
G01*
X129284999Y-106840001D01*
G75*
G02*
X129034999Y-106590001I0J250000D01*
G01*
X129034999Y-105340001D01*
G75*
G02*
X129284999Y-105090001I250000J0D01*
G01*
X130084999Y-105090001D01*
G75*
G02*
X130334999Y-105340001I0J-250000D01*
G01*
G37*
%TD.AperFunction*%
%TO.P,R2,1*%
%TO.N,Net-(J4-PadB5)*%
%TA.AperFunction,SMDPad,CuDef*%
G36*
G01*
X133434999Y-105340001D02*
X133434999Y-106590001D01*
G75*
G02*
X133184999Y-106840001I-250000J0D01*
G01*
X132384999Y-106840001D01*
G75*
G02*
X132134999Y-106590001I0J250000D01*
G01*
X132134999Y-105340001D01*
G75*
G02*
X132384999Y-105090001I250000J0D01*
G01*
X133184999Y-105090001D01*
G75*
G02*
X133434999Y-105340001I0J-250000D01*
G01*
G37*
%TD.AperFunction*%
%TD*%
%TO.P,R1,2*%
%TO.N,/TEMP*%
%TA.AperFunction,SMDPad,CuDef*%
G36*
G01*
X154850000Y-111175000D02*
X154850000Y-112425000D01*
G75*
G02*
X154600000Y-112675000I-250000J0D01*
G01*
X153800000Y-112675000D01*
G75*
G02*
X153550000Y-112425000I0J250000D01*
G01*
X153550000Y-111175000D01*
G75*
G02*
X153800000Y-110925000I250000J0D01*
G01*
X154600000Y-110925000D01*
G75*
G02*
X154850000Y-111175000I0J-250000D01*
G01*
G37*
%TD.AperFunction*%
%TO.P,R1,1*%
%TO.N,+3V3*%
%TA.AperFunction,SMDPad,CuDef*%
G36*
G01*
X157950000Y-111175000D02*
X157950000Y-112425000D01*
G75*
G02*
X157700000Y-112675000I-250000J0D01*
G01*
X156900000Y-112675000D01*
G75*
G02*
X156650000Y-112425000I0J250000D01*
G01*
X156650000Y-111175000D01*
G75*
G02*
X156900000Y-110925000I250000J0D01*
G01*
X157700000Y-110925000D01*
G75*
G02*
X157950000Y-111175000I0J-250000D01*
G01*
G37*
%TD.AperFunction*%
%TD*%
%TO.P,R3,2*%
%TO.N,GND*%
%TA.AperFunction,SMDPad,CuDef*%
G36*
G01*
X138084999Y-106590001D02*
X138084999Y-105340001D01*
G75*
G02*
X138334999Y-105090001I250000J0D01*
G01*
X139134999Y-105090001D01*
G75*
G02*
X139384999Y-105340001I0J-250000D01*
G01*
X139384999Y-106590001D01*
G75*
G02*
X139134999Y-106840001I-250000J0D01*
G01*
X138334999Y-106840001D01*
G75*
G02*
X138084999Y-106590001I0J250000D01*
G01*
G37*
%TD.AperFunction*%
%TO.P,R3,1*%
%TO.N,Net-(J4-PadA5)*%
%TA.AperFunction,SMDPad,CuDef*%
G36*
G01*
X134984999Y-106590001D02*
X134984999Y-105340001D01*
G75*
G02*
X135234999Y-105090001I250000J0D01*
G01*
X136034999Y-105090001D01*
G75*
G02*
X136284999Y-105340001I0J-250000D01*
G01*
X136284999Y-106590001D01*
G75*
G02*
X136034999Y-106840001I-250000J0D01*
G01*
X135234999Y-106840001D01*
G75*
G02*
X134984999Y-106590001I0J250000D01*
G01*
G37*
%TD.AperFunction*%
%TD*%
D25*
%TO.N,/TEMP*%
X151550000Y-97050000D03*
%TO.N,Net-(SW1-Pad1)*%
X144300000Y-88200000D03*
%TO.N,Net-(J2-Pad4)*%
X156074180Y-90572490D03*
%TO.N,Net-(J2-Pad3)*%
X153950000Y-91450000D03*
%TO.N,Net-(M1-Pad5)*%
X133100000Y-95100000D03*
%TD*%
D26*
%TO.N,GND*%
X130035000Y-109090000D02*
X130625000Y-108500000D01*
X129500000Y-109090000D02*
X130035000Y-109090000D01*
X137615000Y-109090000D02*
X137025000Y-108500000D01*
X138150000Y-109090000D02*
X137615000Y-109090000D01*
D27*
X133000000Y-112655000D02*
X133800000Y-112655000D01*
X129475000Y-109130000D02*
X133000000Y-112655000D01*
X134600000Y-112655000D02*
X133800000Y-112655000D01*
X138125000Y-109130000D02*
X134600000Y-112655000D01*
X136690000Y-109610000D02*
X133800000Y-112500000D01*
X133800000Y-112500000D02*
X133800000Y-112655000D01*
X130910000Y-109610000D02*
X133800000Y-112500000D01*
X133145000Y-113310000D02*
X133800000Y-112655000D01*
X129475000Y-113310000D02*
X133145000Y-113310000D01*
X134455000Y-113310000D02*
X133800000Y-112655000D01*
X138125000Y-113310000D02*
X134455000Y-113310000D01*
D28*
%TO.N,/TEMP*%
X154200000Y-111800000D02*
X154200000Y-108700000D01*
X153765000Y-87900000D02*
X153765000Y-89735000D01*
X153765000Y-89735000D02*
X152400000Y-91100000D01*
X151550000Y-91950000D02*
X151550000Y-97050000D01*
X152400000Y-91100000D02*
X151550000Y-91950000D01*
D26*
%TO.N,+3V3*%
X160115000Y-104900000D02*
X160115000Y-106150000D01*
X161385000Y-104900000D02*
X160115000Y-104900000D01*
D27*
X122400000Y-87062764D02*
X122400000Y-88010000D01*
X125637999Y-83824765D02*
X122400000Y-87062764D01*
X125637999Y-81462001D02*
X125637999Y-83824765D01*
X126800000Y-80300000D02*
X125637999Y-81462001D01*
X157300000Y-109300000D02*
X156700000Y-108700000D01*
X157300000Y-111800000D02*
X157300000Y-109300000D01*
X160115000Y-106535000D02*
X160115000Y-105400000D01*
X157950000Y-108700000D02*
X160115000Y-106535000D01*
X156700000Y-108700000D02*
X157950000Y-108700000D01*
X156600000Y-108700000D02*
X156600000Y-108500000D01*
X146882466Y-107925010D02*
X143382533Y-107925009D01*
X147432486Y-107374990D02*
X146882466Y-107925010D01*
X155474990Y-107374990D02*
X147432486Y-107374990D01*
X156600000Y-108500000D02*
X155474990Y-107374990D01*
X132110001Y-98749999D02*
X130860000Y-100000000D01*
X139080001Y-98749999D02*
X132110001Y-98749999D01*
X139853762Y-99523760D02*
X139080001Y-98749999D01*
X139853762Y-104396238D02*
X139853762Y-99523760D01*
X143382533Y-107925009D02*
X139853762Y-104396238D01*
X125575000Y-102500000D02*
X121124999Y-98049999D01*
X121124999Y-89285001D02*
X122400000Y-88010000D01*
X128360000Y-102500000D02*
X125575000Y-102500000D01*
X121124999Y-98049999D02*
X121124999Y-89285001D01*
X130860000Y-100000000D02*
X128360000Y-102500000D01*
D28*
%TO.N,Net-(SW1-Pad1)*%
X140700000Y-109400000D02*
X147200000Y-109400000D01*
X145945000Y-87700000D02*
X146145000Y-87900000D01*
X145845000Y-88200000D02*
X146145000Y-87900000D01*
X144300000Y-88200000D02*
X145845000Y-88200000D01*
%TO.N,Net-(J2-Pad4)*%
X157575000Y-88400000D02*
X157575000Y-89071670D01*
X157575000Y-89071670D02*
X156074180Y-90572490D01*
%TO.N,Net-(J2-Pad3)*%
X158600000Y-88145000D02*
X158845000Y-87900000D01*
X158845000Y-89650000D02*
X158845000Y-88400000D01*
X157045000Y-91450000D02*
X158845000Y-89650000D01*
X153950000Y-91450000D02*
X157045000Y-91450000D01*
%TO.N,Net-(J4-PadA5)*%
X135075000Y-106525000D02*
X135075000Y-108500000D01*
X135634999Y-105965001D02*
X135075000Y-106525000D01*
%TO.N,Net-(J4-PadB5)*%
X132784999Y-105965001D02*
X132099999Y-106650001D01*
X132075000Y-106825000D02*
X132075000Y-108500000D01*
X132099999Y-106800001D02*
X132075000Y-106825000D01*
X132099999Y-106650001D02*
X132099999Y-106800001D01*
%TO.N,Net-(M1-Pad6)*%
X143895000Y-92455000D02*
X143400000Y-91960000D01*
X145145000Y-92455000D02*
X143895000Y-92455000D01*
X143400000Y-90700000D02*
X143325021Y-90625021D01*
X143400000Y-91960000D02*
X143400000Y-90700000D01*
X143325021Y-90625021D02*
X131011389Y-90625021D01*
X128536410Y-93100000D02*
X127100000Y-93100000D01*
X131011389Y-90625021D02*
X128536410Y-93100000D01*
%TO.N,Net-(M1-Pad5)*%
X133100000Y-95100000D02*
X134000000Y-96000000D01*
X134000000Y-96000000D02*
X139300000Y-96000000D01*
X139300000Y-96000000D02*
X141800000Y-98500000D01*
X141800000Y-98500000D02*
X141800000Y-105600000D01*
X141800000Y-105600000D02*
X143600000Y-107400000D01*
X147415000Y-106650000D02*
X147415000Y-105400000D01*
X146665000Y-107400000D02*
X147415000Y-106650000D01*
X143600000Y-107400000D02*
X146665000Y-107400000D01*
%TO.N,Net-(M1-Pad4)*%
X125899999Y-86819999D02*
X127100000Y-88020000D01*
X126523999Y-84279999D02*
X125899999Y-84903999D01*
X127676001Y-84279999D02*
X126523999Y-84279999D01*
X142749991Y-88040597D02*
X142749990Y-88350010D01*
X128750012Y-85354010D02*
X127676001Y-84279999D01*
X142275019Y-88824981D02*
X129574979Y-88824981D01*
X128750012Y-88000014D02*
X128750012Y-85354010D01*
X129574979Y-88824981D02*
X128750012Y-88000014D01*
X149955000Y-87150000D02*
X149429989Y-86624989D01*
X149955000Y-88400000D02*
X149955000Y-87150000D01*
X144165599Y-86624989D02*
X142749991Y-88040597D01*
X149429989Y-86624989D02*
X144165599Y-86624989D01*
X142749990Y-88350010D02*
X142275019Y-88824981D01*
X125899999Y-84903999D02*
X125899999Y-86819999D01*
%TO.N,Net-(M1-Pad3)*%
X148685000Y-88400000D02*
X148685000Y-87150000D01*
X143200000Y-88226998D02*
X143200000Y-88600000D01*
X128300001Y-86680001D02*
X127100000Y-85480000D01*
X148685000Y-87150000D02*
X148609999Y-87074999D01*
X144351999Y-87074999D02*
X143200000Y-88226998D01*
X148609999Y-87074999D02*
X144351999Y-87074999D01*
X143200000Y-88600000D02*
X142525009Y-89274991D01*
X128300001Y-88186414D02*
X128300001Y-86680001D01*
X142525009Y-89274991D02*
X129388578Y-89274991D01*
X129388578Y-89274991D02*
X128300001Y-88186414D01*
%TO.N,Net-(M2-Pad5)*%
X152495000Y-89150000D02*
X152495000Y-87900000D01*
X152495000Y-89650000D02*
X152495000Y-88400000D01*
X130824989Y-90175011D02*
X151969989Y-90175011D01*
X129212008Y-91787992D02*
X130824989Y-90175011D01*
X151969989Y-90175011D02*
X152495000Y-89650000D01*
X126242008Y-91787992D02*
X129212008Y-91787992D01*
X122400000Y-95630000D02*
X126242008Y-91787992D01*
%TO.N,Net-(M2-Pad4)*%
X151225000Y-89150000D02*
X151225000Y-87900000D01*
X151149999Y-89725001D02*
X151225000Y-89650000D01*
X151225000Y-89650000D02*
X151225000Y-88400000D01*
X128775001Y-89725001D02*
X151149999Y-89725001D01*
X128409999Y-89359999D02*
X128775001Y-89725001D01*
X126130001Y-89359999D02*
X128409999Y-89359999D01*
X122400000Y-93090000D02*
X126130001Y-89359999D01*
D26*
%TO.N,/VBUS*%
X131425000Y-108475000D02*
X131449999Y-108450001D01*
X131425000Y-108500000D02*
X131425000Y-108475000D01*
D27*
X136225000Y-107619998D02*
X136225000Y-108500000D01*
X136735009Y-107109989D02*
X136225000Y-107619998D01*
X136324955Y-104639991D02*
X136735009Y-105050045D01*
X131425000Y-105310034D02*
X132095043Y-104639991D01*
X136735009Y-105050045D02*
X136735009Y-107109989D01*
X131425000Y-108500000D02*
X131425000Y-105310034D01*
X135870000Y-104509982D02*
X135739991Y-104639991D01*
X135739991Y-104639991D02*
X136324955Y-104639991D01*
X135870000Y-99930000D02*
X135870000Y-104509982D01*
X132095043Y-104639991D02*
X135739991Y-104639991D01*
%TD*%
D29*
%TO.N,GND*%
X120563578Y-98669445D02*
X124955563Y-103061432D01*
X124981709Y-103093291D01*
X125108854Y-103197636D01*
X125253913Y-103275172D01*
X125411311Y-103322918D01*
X125533981Y-103335000D01*
X125533982Y-103335000D01*
X125575000Y-103339040D01*
X125616018Y-103335000D01*
X125689207Y-103335000D01*
X125869866Y-103555134D01*
X126095986Y-103740706D01*
X126113374Y-103750000D01*
X126095986Y-103759294D01*
X125869866Y-103944866D01*
X125684294Y-104170986D01*
X125546401Y-104428966D01*
X125461487Y-104708889D01*
X125432815Y-105000000D01*
X125461487Y-105291111D01*
X125546401Y-105571034D01*
X125684294Y-105829014D01*
X125869866Y-106055134D01*
X126095986Y-106240706D01*
X126113374Y-106250000D01*
X126095986Y-106259294D01*
X125869866Y-106444866D01*
X125684294Y-106670986D01*
X125546401Y-106928966D01*
X125461487Y-107208889D01*
X125432815Y-107500000D01*
X125461487Y-107791111D01*
X125546401Y-108071034D01*
X125684294Y-108329014D01*
X125869866Y-108555134D01*
X126095986Y-108740706D01*
X126353966Y-108878599D01*
X126633889Y-108963513D01*
X126852050Y-108985000D01*
X127147950Y-108985000D01*
X127366111Y-108963513D01*
X127646034Y-108878599D01*
X127884001Y-108751403D01*
X127852616Y-108871108D01*
X127833282Y-109192595D01*
X127877039Y-109511675D01*
X127982205Y-109816088D01*
X128075186Y-109990044D01*
X128339587Y-110085808D01*
X129295395Y-109130000D01*
X129281253Y-109115858D01*
X129460858Y-108936253D01*
X129475000Y-108950395D01*
X129489143Y-108936253D01*
X129661938Y-109109048D01*
X129661928Y-109110000D01*
X129663065Y-109121540D01*
X129654605Y-109130000D01*
X129664913Y-109140308D01*
X129665601Y-109147289D01*
X129531235Y-109281655D01*
X129505518Y-109284188D01*
X129385820Y-109320498D01*
X129275506Y-109379463D01*
X129178815Y-109458815D01*
X129099463Y-109555506D01*
X129040498Y-109665820D01*
X129006409Y-109778196D01*
X128519192Y-110265413D01*
X128614956Y-110529814D01*
X128904571Y-110670704D01*
X128992907Y-110693864D01*
X128994420Y-111904820D01*
X128841253Y-111959081D01*
X128703843Y-112032528D01*
X128626208Y-112281603D01*
X129140178Y-112795573D01*
X128995000Y-112940750D01*
X128994914Y-113009519D01*
X128446603Y-112461208D01*
X128197528Y-112538843D01*
X128071629Y-112802883D01*
X127999661Y-113086411D01*
X127984389Y-113378531D01*
X128026401Y-113668019D01*
X128124081Y-113943747D01*
X128197528Y-114081157D01*
X128446603Y-114158792D01*
X128994162Y-113611233D01*
X128993713Y-113970892D01*
X128626208Y-114338397D01*
X128703843Y-114587472D01*
X128967883Y-114713371D01*
X128992778Y-114719690D01*
X128992752Y-114740000D01*
X124880931Y-114740000D01*
X125021118Y-114647373D01*
X125311649Y-114102443D01*
X125490287Y-113511304D01*
X125550168Y-112896672D01*
X125488990Y-112282169D01*
X125309103Y-111691408D01*
X125021118Y-111152627D01*
X124603148Y-110876457D01*
X122579605Y-112900000D01*
X122593748Y-112914143D01*
X122414143Y-113093748D01*
X122400000Y-113079605D01*
X122385858Y-113093748D01*
X122206253Y-112914143D01*
X122220395Y-112900000D01*
X122206253Y-112885858D01*
X122385858Y-112706253D01*
X122400000Y-112720395D01*
X124423543Y-110696852D01*
X124147373Y-110278882D01*
X123602443Y-109988351D01*
X123011304Y-109809713D01*
X122396672Y-109749832D01*
X121782169Y-109811010D01*
X121191408Y-109990897D01*
X120652627Y-110278882D01*
X120560000Y-110419069D01*
X120560000Y-98666509D01*
X120563578Y-98669445D01*
%TA.AperFunction,Conductor*%
D30*
G36*
X120563578Y-98669445D02*
G01*
X124955563Y-103061432D01*
X124981709Y-103093291D01*
X125108854Y-103197636D01*
X125253913Y-103275172D01*
X125411311Y-103322918D01*
X125533981Y-103335000D01*
X125533982Y-103335000D01*
X125575000Y-103339040D01*
X125616018Y-103335000D01*
X125689207Y-103335000D01*
X125869866Y-103555134D01*
X126095986Y-103740706D01*
X126113374Y-103750000D01*
X126095986Y-103759294D01*
X125869866Y-103944866D01*
X125684294Y-104170986D01*
X125546401Y-104428966D01*
X125461487Y-104708889D01*
X125432815Y-105000000D01*
X125461487Y-105291111D01*
X125546401Y-105571034D01*
X125684294Y-105829014D01*
X125869866Y-106055134D01*
X126095986Y-106240706D01*
X126113374Y-106250000D01*
X126095986Y-106259294D01*
X125869866Y-106444866D01*
X125684294Y-106670986D01*
X125546401Y-106928966D01*
X125461487Y-107208889D01*
X125432815Y-107500000D01*
X125461487Y-107791111D01*
X125546401Y-108071034D01*
X125684294Y-108329014D01*
X125869866Y-108555134D01*
X126095986Y-108740706D01*
X126353966Y-108878599D01*
X126633889Y-108963513D01*
X126852050Y-108985000D01*
X127147950Y-108985000D01*
X127366111Y-108963513D01*
X127646034Y-108878599D01*
X127884001Y-108751403D01*
X127852616Y-108871108D01*
X127833282Y-109192595D01*
X127877039Y-109511675D01*
X127982205Y-109816088D01*
X128075186Y-109990044D01*
X128339587Y-110085808D01*
X129295395Y-109130000D01*
X129281253Y-109115858D01*
X129460858Y-108936253D01*
X129475000Y-108950395D01*
X129489143Y-108936253D01*
X129661938Y-109109048D01*
X129661928Y-109110000D01*
X129663065Y-109121540D01*
X129654605Y-109130000D01*
X129664913Y-109140308D01*
X129665601Y-109147289D01*
X129531235Y-109281655D01*
X129505518Y-109284188D01*
X129385820Y-109320498D01*
X129275506Y-109379463D01*
X129178815Y-109458815D01*
X129099463Y-109555506D01*
X129040498Y-109665820D01*
X129006409Y-109778196D01*
X128519192Y-110265413D01*
X128614956Y-110529814D01*
X128904571Y-110670704D01*
X128992907Y-110693864D01*
X128994420Y-111904820D01*
X128841253Y-111959081D01*
X128703843Y-112032528D01*
X128626208Y-112281603D01*
X129140178Y-112795573D01*
X128995000Y-112940750D01*
X128994914Y-113009519D01*
X128446603Y-112461208D01*
X128197528Y-112538843D01*
X128071629Y-112802883D01*
X127999661Y-113086411D01*
X127984389Y-113378531D01*
X128026401Y-113668019D01*
X128124081Y-113943747D01*
X128197528Y-114081157D01*
X128446603Y-114158792D01*
X128994162Y-113611233D01*
X128993713Y-113970892D01*
X128626208Y-114338397D01*
X128703843Y-114587472D01*
X128967883Y-114713371D01*
X128992778Y-114719690D01*
X128992752Y-114740000D01*
X124880931Y-114740000D01*
X125021118Y-114647373D01*
X125311649Y-114102443D01*
X125490287Y-113511304D01*
X125550168Y-112896672D01*
X125488990Y-112282169D01*
X125309103Y-111691408D01*
X125021118Y-111152627D01*
X124603148Y-110876457D01*
X122579605Y-112900000D01*
X122593748Y-112914143D01*
X122414143Y-113093748D01*
X122400000Y-113079605D01*
X122385858Y-113093748D01*
X122206253Y-112914143D01*
X122220395Y-112900000D01*
X122206253Y-112885858D01*
X122385858Y-112706253D01*
X122400000Y-112720395D01*
X124423543Y-110696852D01*
X124147373Y-110278882D01*
X123602443Y-109988351D01*
X123011304Y-109809713D01*
X122396672Y-109749832D01*
X121782169Y-109811010D01*
X121191408Y-109990897D01*
X120652627Y-110278882D01*
X120560000Y-110419069D01*
X120560000Y-98666509D01*
X120563578Y-98669445D01*
G37*
%TD.AperFunction*%
D29*
X159278882Y-79152627D02*
X158988351Y-79697557D01*
X158809713Y-80288696D01*
X158749832Y-80903328D01*
X158811010Y-81517831D01*
X158990897Y-82108592D01*
X159278882Y-82647373D01*
X159696852Y-82923543D01*
X161720395Y-80900000D01*
X161706253Y-80885858D01*
X161885858Y-80706253D01*
X161900000Y-80720395D01*
X161914143Y-80706253D01*
X162093748Y-80885858D01*
X162079605Y-80900000D01*
X162093748Y-80914143D01*
X161914143Y-81093748D01*
X161900000Y-81079605D01*
X159876457Y-83103148D01*
X160152627Y-83521118D01*
X160697557Y-83811649D01*
X161288696Y-83990287D01*
X161903328Y-84050168D01*
X162517831Y-83988990D01*
X163108592Y-83809103D01*
X163440000Y-83631961D01*
X163440000Y-86859043D01*
X163349180Y-86810498D01*
X163229482Y-86774188D01*
X163105000Y-86761928D01*
X162940750Y-86765000D01*
X162782000Y-86923750D01*
X162782000Y-88273000D01*
X162802000Y-88273000D01*
X162802000Y-88527000D01*
X162782000Y-88527000D01*
X162782000Y-89876250D01*
X162940750Y-90035000D01*
X163105000Y-90038072D01*
X163229482Y-90025812D01*
X163349180Y-89989502D01*
X163440000Y-89940957D01*
X163440001Y-103859043D01*
X163349180Y-103810498D01*
X163229482Y-103774188D01*
X163105000Y-103761928D01*
X162940750Y-103765000D01*
X162782000Y-103923750D01*
X162782000Y-105273000D01*
X162802000Y-105273000D01*
X162802000Y-105527000D01*
X162782000Y-105527000D01*
X162782000Y-106876250D01*
X162940750Y-107035000D01*
X163105000Y-107038072D01*
X163229482Y-107025812D01*
X163349180Y-106989502D01*
X163440001Y-106940956D01*
X163440001Y-110168321D01*
X163102443Y-109988351D01*
X162511304Y-109809713D01*
X161896672Y-109749832D01*
X161282169Y-109811010D01*
X160691408Y-109990897D01*
X160152627Y-110278882D01*
X159876457Y-110696852D01*
X161900000Y-112720395D01*
X161914143Y-112706253D01*
X162093748Y-112885858D01*
X162079605Y-112900000D01*
X162093748Y-112914143D01*
X161914143Y-113093748D01*
X161900000Y-113079605D01*
X161885858Y-113093748D01*
X161706253Y-112914143D01*
X161720395Y-112900000D01*
X159696852Y-110876457D01*
X159278882Y-111152627D01*
X158988351Y-111697557D01*
X158809713Y-112288696D01*
X158749832Y-112903328D01*
X158811010Y-113517831D01*
X158990897Y-114108592D01*
X159278882Y-114647373D01*
X159419069Y-114740000D01*
X148609565Y-114740000D01*
X148740704Y-114470429D01*
X148822384Y-114158892D01*
X148841718Y-113837405D01*
X148797961Y-113518325D01*
X148692795Y-113213912D01*
X148599814Y-113039956D01*
X148335413Y-112944192D01*
X147379605Y-113900000D01*
X147393748Y-113914143D01*
X147214143Y-114093748D01*
X147200000Y-114079605D01*
X147185858Y-114093748D01*
X147006253Y-113914143D01*
X147020395Y-113900000D01*
X146064587Y-112944192D01*
X145800186Y-113039956D01*
X145659296Y-113329571D01*
X145577616Y-113641108D01*
X145558282Y-113962595D01*
X145602039Y-114281675D01*
X145707205Y-114586088D01*
X145789472Y-114740000D01*
X142109565Y-114740000D01*
X142240704Y-114470429D01*
X142322384Y-114158892D01*
X142341718Y-113837405D01*
X142297961Y-113518325D01*
X142192795Y-113213912D01*
X142099814Y-113039956D01*
X141835413Y-112944192D01*
X140879605Y-113900000D01*
X140893748Y-113914143D01*
X140714143Y-114093748D01*
X140700000Y-114079605D01*
X140685858Y-114093748D01*
X140506253Y-113914143D01*
X140520395Y-113900000D01*
X139573807Y-112953412D01*
X139573599Y-112951981D01*
X139507213Y-112764587D01*
X139744192Y-112764587D01*
X140700000Y-113720395D01*
X141655808Y-112764587D01*
X146244192Y-112764587D01*
X147200000Y-113720395D01*
X148155808Y-112764587D01*
X148060044Y-112500186D01*
X147770429Y-112359296D01*
X147458892Y-112277616D01*
X147137405Y-112258282D01*
X146818325Y-112302039D01*
X146513912Y-112407205D01*
X146339956Y-112500186D01*
X146244192Y-112764587D01*
X141655808Y-112764587D01*
X141560044Y-112500186D01*
X141270429Y-112359296D01*
X140958892Y-112277616D01*
X140637405Y-112258282D01*
X140318325Y-112302039D01*
X140013912Y-112407205D01*
X139839956Y-112500186D01*
X139744192Y-112764587D01*
X139507213Y-112764587D01*
X139475919Y-112676253D01*
X139402472Y-112538843D01*
X139153397Y-112461208D01*
X138605086Y-113009519D01*
X138605000Y-112940750D01*
X138459823Y-112795573D01*
X138973792Y-112281603D01*
X138896157Y-112032528D01*
X138632117Y-111906629D01*
X138605586Y-111899895D01*
X138607094Y-110693269D01*
X138811088Y-110622795D01*
X138985044Y-110529814D01*
X139080808Y-110265413D01*
X138593591Y-109778196D01*
X138559502Y-109665820D01*
X138500537Y-109555506D01*
X138421185Y-109458815D01*
X138324494Y-109379463D01*
X138214180Y-109320498D01*
X138094482Y-109284188D01*
X138068765Y-109281655D01*
X137934399Y-109147289D01*
X137935087Y-109140308D01*
X137945395Y-109130000D01*
X137936935Y-109121540D01*
X137938072Y-109110000D01*
X137938062Y-109109048D01*
X138110858Y-108936253D01*
X138125000Y-108950395D01*
X139080808Y-107994587D01*
X138985044Y-107730186D01*
X138695429Y-107589296D01*
X138383892Y-107507616D01*
X138062405Y-107488282D01*
X137760145Y-107529732D01*
X137751185Y-107518815D01*
X137654494Y-107439463D01*
X137544180Y-107380498D01*
X137527096Y-107375316D01*
X137557927Y-107273678D01*
X137564519Y-107206749D01*
X137633814Y-107291186D01*
X137730505Y-107370538D01*
X137840819Y-107429503D01*
X137960517Y-107465813D01*
X138084999Y-107478073D01*
X138449249Y-107475001D01*
X138607999Y-107316251D01*
X138607999Y-106092001D01*
X138861999Y-106092001D01*
X138861999Y-107316251D01*
X139020749Y-107475001D01*
X139384999Y-107478073D01*
X139509481Y-107465813D01*
X139629179Y-107429503D01*
X139739493Y-107370538D01*
X139836184Y-107291186D01*
X139915536Y-107194495D01*
X139974501Y-107084181D01*
X140010811Y-106964483D01*
X140023071Y-106840001D01*
X140019999Y-106250751D01*
X139861249Y-106092001D01*
X138861999Y-106092001D01*
X138607999Y-106092001D01*
X138587999Y-106092001D01*
X138587999Y-105838001D01*
X138607999Y-105838001D01*
X138607999Y-104613751D01*
X138449249Y-104455001D01*
X138084999Y-104451929D01*
X137960517Y-104464189D01*
X137840819Y-104500499D01*
X137730505Y-104559464D01*
X137633814Y-104638816D01*
X137554462Y-104735507D01*
X137527480Y-104785986D01*
X137510181Y-104728958D01*
X137432645Y-104583899D01*
X137328300Y-104456754D01*
X137296436Y-104430604D01*
X136944400Y-104078569D01*
X136918246Y-104046700D01*
X136791101Y-103942355D01*
X136705000Y-103896333D01*
X136705000Y-101274838D01*
X136886632Y-101153475D01*
X137093475Y-100946632D01*
X137210000Y-100772240D01*
X137326525Y-100946632D01*
X137533368Y-101153475D01*
X137776589Y-101315990D01*
X138046842Y-101427932D01*
X138333740Y-101485000D01*
X138626260Y-101485000D01*
X138913158Y-101427932D01*
X139018763Y-101384189D01*
X139018762Y-104355219D01*
X139014722Y-104396238D01*
X139018762Y-104437256D01*
X139020531Y-104455219D01*
X138861999Y-104613751D01*
X138861999Y-105838001D01*
X139861249Y-105838001D01*
X139987953Y-105711297D01*
X142763101Y-108486446D01*
X142789242Y-108518299D01*
X142821095Y-108544440D01*
X142821103Y-108544448D01*
X142916387Y-108622645D01*
X142948856Y-108640000D01*
X142154909Y-108640000D01*
X142148918Y-108625537D01*
X141969987Y-108357748D01*
X141742252Y-108130013D01*
X141474463Y-107951082D01*
X141176912Y-107827832D01*
X140861033Y-107765000D01*
X140538967Y-107765000D01*
X140223088Y-107827832D01*
X139925537Y-107951082D01*
X139657748Y-108130013D01*
X139519669Y-108268092D01*
X139260413Y-108174192D01*
X138304605Y-109130000D01*
X139181795Y-110007190D01*
X139251082Y-110174463D01*
X139430013Y-110442252D01*
X139657748Y-110669987D01*
X139925537Y-110848918D01*
X140223088Y-110972168D01*
X140538967Y-111035000D01*
X140861033Y-111035000D01*
X141176912Y-110972168D01*
X141474463Y-110848918D01*
X141742252Y-110669987D01*
X141969987Y-110442252D01*
X142148918Y-110174463D01*
X142154909Y-110160000D01*
X145745091Y-110160000D01*
X145751082Y-110174463D01*
X145930013Y-110442252D01*
X146157748Y-110669987D01*
X146425537Y-110848918D01*
X146723088Y-110972168D01*
X147038967Y-111035000D01*
X147361033Y-111035000D01*
X147676912Y-110972168D01*
X147974463Y-110848918D01*
X148242252Y-110669987D01*
X148469987Y-110442252D01*
X148648918Y-110174463D01*
X148772168Y-109876912D01*
X148822276Y-109625000D01*
X150111928Y-109625000D01*
X150124188Y-109749482D01*
X150160498Y-109869180D01*
X150219463Y-109979494D01*
X150298815Y-110076185D01*
X150395506Y-110155537D01*
X150505820Y-110214502D01*
X150625518Y-110250812D01*
X150750000Y-110263072D01*
X151314250Y-110260000D01*
X151473000Y-110101250D01*
X151473000Y-108827000D01*
X150273750Y-108827000D01*
X150115000Y-108985750D01*
X150111928Y-109625000D01*
X148822276Y-109625000D01*
X148835000Y-109561033D01*
X148835000Y-109238967D01*
X148772168Y-108923088D01*
X148648918Y-108625537D01*
X148469987Y-108357748D01*
X148322229Y-108209990D01*
X150114018Y-108209990D01*
X150115000Y-108414250D01*
X150273750Y-108573000D01*
X151473000Y-108573000D01*
X151473000Y-108553000D01*
X151727000Y-108553000D01*
X151727000Y-108573000D01*
X151747000Y-108573000D01*
X151747000Y-108827000D01*
X151727000Y-108827000D01*
X151727000Y-110101250D01*
X151885750Y-110260000D01*
X152450000Y-110263072D01*
X152574482Y-110250812D01*
X152694180Y-110214502D01*
X152804494Y-110155537D01*
X152901185Y-110076185D01*
X152980537Y-109979494D01*
X153039502Y-109869180D01*
X153050055Y-109834392D01*
X153270987Y-110015706D01*
X153440001Y-110106046D01*
X153440000Y-110365298D01*
X153306614Y-110436595D01*
X153172038Y-110547038D01*
X153061595Y-110681614D01*
X152979528Y-110835150D01*
X152928992Y-111001746D01*
X152911928Y-111175000D01*
X152911928Y-112425000D01*
X152928992Y-112598254D01*
X152979528Y-112764850D01*
X153061595Y-112918386D01*
X153172038Y-113052962D01*
X153306614Y-113163405D01*
X153460150Y-113245472D01*
X153626746Y-113296008D01*
X153800000Y-113313072D01*
X154600000Y-113313072D01*
X154773254Y-113296008D01*
X154939850Y-113245472D01*
X155093386Y-113163405D01*
X155227962Y-113052962D01*
X155338405Y-112918386D01*
X155420472Y-112764850D01*
X155471008Y-112598254D01*
X155488072Y-112425000D01*
X155488072Y-111175000D01*
X155471008Y-111001746D01*
X155420472Y-110835150D01*
X155338405Y-110681614D01*
X155227962Y-110547038D01*
X155093386Y-110436595D01*
X154960000Y-110365298D01*
X154960000Y-109990276D01*
X155155134Y-109830134D01*
X155340706Y-109604013D01*
X155350000Y-109586626D01*
X155359294Y-109604014D01*
X155544866Y-109830134D01*
X155770987Y-110015706D01*
X156028967Y-110153599D01*
X156308890Y-110238513D01*
X156465001Y-110253889D01*
X156465001Y-110405387D01*
X156406614Y-110436595D01*
X156272038Y-110547038D01*
X156161595Y-110681614D01*
X156079528Y-110835150D01*
X156028992Y-111001746D01*
X156011928Y-111175000D01*
X156011928Y-112425000D01*
X156028992Y-112598254D01*
X156079528Y-112764850D01*
X156161595Y-112918386D01*
X156272038Y-113052962D01*
X156406614Y-113163405D01*
X156560150Y-113245472D01*
X156726746Y-113296008D01*
X156900000Y-113313072D01*
X157700000Y-113313072D01*
X157873254Y-113296008D01*
X158039850Y-113245472D01*
X158193386Y-113163405D01*
X158327962Y-113052962D01*
X158438405Y-112918386D01*
X158520472Y-112764850D01*
X158571008Y-112598254D01*
X158588072Y-112425000D01*
X158588072Y-111175000D01*
X158571008Y-111001746D01*
X158520472Y-110835150D01*
X158438405Y-110681614D01*
X158327962Y-110547038D01*
X158193386Y-110436595D01*
X158135000Y-110405387D01*
X158135000Y-109516453D01*
X158271087Y-109475172D01*
X158416146Y-109397636D01*
X158543291Y-109293291D01*
X158569446Y-109261421D01*
X160676428Y-107154440D01*
X160708291Y-107128291D01*
X160796006Y-107021410D01*
X160810518Y-107025812D01*
X160935000Y-107038072D01*
X161835000Y-107038072D01*
X161959482Y-107025812D01*
X162020000Y-107007454D01*
X162080518Y-107025812D01*
X162205000Y-107038072D01*
X162369250Y-107035000D01*
X162528000Y-106876250D01*
X162528000Y-105527000D01*
X162508000Y-105527000D01*
X162508000Y-105273000D01*
X162528000Y-105273000D01*
X162528000Y-103923750D01*
X162369250Y-103765000D01*
X162205000Y-103761928D01*
X162080518Y-103774188D01*
X162020000Y-103792546D01*
X161959482Y-103774188D01*
X161835000Y-103761928D01*
X160935000Y-103761928D01*
X160810518Y-103774188D01*
X160750000Y-103792546D01*
X160689482Y-103774188D01*
X160565000Y-103761928D01*
X159665000Y-103761928D01*
X159540518Y-103774188D01*
X159480000Y-103792546D01*
X159419482Y-103774188D01*
X159295000Y-103761928D01*
X158395000Y-103761928D01*
X158270518Y-103774188D01*
X158210000Y-103792546D01*
X158149482Y-103774188D01*
X158025000Y-103761928D01*
X157125000Y-103761928D01*
X157000518Y-103774188D01*
X156940000Y-103792546D01*
X156879482Y-103774188D01*
X156755000Y-103761928D01*
X155855000Y-103761928D01*
X155730518Y-103774188D01*
X155670000Y-103792546D01*
X155609482Y-103774188D01*
X155485000Y-103761928D01*
X154585000Y-103761928D01*
X154460518Y-103774188D01*
X154400000Y-103792546D01*
X154339482Y-103774188D01*
X154215000Y-103761928D01*
X153315000Y-103761928D01*
X153190518Y-103774188D01*
X153130000Y-103792546D01*
X153069482Y-103774188D01*
X152945000Y-103761928D01*
X152045000Y-103761928D01*
X151920518Y-103774188D01*
X151860000Y-103792546D01*
X151799482Y-103774188D01*
X151675000Y-103761928D01*
X150775000Y-103761928D01*
X150650518Y-103774188D01*
X150590000Y-103792546D01*
X150529482Y-103774188D01*
X150405000Y-103761928D01*
X149505000Y-103761928D01*
X149380518Y-103774188D01*
X149320000Y-103792546D01*
X149259482Y-103774188D01*
X149135000Y-103761928D01*
X148235000Y-103761928D01*
X148110518Y-103774188D01*
X148050000Y-103792546D01*
X147989482Y-103774188D01*
X147865000Y-103761928D01*
X146965000Y-103761928D01*
X146840518Y-103774188D01*
X146780000Y-103792546D01*
X146719482Y-103774188D01*
X146595000Y-103761928D01*
X145695000Y-103761928D01*
X145570518Y-103774188D01*
X145450820Y-103810498D01*
X145340506Y-103869463D01*
X145243815Y-103948815D01*
X145164463Y-104045506D01*
X145105498Y-104155820D01*
X145069188Y-104275518D01*
X145056928Y-104400000D01*
X145056928Y-106400000D01*
X145069188Y-106524482D01*
X145104230Y-106640000D01*
X143914803Y-106640000D01*
X142560000Y-105285199D01*
X142560000Y-103065000D01*
X143506928Y-103065000D01*
X143519188Y-103189482D01*
X143555498Y-103309180D01*
X143614463Y-103419494D01*
X143693815Y-103516185D01*
X143790506Y-103595537D01*
X143900820Y-103654502D01*
X144020518Y-103690812D01*
X144145000Y-103703072D01*
X144859250Y-103700000D01*
X145018000Y-103541250D01*
X145018000Y-102742000D01*
X145272000Y-102742000D01*
X145272000Y-103541250D01*
X145430750Y-103700000D01*
X146145000Y-103703072D01*
X146269482Y-103690812D01*
X146389180Y-103654502D01*
X146499494Y-103595537D01*
X146596185Y-103516185D01*
X146675537Y-103419494D01*
X146734502Y-103309180D01*
X146770812Y-103189482D01*
X146783072Y-103065000D01*
X146780000Y-102900750D01*
X146621250Y-102742000D01*
X145272000Y-102742000D01*
X145018000Y-102742000D01*
X143668750Y-102742000D01*
X143510000Y-102900750D01*
X143506928Y-103065000D01*
X142560000Y-103065000D01*
X142560000Y-98537323D01*
X142563676Y-98500000D01*
X142560000Y-98462677D01*
X142560000Y-98462667D01*
X142549003Y-98351014D01*
X142505546Y-98207753D01*
X142478262Y-98156709D01*
X142434974Y-98075723D01*
X142363799Y-97988997D01*
X142340001Y-97959999D01*
X142311004Y-97936202D01*
X139863804Y-95489003D01*
X139840001Y-95459999D01*
X139724276Y-95365026D01*
X139592247Y-95294454D01*
X139448986Y-95250997D01*
X139337333Y-95240000D01*
X139337322Y-95240000D01*
X139300000Y-95236324D01*
X139262678Y-95240000D01*
X134314802Y-95240000D01*
X134135000Y-95060198D01*
X134135000Y-94998061D01*
X134095226Y-94798102D01*
X134017205Y-94609744D01*
X133903937Y-94440226D01*
X133759774Y-94296063D01*
X133590256Y-94182795D01*
X133401898Y-94104774D01*
X133201939Y-94065000D01*
X132998061Y-94065000D01*
X132798102Y-94104774D01*
X132609744Y-94182795D01*
X132440226Y-94296063D01*
X132296063Y-94440226D01*
X132182795Y-94609744D01*
X132104774Y-94798102D01*
X132065000Y-94998061D01*
X132065000Y-95201939D01*
X132104774Y-95401898D01*
X132182795Y-95590256D01*
X132296063Y-95759774D01*
X132440226Y-95903937D01*
X132609744Y-96017205D01*
X132798102Y-96095226D01*
X132998061Y-96135000D01*
X133060198Y-96135000D01*
X133436200Y-96511002D01*
X133459999Y-96540001D01*
X133575724Y-96634974D01*
X133707753Y-96705546D01*
X133851014Y-96749003D01*
X133962667Y-96760000D01*
X133962676Y-96760000D01*
X133999999Y-96763676D01*
X134037322Y-96760000D01*
X138985199Y-96760000D01*
X141040000Y-98814802D01*
X141040001Y-104401609D01*
X140688762Y-104050371D01*
X140688762Y-99564767D01*
X140692801Y-99523759D01*
X140688762Y-99482751D01*
X140688762Y-99482741D01*
X140676680Y-99360071D01*
X140628934Y-99202673D01*
X140551398Y-99057614D01*
X140447053Y-98930469D01*
X140415188Y-98904318D01*
X139699447Y-98188578D01*
X139673292Y-98156708D01*
X139546147Y-98052363D01*
X139401088Y-97974827D01*
X139243690Y-97927081D01*
X139121020Y-97914999D01*
X139121019Y-97914999D01*
X139080001Y-97910959D01*
X139038983Y-97914999D01*
X132151008Y-97914999D01*
X132110000Y-97910960D01*
X132068992Y-97914999D01*
X132068982Y-97914999D01*
X131946312Y-97927081D01*
X131788914Y-97974827D01*
X131643855Y-98052363D01*
X131516710Y-98156708D01*
X131490559Y-98188573D01*
X131137939Y-98541193D01*
X131006260Y-98515000D01*
X130713740Y-98515000D01*
X130426842Y-98572068D01*
X130156589Y-98684010D01*
X129913368Y-98846525D01*
X129706525Y-99053368D01*
X129544010Y-99296589D01*
X129432068Y-99566842D01*
X129375000Y-99853740D01*
X129375000Y-100146260D01*
X129401193Y-100277939D01*
X128177072Y-101502060D01*
X128134392Y-101450055D01*
X128169180Y-101439502D01*
X128279494Y-101380537D01*
X128376185Y-101301185D01*
X128455537Y-101204494D01*
X128514502Y-101094180D01*
X128550812Y-100974482D01*
X128563072Y-100850000D01*
X128560000Y-100285750D01*
X128401250Y-100127000D01*
X127127000Y-100127000D01*
X127127000Y-100147000D01*
X126873000Y-100147000D01*
X126873000Y-100127000D01*
X125598750Y-100127000D01*
X125440000Y-100285750D01*
X125436928Y-100850000D01*
X125449188Y-100974482D01*
X125485498Y-101094180D01*
X125544463Y-101204494D01*
X125623815Y-101301185D01*
X125720506Y-101380537D01*
X125830820Y-101439502D01*
X125865608Y-101450055D01*
X125793629Y-101537761D01*
X123405868Y-99150000D01*
X125436928Y-99150000D01*
X125440000Y-99714250D01*
X125598750Y-99873000D01*
X126873000Y-99873000D01*
X126873000Y-98673750D01*
X127127000Y-98673750D01*
X127127000Y-99873000D01*
X128401250Y-99873000D01*
X128560000Y-99714250D01*
X128563072Y-99150000D01*
X128550812Y-99025518D01*
X128514502Y-98905820D01*
X128455537Y-98795506D01*
X128376185Y-98698815D01*
X128279494Y-98619463D01*
X128169180Y-98560498D01*
X128049482Y-98524188D01*
X127925000Y-98511928D01*
X127285750Y-98515000D01*
X127127000Y-98673750D01*
X126873000Y-98673750D01*
X126714250Y-98515000D01*
X126075000Y-98511928D01*
X125950518Y-98524188D01*
X125830820Y-98560498D01*
X125720506Y-98619463D01*
X125623815Y-98698815D01*
X125544463Y-98795506D01*
X125485498Y-98905820D01*
X125449188Y-99025518D01*
X125436928Y-99150000D01*
X123405868Y-99150000D01*
X121959999Y-97704132D01*
X121959999Y-97082061D01*
X122251278Y-97140000D01*
X122548722Y-97140000D01*
X122840451Y-97081971D01*
X123115253Y-96968144D01*
X123362569Y-96802893D01*
X123572893Y-96592569D01*
X123738144Y-96345253D01*
X123851971Y-96070451D01*
X123910000Y-95778722D01*
X123910000Y-95481278D01*
X123862470Y-95242331D01*
X125634146Y-93470656D01*
X125648029Y-93540451D01*
X125761856Y-93815253D01*
X125927107Y-94062569D01*
X126137431Y-94272893D01*
X126282762Y-94370000D01*
X126137431Y-94467107D01*
X125927107Y-94677431D01*
X125761856Y-94924747D01*
X125648029Y-95199549D01*
X125590000Y-95491278D01*
X125590000Y-95788722D01*
X125648029Y-96080451D01*
X125761856Y-96355253D01*
X125927107Y-96602569D01*
X126137431Y-96812893D01*
X126384747Y-96978144D01*
X126659549Y-97091971D01*
X126951278Y-97150000D01*
X127248722Y-97150000D01*
X127540451Y-97091971D01*
X127815253Y-96978144D01*
X128062569Y-96812893D01*
X128272893Y-96602569D01*
X128438144Y-96355253D01*
X128551971Y-96080451D01*
X128610000Y-95788722D01*
X128610000Y-95491278D01*
X128551971Y-95199549D01*
X128438144Y-94924747D01*
X128272893Y-94677431D01*
X128062569Y-94467107D01*
X127917238Y-94370000D01*
X128062569Y-94272893D01*
X128272893Y-94062569D01*
X128408245Y-93860000D01*
X128499088Y-93860000D01*
X128536410Y-93863676D01*
X128573732Y-93860000D01*
X128573743Y-93860000D01*
X128685396Y-93849003D01*
X128828657Y-93805546D01*
X128960686Y-93734974D01*
X129076411Y-93640001D01*
X129100214Y-93610997D01*
X131326191Y-91385021D01*
X142640000Y-91385021D01*
X142640000Y-91922677D01*
X142636324Y-91960000D01*
X142640000Y-91997322D01*
X142640000Y-91997332D01*
X142650997Y-92108985D01*
X142681639Y-92210000D01*
X142694454Y-92252246D01*
X142765026Y-92384276D01*
X142804871Y-92432826D01*
X142859999Y-92500001D01*
X142889003Y-92523804D01*
X143331196Y-92965997D01*
X143354999Y-92995001D01*
X143470724Y-93089974D01*
X143528230Y-93120712D01*
X143519188Y-93150518D01*
X143506928Y-93275000D01*
X143506928Y-94175000D01*
X143519188Y-94299482D01*
X143537546Y-94360000D01*
X143519188Y-94420518D01*
X143506928Y-94545000D01*
X143506928Y-95445000D01*
X143519188Y-95569482D01*
X143537546Y-95630000D01*
X143519188Y-95690518D01*
X143506928Y-95815000D01*
X143506928Y-96715000D01*
X143519188Y-96839482D01*
X143537546Y-96900000D01*
X143519188Y-96960518D01*
X143506928Y-97085000D01*
X143506928Y-97985000D01*
X143519188Y-98109482D01*
X143537546Y-98170000D01*
X143519188Y-98230518D01*
X143506928Y-98355000D01*
X143506928Y-99255000D01*
X143519188Y-99379482D01*
X143537546Y-99440000D01*
X143519188Y-99500518D01*
X143506928Y-99625000D01*
X143506928Y-100525000D01*
X143519188Y-100649482D01*
X143537546Y-100710000D01*
X143519188Y-100770518D01*
X143506928Y-100895000D01*
X143506928Y-101795000D01*
X143519188Y-101919482D01*
X143537546Y-101980000D01*
X143519188Y-102040518D01*
X143506928Y-102165000D01*
X143510000Y-102329250D01*
X143668750Y-102488000D01*
X145018000Y-102488000D01*
X145018000Y-102468000D01*
X145272000Y-102468000D01*
X145272000Y-102488000D01*
X146621250Y-102488000D01*
X146780000Y-102329250D01*
X146783072Y-102165000D01*
X146770812Y-102040518D01*
X146752454Y-101980000D01*
X146770812Y-101919482D01*
X146783072Y-101795000D01*
X146783072Y-100895000D01*
X146770812Y-100770518D01*
X146752454Y-100710000D01*
X146770812Y-100649482D01*
X146783072Y-100525000D01*
X146783072Y-99625000D01*
X146770812Y-99500518D01*
X146752454Y-99440000D01*
X146770812Y-99379482D01*
X146783072Y-99255000D01*
X146783072Y-98355000D01*
X146770812Y-98230518D01*
X146752454Y-98170000D01*
X146770812Y-98109482D01*
X146783072Y-97985000D01*
X146783072Y-97085000D01*
X146770812Y-96960518D01*
X146752454Y-96900000D01*
X146770812Y-96839482D01*
X146783072Y-96715000D01*
X146783072Y-95815000D01*
X146770812Y-95690518D01*
X146752454Y-95630000D01*
X146770812Y-95569482D01*
X146783072Y-95445000D01*
X146783072Y-94545000D01*
X146770812Y-94420518D01*
X146752454Y-94360000D01*
X146770812Y-94299482D01*
X146783072Y-94175000D01*
X146783072Y-93275000D01*
X146770812Y-93150518D01*
X146752454Y-93090000D01*
X146770812Y-93029482D01*
X146783072Y-92905000D01*
X146783072Y-92005000D01*
X146770812Y-91880518D01*
X146752454Y-91820000D01*
X146770812Y-91759482D01*
X146783072Y-91635000D01*
X146783072Y-90935011D01*
X151490187Y-90935011D01*
X151039002Y-91386197D01*
X151009999Y-91409999D01*
X150965948Y-91463676D01*
X150915026Y-91525724D01*
X150871321Y-91607490D01*
X150844454Y-91657754D01*
X150800997Y-91801015D01*
X150790000Y-91912668D01*
X150790000Y-91912678D01*
X150786324Y-91950000D01*
X150790000Y-91987323D01*
X150790001Y-96346288D01*
X150746063Y-96390226D01*
X150632795Y-96559744D01*
X150554774Y-96748102D01*
X150515000Y-96948061D01*
X150515000Y-97151939D01*
X150554774Y-97351898D01*
X150632795Y-97540256D01*
X150746063Y-97709774D01*
X150890226Y-97853937D01*
X151059744Y-97967205D01*
X151248102Y-98045226D01*
X151448061Y-98085000D01*
X151651939Y-98085000D01*
X151851898Y-98045226D01*
X152020000Y-97975595D01*
X152020000Y-98027002D01*
X152178748Y-98027002D01*
X152020000Y-98185750D01*
X152016928Y-100400000D01*
X152029188Y-100524482D01*
X152065498Y-100644180D01*
X152124463Y-100754494D01*
X152203815Y-100851185D01*
X152300506Y-100930537D01*
X152410820Y-100989502D01*
X152530518Y-101025812D01*
X152655000Y-101038072D01*
X154869250Y-101035000D01*
X155028000Y-100876250D01*
X155028000Y-98027000D01*
X155282000Y-98027000D01*
X155282000Y-100876250D01*
X155440750Y-101035000D01*
X157655000Y-101038072D01*
X157779482Y-101025812D01*
X157899180Y-100989502D01*
X158009494Y-100930537D01*
X158106185Y-100851185D01*
X158185537Y-100754494D01*
X158244502Y-100644180D01*
X158280812Y-100524482D01*
X158293072Y-100400000D01*
X158290000Y-98185750D01*
X158131250Y-98027000D01*
X155282000Y-98027000D01*
X155028000Y-98027000D01*
X155008000Y-98027000D01*
X155008000Y-97773000D01*
X155028000Y-97773000D01*
X155028000Y-94923750D01*
X155282000Y-94923750D01*
X155282000Y-97773000D01*
X158131250Y-97773000D01*
X158290000Y-97614250D01*
X158293072Y-95400000D01*
X158280812Y-95275518D01*
X158244502Y-95155820D01*
X158185537Y-95045506D01*
X158106185Y-94948815D01*
X158009494Y-94869463D01*
X157899180Y-94810498D01*
X157779482Y-94774188D01*
X157655000Y-94761928D01*
X155440750Y-94765000D01*
X155282000Y-94923750D01*
X155028000Y-94923750D01*
X154869250Y-94765000D01*
X152655000Y-94761928D01*
X152530518Y-94774188D01*
X152410820Y-94810498D01*
X152310000Y-94864388D01*
X152310000Y-92264801D01*
X152932895Y-91641906D01*
X152954774Y-91751898D01*
X153032795Y-91940256D01*
X153146063Y-92109774D01*
X153290226Y-92253937D01*
X153459744Y-92367205D01*
X153648102Y-92445226D01*
X153848061Y-92485000D01*
X154051939Y-92485000D01*
X154251898Y-92445226D01*
X154440256Y-92367205D01*
X154609774Y-92253937D01*
X154653711Y-92210000D01*
X157007678Y-92210000D01*
X157045000Y-92213676D01*
X157082322Y-92210000D01*
X157082333Y-92210000D01*
X157193986Y-92199003D01*
X157337247Y-92155546D01*
X157469276Y-92084974D01*
X157585001Y-91990001D01*
X157608803Y-91960998D01*
X159356009Y-90213794D01*
X159385001Y-90190001D01*
X159408795Y-90161008D01*
X159408799Y-90161004D01*
X159479973Y-90074277D01*
X159479974Y-90074276D01*
X159510712Y-90016770D01*
X159540518Y-90025812D01*
X159665000Y-90038072D01*
X160565000Y-90038072D01*
X160689482Y-90025812D01*
X160750000Y-90007454D01*
X160810518Y-90025812D01*
X160935000Y-90038072D01*
X161835000Y-90038072D01*
X161959482Y-90025812D01*
X162020000Y-90007454D01*
X162080518Y-90025812D01*
X162205000Y-90038072D01*
X162369250Y-90035000D01*
X162528000Y-89876250D01*
X162528000Y-88527000D01*
X162508000Y-88527000D01*
X162508000Y-88273000D01*
X162528000Y-88273000D01*
X162528000Y-86923750D01*
X162369250Y-86765000D01*
X162205000Y-86761928D01*
X162080518Y-86774188D01*
X162020000Y-86792546D01*
X161959482Y-86774188D01*
X161835000Y-86761928D01*
X160935000Y-86761928D01*
X160810518Y-86774188D01*
X160750000Y-86792546D01*
X160689482Y-86774188D01*
X160565000Y-86761928D01*
X159665000Y-86761928D01*
X159540518Y-86774188D01*
X159480000Y-86792546D01*
X159419482Y-86774188D01*
X159295000Y-86761928D01*
X158395000Y-86761928D01*
X158270518Y-86774188D01*
X158210000Y-86792546D01*
X158149482Y-86774188D01*
X158025000Y-86761928D01*
X157125000Y-86761928D01*
X157087977Y-86765574D01*
X157139502Y-86669180D01*
X157175812Y-86549482D01*
X157188072Y-86425000D01*
X157185000Y-85785750D01*
X157026250Y-85627000D01*
X155827000Y-85627000D01*
X155827000Y-85647000D01*
X155573000Y-85647000D01*
X155573000Y-85627000D01*
X155553000Y-85627000D01*
X155553000Y-85373000D01*
X155573000Y-85373000D01*
X155573000Y-84098750D01*
X155827000Y-84098750D01*
X155827000Y-85373000D01*
X157026250Y-85373000D01*
X157185000Y-85214250D01*
X157188072Y-84575000D01*
X157175812Y-84450518D01*
X157139502Y-84330820D01*
X157080537Y-84220506D01*
X157001185Y-84123815D01*
X156904494Y-84044463D01*
X156794180Y-83985498D01*
X156674482Y-83949188D01*
X156550000Y-83936928D01*
X155985750Y-83940000D01*
X155827000Y-84098750D01*
X155573000Y-84098750D01*
X155414250Y-83940000D01*
X154850000Y-83936928D01*
X154725518Y-83949188D01*
X154605820Y-83985498D01*
X154495506Y-84044463D01*
X154398815Y-84123815D01*
X154319463Y-84220506D01*
X154260498Y-84330820D01*
X154249945Y-84365608D01*
X154029014Y-84184294D01*
X153771034Y-84046401D01*
X153491111Y-83961487D01*
X153200000Y-83932815D01*
X152908890Y-83961487D01*
X152628967Y-84046401D01*
X152370987Y-84184294D01*
X152144866Y-84369866D01*
X151959294Y-84595986D01*
X151821401Y-84853966D01*
X151736487Y-85133889D01*
X151715000Y-85352050D01*
X151715000Y-85647949D01*
X151736487Y-85866110D01*
X151821401Y-86146033D01*
X151959294Y-86404013D01*
X152144866Y-86630134D01*
X152305457Y-86761928D01*
X152045000Y-86761928D01*
X151920518Y-86774188D01*
X151860000Y-86792546D01*
X151799482Y-86774188D01*
X151675000Y-86761928D01*
X150775000Y-86761928D01*
X150650518Y-86774188D01*
X150620712Y-86783230D01*
X150589974Y-86725724D01*
X150495001Y-86609999D01*
X150466002Y-86586200D01*
X149993792Y-86113991D01*
X149969990Y-86084988D01*
X149854265Y-85990015D01*
X149722236Y-85919443D01*
X149578975Y-85875986D01*
X149467322Y-85864989D01*
X149467311Y-85864989D01*
X149429989Y-85861313D01*
X149392667Y-85864989D01*
X144202921Y-85864989D01*
X144165598Y-85861313D01*
X144128275Y-85864989D01*
X144128266Y-85864989D01*
X144016613Y-85875986D01*
X143883634Y-85916324D01*
X143873352Y-85919443D01*
X143741322Y-85990015D01*
X143660526Y-86056323D01*
X143625598Y-86084988D01*
X143601800Y-86113986D01*
X142238989Y-87476798D01*
X142209992Y-87500595D01*
X142186193Y-87529594D01*
X142186192Y-87529595D01*
X142115017Y-87616321D01*
X142075634Y-87690001D01*
X142044446Y-87748348D01*
X142000989Y-87891609D01*
X141992704Y-87975725D01*
X141986502Y-88038696D01*
X141960218Y-88064981D01*
X129889781Y-88064981D01*
X129510012Y-87685213D01*
X129510012Y-85391333D01*
X129513688Y-85354010D01*
X129510012Y-85316687D01*
X129510012Y-85316677D01*
X129499015Y-85205024D01*
X129455558Y-85061763D01*
X129390473Y-84939999D01*
X129384986Y-84929733D01*
X129313811Y-84843007D01*
X129290013Y-84814009D01*
X129261015Y-84790211D01*
X128245591Y-83774788D01*
X128397868Y-83725975D01*
X128526267Y-83457671D01*
X128599855Y-83169474D01*
X128615804Y-82872457D01*
X128573501Y-82578037D01*
X128474572Y-82297526D01*
X128397868Y-82154025D01*
X128146240Y-82073365D01*
X127279605Y-82940000D01*
X127293748Y-82954143D01*
X127114143Y-83133748D01*
X127100000Y-83119605D01*
X127085858Y-83133748D01*
X126906253Y-82954143D01*
X126920395Y-82940000D01*
X126906253Y-82925858D01*
X127085858Y-82746253D01*
X127100000Y-82760395D01*
X127966635Y-81893760D01*
X127898847Y-81682288D01*
X128062569Y-81572893D01*
X128272893Y-81362569D01*
X128438144Y-81115253D01*
X128551971Y-80840451D01*
X128610000Y-80548722D01*
X128610000Y-80251278D01*
X128551971Y-79959549D01*
X128448605Y-79710000D01*
X144715000Y-79710000D01*
X144715000Y-83530000D01*
X158285000Y-83530000D01*
X158285000Y-79710000D01*
X144715000Y-79710000D01*
X128448605Y-79710000D01*
X128438144Y-79684747D01*
X128272893Y-79437431D01*
X128062569Y-79227107D01*
X127815253Y-79061856D01*
X127810772Y-79060000D01*
X159419069Y-79060000D01*
X159278882Y-79152627D01*
%TA.AperFunction,Conductor*%
D30*
G36*
X159278882Y-79152627D02*
G01*
X158988351Y-79697557D01*
X158809713Y-80288696D01*
X158749832Y-80903328D01*
X158811010Y-81517831D01*
X158990897Y-82108592D01*
X159278882Y-82647373D01*
X159696852Y-82923543D01*
X161720395Y-80900000D01*
X161706253Y-80885858D01*
X161885858Y-80706253D01*
X161900000Y-80720395D01*
X161914143Y-80706253D01*
X162093748Y-80885858D01*
X162079605Y-80900000D01*
X162093748Y-80914143D01*
X161914143Y-81093748D01*
X161900000Y-81079605D01*
X159876457Y-83103148D01*
X160152627Y-83521118D01*
X160697557Y-83811649D01*
X161288696Y-83990287D01*
X161903328Y-84050168D01*
X162517831Y-83988990D01*
X163108592Y-83809103D01*
X163440000Y-83631961D01*
X163440000Y-86859043D01*
X163349180Y-86810498D01*
X163229482Y-86774188D01*
X163105000Y-86761928D01*
X162940750Y-86765000D01*
X162782000Y-86923750D01*
X162782000Y-88273000D01*
X162802000Y-88273000D01*
X162802000Y-88527000D01*
X162782000Y-88527000D01*
X162782000Y-89876250D01*
X162940750Y-90035000D01*
X163105000Y-90038072D01*
X163229482Y-90025812D01*
X163349180Y-89989502D01*
X163440000Y-89940957D01*
X163440001Y-103859043D01*
X163349180Y-103810498D01*
X163229482Y-103774188D01*
X163105000Y-103761928D01*
X162940750Y-103765000D01*
X162782000Y-103923750D01*
X162782000Y-105273000D01*
X162802000Y-105273000D01*
X162802000Y-105527000D01*
X162782000Y-105527000D01*
X162782000Y-106876250D01*
X162940750Y-107035000D01*
X163105000Y-107038072D01*
X163229482Y-107025812D01*
X163349180Y-106989502D01*
X163440001Y-106940956D01*
X163440001Y-110168321D01*
X163102443Y-109988351D01*
X162511304Y-109809713D01*
X161896672Y-109749832D01*
X161282169Y-109811010D01*
X160691408Y-109990897D01*
X160152627Y-110278882D01*
X159876457Y-110696852D01*
X161900000Y-112720395D01*
X161914143Y-112706253D01*
X162093748Y-112885858D01*
X162079605Y-112900000D01*
X162093748Y-112914143D01*
X161914143Y-113093748D01*
X161900000Y-113079605D01*
X161885858Y-113093748D01*
X161706253Y-112914143D01*
X161720395Y-112900000D01*
X159696852Y-110876457D01*
X159278882Y-111152627D01*
X158988351Y-111697557D01*
X158809713Y-112288696D01*
X158749832Y-112903328D01*
X158811010Y-113517831D01*
X158990897Y-114108592D01*
X159278882Y-114647373D01*
X159419069Y-114740000D01*
X148609565Y-114740000D01*
X148740704Y-114470429D01*
X148822384Y-114158892D01*
X148841718Y-113837405D01*
X148797961Y-113518325D01*
X148692795Y-113213912D01*
X148599814Y-113039956D01*
X148335413Y-112944192D01*
X147379605Y-113900000D01*
X147393748Y-113914143D01*
X147214143Y-114093748D01*
X147200000Y-114079605D01*
X147185858Y-114093748D01*
X147006253Y-113914143D01*
X147020395Y-113900000D01*
X146064587Y-112944192D01*
X145800186Y-113039956D01*
X145659296Y-113329571D01*
X145577616Y-113641108D01*
X145558282Y-113962595D01*
X145602039Y-114281675D01*
X145707205Y-114586088D01*
X145789472Y-114740000D01*
X142109565Y-114740000D01*
X142240704Y-114470429D01*
X142322384Y-114158892D01*
X142341718Y-113837405D01*
X142297961Y-113518325D01*
X142192795Y-113213912D01*
X142099814Y-113039956D01*
X141835413Y-112944192D01*
X140879605Y-113900000D01*
X140893748Y-113914143D01*
X140714143Y-114093748D01*
X140700000Y-114079605D01*
X140685858Y-114093748D01*
X140506253Y-113914143D01*
X140520395Y-113900000D01*
X139573807Y-112953412D01*
X139573599Y-112951981D01*
X139507213Y-112764587D01*
X139744192Y-112764587D01*
X140700000Y-113720395D01*
X141655808Y-112764587D01*
X146244192Y-112764587D01*
X147200000Y-113720395D01*
X148155808Y-112764587D01*
X148060044Y-112500186D01*
X147770429Y-112359296D01*
X147458892Y-112277616D01*
X147137405Y-112258282D01*
X146818325Y-112302039D01*
X146513912Y-112407205D01*
X146339956Y-112500186D01*
X146244192Y-112764587D01*
X141655808Y-112764587D01*
X141560044Y-112500186D01*
X141270429Y-112359296D01*
X140958892Y-112277616D01*
X140637405Y-112258282D01*
X140318325Y-112302039D01*
X140013912Y-112407205D01*
X139839956Y-112500186D01*
X139744192Y-112764587D01*
X139507213Y-112764587D01*
X139475919Y-112676253D01*
X139402472Y-112538843D01*
X139153397Y-112461208D01*
X138605086Y-113009519D01*
X138605000Y-112940750D01*
X138459823Y-112795573D01*
X138973792Y-112281603D01*
X138896157Y-112032528D01*
X138632117Y-111906629D01*
X138605586Y-111899895D01*
X138607094Y-110693269D01*
X138811088Y-110622795D01*
X138985044Y-110529814D01*
X139080808Y-110265413D01*
X138593591Y-109778196D01*
X138559502Y-109665820D01*
X138500537Y-109555506D01*
X138421185Y-109458815D01*
X138324494Y-109379463D01*
X138214180Y-109320498D01*
X138094482Y-109284188D01*
X138068765Y-109281655D01*
X137934399Y-109147289D01*
X137935087Y-109140308D01*
X137945395Y-109130000D01*
X137936935Y-109121540D01*
X137938072Y-109110000D01*
X137938062Y-109109048D01*
X138110858Y-108936253D01*
X138125000Y-108950395D01*
X139080808Y-107994587D01*
X138985044Y-107730186D01*
X138695429Y-107589296D01*
X138383892Y-107507616D01*
X138062405Y-107488282D01*
X137760145Y-107529732D01*
X137751185Y-107518815D01*
X137654494Y-107439463D01*
X137544180Y-107380498D01*
X137527096Y-107375316D01*
X137557927Y-107273678D01*
X137564519Y-107206749D01*
X137633814Y-107291186D01*
X137730505Y-107370538D01*
X137840819Y-107429503D01*
X137960517Y-107465813D01*
X138084999Y-107478073D01*
X138449249Y-107475001D01*
X138607999Y-107316251D01*
X138607999Y-106092001D01*
X138861999Y-106092001D01*
X138861999Y-107316251D01*
X139020749Y-107475001D01*
X139384999Y-107478073D01*
X139509481Y-107465813D01*
X139629179Y-107429503D01*
X139739493Y-107370538D01*
X139836184Y-107291186D01*
X139915536Y-107194495D01*
X139974501Y-107084181D01*
X140010811Y-106964483D01*
X140023071Y-106840001D01*
X140019999Y-106250751D01*
X139861249Y-106092001D01*
X138861999Y-106092001D01*
X138607999Y-106092001D01*
X138587999Y-106092001D01*
X138587999Y-105838001D01*
X138607999Y-105838001D01*
X138607999Y-104613751D01*
X138449249Y-104455001D01*
X138084999Y-104451929D01*
X137960517Y-104464189D01*
X137840819Y-104500499D01*
X137730505Y-104559464D01*
X137633814Y-104638816D01*
X137554462Y-104735507D01*
X137527480Y-104785986D01*
X137510181Y-104728958D01*
X137432645Y-104583899D01*
X137328300Y-104456754D01*
X137296436Y-104430604D01*
X136944400Y-104078569D01*
X136918246Y-104046700D01*
X136791101Y-103942355D01*
X136705000Y-103896333D01*
X136705000Y-101274838D01*
X136886632Y-101153475D01*
X137093475Y-100946632D01*
X137210000Y-100772240D01*
X137326525Y-100946632D01*
X137533368Y-101153475D01*
X137776589Y-101315990D01*
X138046842Y-101427932D01*
X138333740Y-101485000D01*
X138626260Y-101485000D01*
X138913158Y-101427932D01*
X139018763Y-101384189D01*
X139018762Y-104355219D01*
X139014722Y-104396238D01*
X139018762Y-104437256D01*
X139020531Y-104455219D01*
X138861999Y-104613751D01*
X138861999Y-105838001D01*
X139861249Y-105838001D01*
X139987953Y-105711297D01*
X142763101Y-108486446D01*
X142789242Y-108518299D01*
X142821095Y-108544440D01*
X142821103Y-108544448D01*
X142916387Y-108622645D01*
X142948856Y-108640000D01*
X142154909Y-108640000D01*
X142148918Y-108625537D01*
X141969987Y-108357748D01*
X141742252Y-108130013D01*
X141474463Y-107951082D01*
X141176912Y-107827832D01*
X140861033Y-107765000D01*
X140538967Y-107765000D01*
X140223088Y-107827832D01*
X139925537Y-107951082D01*
X139657748Y-108130013D01*
X139519669Y-108268092D01*
X139260413Y-108174192D01*
X138304605Y-109130000D01*
X139181795Y-110007190D01*
X139251082Y-110174463D01*
X139430013Y-110442252D01*
X139657748Y-110669987D01*
X139925537Y-110848918D01*
X140223088Y-110972168D01*
X140538967Y-111035000D01*
X140861033Y-111035000D01*
X141176912Y-110972168D01*
X141474463Y-110848918D01*
X141742252Y-110669987D01*
X141969987Y-110442252D01*
X142148918Y-110174463D01*
X142154909Y-110160000D01*
X145745091Y-110160000D01*
X145751082Y-110174463D01*
X145930013Y-110442252D01*
X146157748Y-110669987D01*
X146425537Y-110848918D01*
X146723088Y-110972168D01*
X147038967Y-111035000D01*
X147361033Y-111035000D01*
X147676912Y-110972168D01*
X147974463Y-110848918D01*
X148242252Y-110669987D01*
X148469987Y-110442252D01*
X148648918Y-110174463D01*
X148772168Y-109876912D01*
X148822276Y-109625000D01*
X150111928Y-109625000D01*
X150124188Y-109749482D01*
X150160498Y-109869180D01*
X150219463Y-109979494D01*
X150298815Y-110076185D01*
X150395506Y-110155537D01*
X150505820Y-110214502D01*
X150625518Y-110250812D01*
X150750000Y-110263072D01*
X151314250Y-110260000D01*
X151473000Y-110101250D01*
X151473000Y-108827000D01*
X150273750Y-108827000D01*
X150115000Y-108985750D01*
X150111928Y-109625000D01*
X148822276Y-109625000D01*
X148835000Y-109561033D01*
X148835000Y-109238967D01*
X148772168Y-108923088D01*
X148648918Y-108625537D01*
X148469987Y-108357748D01*
X148322229Y-108209990D01*
X150114018Y-108209990D01*
X150115000Y-108414250D01*
X150273750Y-108573000D01*
X151473000Y-108573000D01*
X151473000Y-108553000D01*
X151727000Y-108553000D01*
X151727000Y-108573000D01*
X151747000Y-108573000D01*
X151747000Y-108827000D01*
X151727000Y-108827000D01*
X151727000Y-110101250D01*
X151885750Y-110260000D01*
X152450000Y-110263072D01*
X152574482Y-110250812D01*
X152694180Y-110214502D01*
X152804494Y-110155537D01*
X152901185Y-110076185D01*
X152980537Y-109979494D01*
X153039502Y-109869180D01*
X153050055Y-109834392D01*
X153270987Y-110015706D01*
X153440001Y-110106046D01*
X153440000Y-110365298D01*
X153306614Y-110436595D01*
X153172038Y-110547038D01*
X153061595Y-110681614D01*
X152979528Y-110835150D01*
X152928992Y-111001746D01*
X152911928Y-111175000D01*
X152911928Y-112425000D01*
X152928992Y-112598254D01*
X152979528Y-112764850D01*
X153061595Y-112918386D01*
X153172038Y-113052962D01*
X153306614Y-113163405D01*
X153460150Y-113245472D01*
X153626746Y-113296008D01*
X153800000Y-113313072D01*
X154600000Y-113313072D01*
X154773254Y-113296008D01*
X154939850Y-113245472D01*
X155093386Y-113163405D01*
X155227962Y-113052962D01*
X155338405Y-112918386D01*
X155420472Y-112764850D01*
X155471008Y-112598254D01*
X155488072Y-112425000D01*
X155488072Y-111175000D01*
X155471008Y-111001746D01*
X155420472Y-110835150D01*
X155338405Y-110681614D01*
X155227962Y-110547038D01*
X155093386Y-110436595D01*
X154960000Y-110365298D01*
X154960000Y-109990276D01*
X155155134Y-109830134D01*
X155340706Y-109604013D01*
X155350000Y-109586626D01*
X155359294Y-109604014D01*
X155544866Y-109830134D01*
X155770987Y-110015706D01*
X156028967Y-110153599D01*
X156308890Y-110238513D01*
X156465001Y-110253889D01*
X156465001Y-110405387D01*
X156406614Y-110436595D01*
X156272038Y-110547038D01*
X156161595Y-110681614D01*
X156079528Y-110835150D01*
X156028992Y-111001746D01*
X156011928Y-111175000D01*
X156011928Y-112425000D01*
X156028992Y-112598254D01*
X156079528Y-112764850D01*
X156161595Y-112918386D01*
X156272038Y-113052962D01*
X156406614Y-113163405D01*
X156560150Y-113245472D01*
X156726746Y-113296008D01*
X156900000Y-113313072D01*
X157700000Y-113313072D01*
X157873254Y-113296008D01*
X158039850Y-113245472D01*
X158193386Y-113163405D01*
X158327962Y-113052962D01*
X158438405Y-112918386D01*
X158520472Y-112764850D01*
X158571008Y-112598254D01*
X158588072Y-112425000D01*
X158588072Y-111175000D01*
X158571008Y-111001746D01*
X158520472Y-110835150D01*
X158438405Y-110681614D01*
X158327962Y-110547038D01*
X158193386Y-110436595D01*
X158135000Y-110405387D01*
X158135000Y-109516453D01*
X158271087Y-109475172D01*
X158416146Y-109397636D01*
X158543291Y-109293291D01*
X158569446Y-109261421D01*
X160676428Y-107154440D01*
X160708291Y-107128291D01*
X160796006Y-107021410D01*
X160810518Y-107025812D01*
X160935000Y-107038072D01*
X161835000Y-107038072D01*
X161959482Y-107025812D01*
X162020000Y-107007454D01*
X162080518Y-107025812D01*
X162205000Y-107038072D01*
X162369250Y-107035000D01*
X162528000Y-106876250D01*
X162528000Y-105527000D01*
X162508000Y-105527000D01*
X162508000Y-105273000D01*
X162528000Y-105273000D01*
X162528000Y-103923750D01*
X162369250Y-103765000D01*
X162205000Y-103761928D01*
X162080518Y-103774188D01*
X162020000Y-103792546D01*
X161959482Y-103774188D01*
X161835000Y-103761928D01*
X160935000Y-103761928D01*
X160810518Y-103774188D01*
X160750000Y-103792546D01*
X160689482Y-103774188D01*
X160565000Y-103761928D01*
X159665000Y-103761928D01*
X159540518Y-103774188D01*
X159480000Y-103792546D01*
X159419482Y-103774188D01*
X159295000Y-103761928D01*
X158395000Y-103761928D01*
X158270518Y-103774188D01*
X158210000Y-103792546D01*
X158149482Y-103774188D01*
X158025000Y-103761928D01*
X157125000Y-103761928D01*
X157000518Y-103774188D01*
X156940000Y-103792546D01*
X156879482Y-103774188D01*
X156755000Y-103761928D01*
X155855000Y-103761928D01*
X155730518Y-103774188D01*
X155670000Y-103792546D01*
X155609482Y-103774188D01*
X155485000Y-103761928D01*
X154585000Y-103761928D01*
X154460518Y-103774188D01*
X154400000Y-103792546D01*
X154339482Y-103774188D01*
X154215000Y-103761928D01*
X153315000Y-103761928D01*
X153190518Y-103774188D01*
X153130000Y-103792546D01*
X153069482Y-103774188D01*
X152945000Y-103761928D01*
X152045000Y-103761928D01*
X151920518Y-103774188D01*
X151860000Y-103792546D01*
X151799482Y-103774188D01*
X151675000Y-103761928D01*
X150775000Y-103761928D01*
X150650518Y-103774188D01*
X150590000Y-103792546D01*
X150529482Y-103774188D01*
X150405000Y-103761928D01*
X149505000Y-103761928D01*
X149380518Y-103774188D01*
X149320000Y-103792546D01*
X149259482Y-103774188D01*
X149135000Y-103761928D01*
X148235000Y-103761928D01*
X148110518Y-103774188D01*
X148050000Y-103792546D01*
X147989482Y-103774188D01*
X147865000Y-103761928D01*
X146965000Y-103761928D01*
X146840518Y-103774188D01*
X146780000Y-103792546D01*
X146719482Y-103774188D01*
X146595000Y-103761928D01*
X145695000Y-103761928D01*
X145570518Y-103774188D01*
X145450820Y-103810498D01*
X145340506Y-103869463D01*
X145243815Y-103948815D01*
X145164463Y-104045506D01*
X145105498Y-104155820D01*
X145069188Y-104275518D01*
X145056928Y-104400000D01*
X145056928Y-106400000D01*
X145069188Y-106524482D01*
X145104230Y-106640000D01*
X143914803Y-106640000D01*
X142560000Y-105285199D01*
X142560000Y-103065000D01*
X143506928Y-103065000D01*
X143519188Y-103189482D01*
X143555498Y-103309180D01*
X143614463Y-103419494D01*
X143693815Y-103516185D01*
X143790506Y-103595537D01*
X143900820Y-103654502D01*
X144020518Y-103690812D01*
X144145000Y-103703072D01*
X144859250Y-103700000D01*
X145018000Y-103541250D01*
X145018000Y-102742000D01*
X145272000Y-102742000D01*
X145272000Y-103541250D01*
X145430750Y-103700000D01*
X146145000Y-103703072D01*
X146269482Y-103690812D01*
X146389180Y-103654502D01*
X146499494Y-103595537D01*
X146596185Y-103516185D01*
X146675537Y-103419494D01*
X146734502Y-103309180D01*
X146770812Y-103189482D01*
X146783072Y-103065000D01*
X146780000Y-102900750D01*
X146621250Y-102742000D01*
X145272000Y-102742000D01*
X145018000Y-102742000D01*
X143668750Y-102742000D01*
X143510000Y-102900750D01*
X143506928Y-103065000D01*
X142560000Y-103065000D01*
X142560000Y-98537323D01*
X142563676Y-98500000D01*
X142560000Y-98462677D01*
X142560000Y-98462667D01*
X142549003Y-98351014D01*
X142505546Y-98207753D01*
X142478262Y-98156709D01*
X142434974Y-98075723D01*
X142363799Y-97988997D01*
X142340001Y-97959999D01*
X142311004Y-97936202D01*
X139863804Y-95489003D01*
X139840001Y-95459999D01*
X139724276Y-95365026D01*
X139592247Y-95294454D01*
X139448986Y-95250997D01*
X139337333Y-95240000D01*
X139337322Y-95240000D01*
X139300000Y-95236324D01*
X139262678Y-95240000D01*
X134314802Y-95240000D01*
X134135000Y-95060198D01*
X134135000Y-94998061D01*
X134095226Y-94798102D01*
X134017205Y-94609744D01*
X133903937Y-94440226D01*
X133759774Y-94296063D01*
X133590256Y-94182795D01*
X133401898Y-94104774D01*
X133201939Y-94065000D01*
X132998061Y-94065000D01*
X132798102Y-94104774D01*
X132609744Y-94182795D01*
X132440226Y-94296063D01*
X132296063Y-94440226D01*
X132182795Y-94609744D01*
X132104774Y-94798102D01*
X132065000Y-94998061D01*
X132065000Y-95201939D01*
X132104774Y-95401898D01*
X132182795Y-95590256D01*
X132296063Y-95759774D01*
X132440226Y-95903937D01*
X132609744Y-96017205D01*
X132798102Y-96095226D01*
X132998061Y-96135000D01*
X133060198Y-96135000D01*
X133436200Y-96511002D01*
X133459999Y-96540001D01*
X133575724Y-96634974D01*
X133707753Y-96705546D01*
X133851014Y-96749003D01*
X133962667Y-96760000D01*
X133962676Y-96760000D01*
X133999999Y-96763676D01*
X134037322Y-96760000D01*
X138985199Y-96760000D01*
X141040000Y-98814802D01*
X141040001Y-104401609D01*
X140688762Y-104050371D01*
X140688762Y-99564767D01*
X140692801Y-99523759D01*
X140688762Y-99482751D01*
X140688762Y-99482741D01*
X140676680Y-99360071D01*
X140628934Y-99202673D01*
X140551398Y-99057614D01*
X140447053Y-98930469D01*
X140415188Y-98904318D01*
X139699447Y-98188578D01*
X139673292Y-98156708D01*
X139546147Y-98052363D01*
X139401088Y-97974827D01*
X139243690Y-97927081D01*
X139121020Y-97914999D01*
X139121019Y-97914999D01*
X139080001Y-97910959D01*
X139038983Y-97914999D01*
X132151008Y-97914999D01*
X132110000Y-97910960D01*
X132068992Y-97914999D01*
X132068982Y-97914999D01*
X131946312Y-97927081D01*
X131788914Y-97974827D01*
X131643855Y-98052363D01*
X131516710Y-98156708D01*
X131490559Y-98188573D01*
X131137939Y-98541193D01*
X131006260Y-98515000D01*
X130713740Y-98515000D01*
X130426842Y-98572068D01*
X130156589Y-98684010D01*
X129913368Y-98846525D01*
X129706525Y-99053368D01*
X129544010Y-99296589D01*
X129432068Y-99566842D01*
X129375000Y-99853740D01*
X129375000Y-100146260D01*
X129401193Y-100277939D01*
X128177072Y-101502060D01*
X128134392Y-101450055D01*
X128169180Y-101439502D01*
X128279494Y-101380537D01*
X128376185Y-101301185D01*
X128455537Y-101204494D01*
X128514502Y-101094180D01*
X128550812Y-100974482D01*
X128563072Y-100850000D01*
X128560000Y-100285750D01*
X128401250Y-100127000D01*
X127127000Y-100127000D01*
X127127000Y-100147000D01*
X126873000Y-100147000D01*
X126873000Y-100127000D01*
X125598750Y-100127000D01*
X125440000Y-100285750D01*
X125436928Y-100850000D01*
X125449188Y-100974482D01*
X125485498Y-101094180D01*
X125544463Y-101204494D01*
X125623815Y-101301185D01*
X125720506Y-101380537D01*
X125830820Y-101439502D01*
X125865608Y-101450055D01*
X125793629Y-101537761D01*
X123405868Y-99150000D01*
X125436928Y-99150000D01*
X125440000Y-99714250D01*
X125598750Y-99873000D01*
X126873000Y-99873000D01*
X126873000Y-98673750D01*
X127127000Y-98673750D01*
X127127000Y-99873000D01*
X128401250Y-99873000D01*
X128560000Y-99714250D01*
X128563072Y-99150000D01*
X128550812Y-99025518D01*
X128514502Y-98905820D01*
X128455537Y-98795506D01*
X128376185Y-98698815D01*
X128279494Y-98619463D01*
X128169180Y-98560498D01*
X128049482Y-98524188D01*
X127925000Y-98511928D01*
X127285750Y-98515000D01*
X127127000Y-98673750D01*
X126873000Y-98673750D01*
X126714250Y-98515000D01*
X126075000Y-98511928D01*
X125950518Y-98524188D01*
X125830820Y-98560498D01*
X125720506Y-98619463D01*
X125623815Y-98698815D01*
X125544463Y-98795506D01*
X125485498Y-98905820D01*
X125449188Y-99025518D01*
X125436928Y-99150000D01*
X123405868Y-99150000D01*
X121959999Y-97704132D01*
X121959999Y-97082061D01*
X122251278Y-97140000D01*
X122548722Y-97140000D01*
X122840451Y-97081971D01*
X123115253Y-96968144D01*
X123362569Y-96802893D01*
X123572893Y-96592569D01*
X123738144Y-96345253D01*
X123851971Y-96070451D01*
X123910000Y-95778722D01*
X123910000Y-95481278D01*
X123862470Y-95242331D01*
X125634146Y-93470656D01*
X125648029Y-93540451D01*
X125761856Y-93815253D01*
X125927107Y-94062569D01*
X126137431Y-94272893D01*
X126282762Y-94370000D01*
X126137431Y-94467107D01*
X125927107Y-94677431D01*
X125761856Y-94924747D01*
X125648029Y-95199549D01*
X125590000Y-95491278D01*
X125590000Y-95788722D01*
X125648029Y-96080451D01*
X125761856Y-96355253D01*
X125927107Y-96602569D01*
X126137431Y-96812893D01*
X126384747Y-96978144D01*
X126659549Y-97091971D01*
X126951278Y-97150000D01*
X127248722Y-97150000D01*
X127540451Y-97091971D01*
X127815253Y-96978144D01*
X128062569Y-96812893D01*
X128272893Y-96602569D01*
X128438144Y-96355253D01*
X128551971Y-96080451D01*
X128610000Y-95788722D01*
X128610000Y-95491278D01*
X128551971Y-95199549D01*
X128438144Y-94924747D01*
X128272893Y-94677431D01*
X128062569Y-94467107D01*
X127917238Y-94370000D01*
X128062569Y-94272893D01*
X128272893Y-94062569D01*
X128408245Y-93860000D01*
X128499088Y-93860000D01*
X128536410Y-93863676D01*
X128573732Y-93860000D01*
X128573743Y-93860000D01*
X128685396Y-93849003D01*
X128828657Y-93805546D01*
X128960686Y-93734974D01*
X129076411Y-93640001D01*
X129100214Y-93610997D01*
X131326191Y-91385021D01*
X142640000Y-91385021D01*
X142640000Y-91922677D01*
X142636324Y-91960000D01*
X142640000Y-91997322D01*
X142640000Y-91997332D01*
X142650997Y-92108985D01*
X142681639Y-92210000D01*
X142694454Y-92252246D01*
X142765026Y-92384276D01*
X142804871Y-92432826D01*
X142859999Y-92500001D01*
X142889003Y-92523804D01*
X143331196Y-92965997D01*
X143354999Y-92995001D01*
X143470724Y-93089974D01*
X143528230Y-93120712D01*
X143519188Y-93150518D01*
X143506928Y-93275000D01*
X143506928Y-94175000D01*
X143519188Y-94299482D01*
X143537546Y-94360000D01*
X143519188Y-94420518D01*
X143506928Y-94545000D01*
X143506928Y-95445000D01*
X143519188Y-95569482D01*
X143537546Y-95630000D01*
X143519188Y-95690518D01*
X143506928Y-95815000D01*
X143506928Y-96715000D01*
X143519188Y-96839482D01*
X143537546Y-96900000D01*
X143519188Y-96960518D01*
X143506928Y-97085000D01*
X143506928Y-97985000D01*
X143519188Y-98109482D01*
X143537546Y-98170000D01*
X143519188Y-98230518D01*
X143506928Y-98355000D01*
X143506928Y-99255000D01*
X143519188Y-99379482D01*
X143537546Y-99440000D01*
X143519188Y-99500518D01*
X143506928Y-99625000D01*
X143506928Y-100525000D01*
X143519188Y-100649482D01*
X143537546Y-100710000D01*
X143519188Y-100770518D01*
X143506928Y-100895000D01*
X143506928Y-101795000D01*
X143519188Y-101919482D01*
X143537546Y-101980000D01*
X143519188Y-102040518D01*
X143506928Y-102165000D01*
X143510000Y-102329250D01*
X143668750Y-102488000D01*
X145018000Y-102488000D01*
X145018000Y-102468000D01*
X145272000Y-102468000D01*
X145272000Y-102488000D01*
X146621250Y-102488000D01*
X146780000Y-102329250D01*
X146783072Y-102165000D01*
X146770812Y-102040518D01*
X146752454Y-101980000D01*
X146770812Y-101919482D01*
X146783072Y-101795000D01*
X146783072Y-100895000D01*
X146770812Y-100770518D01*
X146752454Y-100710000D01*
X146770812Y-100649482D01*
X146783072Y-100525000D01*
X146783072Y-99625000D01*
X146770812Y-99500518D01*
X146752454Y-99440000D01*
X146770812Y-99379482D01*
X146783072Y-99255000D01*
X146783072Y-98355000D01*
X146770812Y-98230518D01*
X146752454Y-98170000D01*
X146770812Y-98109482D01*
X146783072Y-97985000D01*
X146783072Y-97085000D01*
X146770812Y-96960518D01*
X146752454Y-96900000D01*
X146770812Y-96839482D01*
X146783072Y-96715000D01*
X146783072Y-95815000D01*
X146770812Y-95690518D01*
X146752454Y-95630000D01*
X146770812Y-95569482D01*
X146783072Y-95445000D01*
X146783072Y-94545000D01*
X146770812Y-94420518D01*
X146752454Y-94360000D01*
X146770812Y-94299482D01*
X146783072Y-94175000D01*
X146783072Y-93275000D01*
X146770812Y-93150518D01*
X146752454Y-93090000D01*
X146770812Y-93029482D01*
X146783072Y-92905000D01*
X146783072Y-92005000D01*
X146770812Y-91880518D01*
X146752454Y-91820000D01*
X146770812Y-91759482D01*
X146783072Y-91635000D01*
X146783072Y-90935011D01*
X151490187Y-90935011D01*
X151039002Y-91386197D01*
X151009999Y-91409999D01*
X150965948Y-91463676D01*
X150915026Y-91525724D01*
X150871321Y-91607490D01*
X150844454Y-91657754D01*
X150800997Y-91801015D01*
X150790000Y-91912668D01*
X150790000Y-91912678D01*
X150786324Y-91950000D01*
X150790000Y-91987323D01*
X150790001Y-96346288D01*
X150746063Y-96390226D01*
X150632795Y-96559744D01*
X150554774Y-96748102D01*
X150515000Y-96948061D01*
X150515000Y-97151939D01*
X150554774Y-97351898D01*
X150632795Y-97540256D01*
X150746063Y-97709774D01*
X150890226Y-97853937D01*
X151059744Y-97967205D01*
X151248102Y-98045226D01*
X151448061Y-98085000D01*
X151651939Y-98085000D01*
X151851898Y-98045226D01*
X152020000Y-97975595D01*
X152020000Y-98027002D01*
X152178748Y-98027002D01*
X152020000Y-98185750D01*
X152016928Y-100400000D01*
X152029188Y-100524482D01*
X152065498Y-100644180D01*
X152124463Y-100754494D01*
X152203815Y-100851185D01*
X152300506Y-100930537D01*
X152410820Y-100989502D01*
X152530518Y-101025812D01*
X152655000Y-101038072D01*
X154869250Y-101035000D01*
X155028000Y-100876250D01*
X155028000Y-98027000D01*
X155282000Y-98027000D01*
X155282000Y-100876250D01*
X155440750Y-101035000D01*
X157655000Y-101038072D01*
X157779482Y-101025812D01*
X157899180Y-100989502D01*
X158009494Y-100930537D01*
X158106185Y-100851185D01*
X158185537Y-100754494D01*
X158244502Y-100644180D01*
X158280812Y-100524482D01*
X158293072Y-100400000D01*
X158290000Y-98185750D01*
X158131250Y-98027000D01*
X155282000Y-98027000D01*
X155028000Y-98027000D01*
X155008000Y-98027000D01*
X155008000Y-97773000D01*
X155028000Y-97773000D01*
X155028000Y-94923750D01*
X155282000Y-94923750D01*
X155282000Y-97773000D01*
X158131250Y-97773000D01*
X158290000Y-97614250D01*
X158293072Y-95400000D01*
X158280812Y-95275518D01*
X158244502Y-95155820D01*
X158185537Y-95045506D01*
X158106185Y-94948815D01*
X158009494Y-94869463D01*
X157899180Y-94810498D01*
X157779482Y-94774188D01*
X157655000Y-94761928D01*
X155440750Y-94765000D01*
X155282000Y-94923750D01*
X155028000Y-94923750D01*
X154869250Y-94765000D01*
X152655000Y-94761928D01*
X152530518Y-94774188D01*
X152410820Y-94810498D01*
X152310000Y-94864388D01*
X152310000Y-92264801D01*
X152932895Y-91641906D01*
X152954774Y-91751898D01*
X153032795Y-91940256D01*
X153146063Y-92109774D01*
X153290226Y-92253937D01*
X153459744Y-92367205D01*
X153648102Y-92445226D01*
X153848061Y-92485000D01*
X154051939Y-92485000D01*
X154251898Y-92445226D01*
X154440256Y-92367205D01*
X154609774Y-92253937D01*
X154653711Y-92210000D01*
X157007678Y-92210000D01*
X157045000Y-92213676D01*
X157082322Y-92210000D01*
X157082333Y-92210000D01*
X157193986Y-92199003D01*
X157337247Y-92155546D01*
X157469276Y-92084974D01*
X157585001Y-91990001D01*
X157608803Y-91960998D01*
X159356009Y-90213794D01*
X159385001Y-90190001D01*
X159408795Y-90161008D01*
X159408799Y-90161004D01*
X159479973Y-90074277D01*
X159479974Y-90074276D01*
X159510712Y-90016770D01*
X159540518Y-90025812D01*
X159665000Y-90038072D01*
X160565000Y-90038072D01*
X160689482Y-90025812D01*
X160750000Y-90007454D01*
X160810518Y-90025812D01*
X160935000Y-90038072D01*
X161835000Y-90038072D01*
X161959482Y-90025812D01*
X162020000Y-90007454D01*
X162080518Y-90025812D01*
X162205000Y-90038072D01*
X162369250Y-90035000D01*
X162528000Y-89876250D01*
X162528000Y-88527000D01*
X162508000Y-88527000D01*
X162508000Y-88273000D01*
X162528000Y-88273000D01*
X162528000Y-86923750D01*
X162369250Y-86765000D01*
X162205000Y-86761928D01*
X162080518Y-86774188D01*
X162020000Y-86792546D01*
X161959482Y-86774188D01*
X161835000Y-86761928D01*
X160935000Y-86761928D01*
X160810518Y-86774188D01*
X160750000Y-86792546D01*
X160689482Y-86774188D01*
X160565000Y-86761928D01*
X159665000Y-86761928D01*
X159540518Y-86774188D01*
X159480000Y-86792546D01*
X159419482Y-86774188D01*
X159295000Y-86761928D01*
X158395000Y-86761928D01*
X158270518Y-86774188D01*
X158210000Y-86792546D01*
X158149482Y-86774188D01*
X158025000Y-86761928D01*
X157125000Y-86761928D01*
X157087977Y-86765574D01*
X157139502Y-86669180D01*
X157175812Y-86549482D01*
X157188072Y-86425000D01*
X157185000Y-85785750D01*
X157026250Y-85627000D01*
X155827000Y-85627000D01*
X155827000Y-85647000D01*
X155573000Y-85647000D01*
X155573000Y-85627000D01*
X155553000Y-85627000D01*
X155553000Y-85373000D01*
X155573000Y-85373000D01*
X155573000Y-84098750D01*
X155827000Y-84098750D01*
X155827000Y-85373000D01*
X157026250Y-85373000D01*
X157185000Y-85214250D01*
X157188072Y-84575000D01*
X157175812Y-84450518D01*
X157139502Y-84330820D01*
X157080537Y-84220506D01*
X157001185Y-84123815D01*
X156904494Y-84044463D01*
X156794180Y-83985498D01*
X156674482Y-83949188D01*
X156550000Y-83936928D01*
X155985750Y-83940000D01*
X155827000Y-84098750D01*
X155573000Y-84098750D01*
X155414250Y-83940000D01*
X154850000Y-83936928D01*
X154725518Y-83949188D01*
X154605820Y-83985498D01*
X154495506Y-84044463D01*
X154398815Y-84123815D01*
X154319463Y-84220506D01*
X154260498Y-84330820D01*
X154249945Y-84365608D01*
X154029014Y-84184294D01*
X153771034Y-84046401D01*
X153491111Y-83961487D01*
X153200000Y-83932815D01*
X152908890Y-83961487D01*
X152628967Y-84046401D01*
X152370987Y-84184294D01*
X152144866Y-84369866D01*
X151959294Y-84595986D01*
X151821401Y-84853966D01*
X151736487Y-85133889D01*
X151715000Y-85352050D01*
X151715000Y-85647949D01*
X151736487Y-85866110D01*
X151821401Y-86146033D01*
X151959294Y-86404013D01*
X152144866Y-86630134D01*
X152305457Y-86761928D01*
X152045000Y-86761928D01*
X151920518Y-86774188D01*
X151860000Y-86792546D01*
X151799482Y-86774188D01*
X151675000Y-86761928D01*
X150775000Y-86761928D01*
X150650518Y-86774188D01*
X150620712Y-86783230D01*
X150589974Y-86725724D01*
X150495001Y-86609999D01*
X150466002Y-86586200D01*
X149993792Y-86113991D01*
X149969990Y-86084988D01*
X149854265Y-85990015D01*
X149722236Y-85919443D01*
X149578975Y-85875986D01*
X149467322Y-85864989D01*
X149467311Y-85864989D01*
X149429989Y-85861313D01*
X149392667Y-85864989D01*
X144202921Y-85864989D01*
X144165598Y-85861313D01*
X144128275Y-85864989D01*
X144128266Y-85864989D01*
X144016613Y-85875986D01*
X143883634Y-85916324D01*
X143873352Y-85919443D01*
X143741322Y-85990015D01*
X143660526Y-86056323D01*
X143625598Y-86084988D01*
X143601800Y-86113986D01*
X142238989Y-87476798D01*
X142209992Y-87500595D01*
X142186193Y-87529594D01*
X142186192Y-87529595D01*
X142115017Y-87616321D01*
X142075634Y-87690001D01*
X142044446Y-87748348D01*
X142000989Y-87891609D01*
X141992704Y-87975725D01*
X141986502Y-88038696D01*
X141960218Y-88064981D01*
X129889781Y-88064981D01*
X129510012Y-87685213D01*
X129510012Y-85391333D01*
X129513688Y-85354010D01*
X129510012Y-85316687D01*
X129510012Y-85316677D01*
X129499015Y-85205024D01*
X129455558Y-85061763D01*
X129390473Y-84939999D01*
X129384986Y-84929733D01*
X129313811Y-84843007D01*
X129290013Y-84814009D01*
X129261015Y-84790211D01*
X128245591Y-83774788D01*
X128397868Y-83725975D01*
X128526267Y-83457671D01*
X128599855Y-83169474D01*
X128615804Y-82872457D01*
X128573501Y-82578037D01*
X128474572Y-82297526D01*
X128397868Y-82154025D01*
X128146240Y-82073365D01*
X127279605Y-82940000D01*
X127293748Y-82954143D01*
X127114143Y-83133748D01*
X127100000Y-83119605D01*
X127085858Y-83133748D01*
X126906253Y-82954143D01*
X126920395Y-82940000D01*
X126906253Y-82925858D01*
X127085858Y-82746253D01*
X127100000Y-82760395D01*
X127966635Y-81893760D01*
X127898847Y-81682288D01*
X128062569Y-81572893D01*
X128272893Y-81362569D01*
X128438144Y-81115253D01*
X128551971Y-80840451D01*
X128610000Y-80548722D01*
X128610000Y-80251278D01*
X128551971Y-79959549D01*
X128448605Y-79710000D01*
X144715000Y-79710000D01*
X144715000Y-83530000D01*
X158285000Y-83530000D01*
X158285000Y-79710000D01*
X144715000Y-79710000D01*
X128448605Y-79710000D01*
X128438144Y-79684747D01*
X128272893Y-79437431D01*
X128062569Y-79227107D01*
X127815253Y-79061856D01*
X127810772Y-79060000D01*
X159419069Y-79060000D01*
X159278882Y-79152627D01*
G37*
%TD.AperFunction*%
D29*
X133927000Y-112528000D02*
X136882315Y-112528000D01*
X136847528Y-112538843D01*
X136731586Y-112782000D01*
X133927000Y-112782000D01*
X133927000Y-112802000D01*
X133673000Y-112802000D01*
X133673000Y-112782000D01*
X130863381Y-112782000D01*
X130825919Y-112676253D01*
X130752472Y-112538843D01*
X130717685Y-112528000D01*
X133673000Y-112528000D01*
X133673000Y-112508000D01*
X133927000Y-112508000D01*
X133927000Y-112528000D01*
%TA.AperFunction,Conductor*%
D30*
G36*
X133927000Y-112528000D02*
G01*
X136882315Y-112528000D01*
X136847528Y-112538843D01*
X136731586Y-112782000D01*
X133927000Y-112782000D01*
X133927000Y-112802000D01*
X133673000Y-112802000D01*
X133673000Y-112782000D01*
X130863381Y-112782000D01*
X130825919Y-112676253D01*
X130752472Y-112538843D01*
X130717685Y-112528000D01*
X133673000Y-112528000D01*
X133673000Y-112508000D01*
X133927000Y-112508000D01*
X133927000Y-112528000D01*
G37*
%TD.AperFunction*%
D29*
X133527000Y-99873000D02*
X133547000Y-99873000D01*
X133547000Y-100127000D01*
X133527000Y-100127000D01*
X133527000Y-101326250D01*
X133685750Y-101485000D01*
X134250000Y-101488072D01*
X134374482Y-101475812D01*
X134494180Y-101439502D01*
X134604494Y-101380537D01*
X134701185Y-101301185D01*
X134780537Y-101204494D01*
X134839502Y-101094180D01*
X134861513Y-101021620D01*
X134993368Y-101153475D01*
X135035000Y-101181293D01*
X135035001Y-103804991D01*
X132136061Y-103804991D01*
X132095043Y-103800951D01*
X132054024Y-103804991D01*
X131931354Y-103817073D01*
X131773956Y-103864819D01*
X131628897Y-103942355D01*
X131501752Y-104046700D01*
X131475606Y-104078560D01*
X130863573Y-104690593D01*
X130842721Y-104707707D01*
X130786184Y-104638816D01*
X130689493Y-104559464D01*
X130579179Y-104500499D01*
X130459481Y-104464189D01*
X130334999Y-104451929D01*
X129970749Y-104455001D01*
X129811999Y-104613751D01*
X129811999Y-105838001D01*
X129831999Y-105838001D01*
X129831999Y-106092001D01*
X129811999Y-106092001D01*
X129811999Y-107316251D01*
X129939852Y-107444104D01*
X129848815Y-107518815D01*
X129836029Y-107534395D01*
X129733892Y-107507616D01*
X129412405Y-107488282D01*
X129093325Y-107532039D01*
X128788912Y-107637205D01*
X128614956Y-107730186D01*
X128519193Y-107994585D01*
X128486659Y-107962051D01*
X128538513Y-107791111D01*
X128567185Y-107500000D01*
X128541546Y-107239682D01*
X128583814Y-107291186D01*
X128680505Y-107370538D01*
X128790819Y-107429503D01*
X128910517Y-107465813D01*
X129034999Y-107478073D01*
X129399249Y-107475001D01*
X129557999Y-107316251D01*
X129557999Y-106092001D01*
X128558749Y-106092001D01*
X128399999Y-106250751D01*
X128397015Y-106823105D01*
X128315706Y-106670986D01*
X128130134Y-106444866D01*
X127904014Y-106259294D01*
X127886626Y-106250000D01*
X127904014Y-106240706D01*
X128130134Y-106055134D01*
X128315706Y-105829014D01*
X128399958Y-105671389D01*
X128399999Y-105679251D01*
X128558749Y-105838001D01*
X129557999Y-105838001D01*
X129557999Y-104613751D01*
X129399249Y-104455001D01*
X129034999Y-104451929D01*
X128910517Y-104464189D01*
X128790819Y-104500499D01*
X128680505Y-104559464D01*
X128583814Y-104638816D01*
X128535219Y-104698030D01*
X128453599Y-104428966D01*
X128315706Y-104170986D01*
X128130134Y-103944866D01*
X127904014Y-103759294D01*
X127886626Y-103750000D01*
X127904014Y-103740706D01*
X128130134Y-103555134D01*
X128310793Y-103335000D01*
X128318982Y-103335000D01*
X128360000Y-103339040D01*
X128401018Y-103335000D01*
X128401019Y-103335000D01*
X128523689Y-103322918D01*
X128681087Y-103275172D01*
X128826146Y-103197636D01*
X128953291Y-103093291D01*
X128979446Y-103061421D01*
X130582061Y-101458807D01*
X130713740Y-101485000D01*
X131006260Y-101485000D01*
X131293158Y-101427932D01*
X131563411Y-101315990D01*
X131806632Y-101153475D01*
X131938487Y-101021620D01*
X131960498Y-101094180D01*
X132019463Y-101204494D01*
X132098815Y-101301185D01*
X132195506Y-101380537D01*
X132305820Y-101439502D01*
X132425518Y-101475812D01*
X132550000Y-101488072D01*
X133114250Y-101485000D01*
X133273000Y-101326250D01*
X133273000Y-100127000D01*
X133253000Y-100127000D01*
X133253000Y-99873000D01*
X133273000Y-99873000D01*
X133273000Y-99853000D01*
X133527000Y-99853000D01*
X133527000Y-99873000D01*
%TA.AperFunction,Conductor*%
D30*
G36*
X133527000Y-99873000D02*
G01*
X133547000Y-99873000D01*
X133547000Y-100127000D01*
X133527000Y-100127000D01*
X133527000Y-101326250D01*
X133685750Y-101485000D01*
X134250000Y-101488072D01*
X134374482Y-101475812D01*
X134494180Y-101439502D01*
X134604494Y-101380537D01*
X134701185Y-101301185D01*
X134780537Y-101204494D01*
X134839502Y-101094180D01*
X134861513Y-101021620D01*
X134993368Y-101153475D01*
X135035000Y-101181293D01*
X135035001Y-103804991D01*
X132136061Y-103804991D01*
X132095043Y-103800951D01*
X132054024Y-103804991D01*
X131931354Y-103817073D01*
X131773956Y-103864819D01*
X131628897Y-103942355D01*
X131501752Y-104046700D01*
X131475606Y-104078560D01*
X130863573Y-104690593D01*
X130842721Y-104707707D01*
X130786184Y-104638816D01*
X130689493Y-104559464D01*
X130579179Y-104500499D01*
X130459481Y-104464189D01*
X130334999Y-104451929D01*
X129970749Y-104455001D01*
X129811999Y-104613751D01*
X129811999Y-105838001D01*
X129831999Y-105838001D01*
X129831999Y-106092001D01*
X129811999Y-106092001D01*
X129811999Y-107316251D01*
X129939852Y-107444104D01*
X129848815Y-107518815D01*
X129836029Y-107534395D01*
X129733892Y-107507616D01*
X129412405Y-107488282D01*
X129093325Y-107532039D01*
X128788912Y-107637205D01*
X128614956Y-107730186D01*
X128519193Y-107994585D01*
X128486659Y-107962051D01*
X128538513Y-107791111D01*
X128567185Y-107500000D01*
X128541546Y-107239682D01*
X128583814Y-107291186D01*
X128680505Y-107370538D01*
X128790819Y-107429503D01*
X128910517Y-107465813D01*
X129034999Y-107478073D01*
X129399249Y-107475001D01*
X129557999Y-107316251D01*
X129557999Y-106092001D01*
X128558749Y-106092001D01*
X128399999Y-106250751D01*
X128397015Y-106823105D01*
X128315706Y-106670986D01*
X128130134Y-106444866D01*
X127904014Y-106259294D01*
X127886626Y-106250000D01*
X127904014Y-106240706D01*
X128130134Y-106055134D01*
X128315706Y-105829014D01*
X128399958Y-105671389D01*
X128399999Y-105679251D01*
X128558749Y-105838001D01*
X129557999Y-105838001D01*
X129557999Y-104613751D01*
X129399249Y-104455001D01*
X129034999Y-104451929D01*
X128910517Y-104464189D01*
X128790819Y-104500499D01*
X128680505Y-104559464D01*
X128583814Y-104638816D01*
X128535219Y-104698030D01*
X128453599Y-104428966D01*
X128315706Y-104170986D01*
X128130134Y-103944866D01*
X127904014Y-103759294D01*
X127886626Y-103750000D01*
X127904014Y-103740706D01*
X128130134Y-103555134D01*
X128310793Y-103335000D01*
X128318982Y-103335000D01*
X128360000Y-103339040D01*
X128401018Y-103335000D01*
X128401019Y-103335000D01*
X128523689Y-103322918D01*
X128681087Y-103275172D01*
X128826146Y-103197636D01*
X128953291Y-103093291D01*
X128979446Y-103061421D01*
X130582061Y-101458807D01*
X130713740Y-101485000D01*
X131006260Y-101485000D01*
X131293158Y-101427932D01*
X131563411Y-101315990D01*
X131806632Y-101153475D01*
X131938487Y-101021620D01*
X131960498Y-101094180D01*
X132019463Y-101204494D01*
X132098815Y-101301185D01*
X132195506Y-101380537D01*
X132305820Y-101439502D01*
X132425518Y-101475812D01*
X132550000Y-101488072D01*
X133114250Y-101485000D01*
X133273000Y-101326250D01*
X133273000Y-100127000D01*
X133253000Y-100127000D01*
X133253000Y-99873000D01*
X133273000Y-99873000D01*
X133273000Y-99853000D01*
X133527000Y-99853000D01*
X133527000Y-99873000D01*
G37*
%TD.AperFunction*%
D29*
X125140000Y-86782667D02*
X125136323Y-86819999D01*
X125140000Y-86857332D01*
X125150997Y-86968985D01*
X125157372Y-86990000D01*
X125194453Y-87112245D01*
X125265025Y-87244275D01*
X125303860Y-87291595D01*
X125359999Y-87360000D01*
X125388997Y-87383798D01*
X125637530Y-87632331D01*
X125590000Y-87871278D01*
X125590000Y-88168722D01*
X125648029Y-88460451D01*
X125748212Y-88702314D01*
X125705724Y-88725025D01*
X125622084Y-88793667D01*
X125590000Y-88819998D01*
X125566202Y-88848996D01*
X123914843Y-90500356D01*
X123915804Y-90482457D01*
X123873501Y-90188037D01*
X123774572Y-89907526D01*
X123697868Y-89764025D01*
X123446240Y-89683365D01*
X122579605Y-90550000D01*
X122593748Y-90564143D01*
X122414143Y-90743748D01*
X122400000Y-90729605D01*
X122385858Y-90743748D01*
X122206253Y-90564143D01*
X122220395Y-90550000D01*
X122206253Y-90535858D01*
X122385858Y-90356253D01*
X122400000Y-90370395D01*
X123266635Y-89503760D01*
X123198847Y-89292288D01*
X123362569Y-89182893D01*
X123572893Y-88972569D01*
X123738144Y-88725253D01*
X123851971Y-88450451D01*
X123910000Y-88158722D01*
X123910000Y-87861278D01*
X123851971Y-87569549D01*
X123738144Y-87294747D01*
X123582229Y-87061403D01*
X125139999Y-85503632D01*
X125140000Y-86782667D01*
%TA.AperFunction,Conductor*%
D30*
G36*
X125140000Y-86782667D02*
G01*
X125136323Y-86819999D01*
X125140000Y-86857332D01*
X125150997Y-86968985D01*
X125157372Y-86990000D01*
X125194453Y-87112245D01*
X125265025Y-87244275D01*
X125303860Y-87291595D01*
X125359999Y-87360000D01*
X125388997Y-87383798D01*
X125637530Y-87632331D01*
X125590000Y-87871278D01*
X125590000Y-88168722D01*
X125648029Y-88460451D01*
X125748212Y-88702314D01*
X125705724Y-88725025D01*
X125622084Y-88793667D01*
X125590000Y-88819998D01*
X125566202Y-88848996D01*
X123914843Y-90500356D01*
X123915804Y-90482457D01*
X123873501Y-90188037D01*
X123774572Y-89907526D01*
X123697868Y-89764025D01*
X123446240Y-89683365D01*
X122579605Y-90550000D01*
X122593748Y-90564143D01*
X122414143Y-90743748D01*
X122400000Y-90729605D01*
X122385858Y-90743748D01*
X122206253Y-90564143D01*
X122220395Y-90550000D01*
X122206253Y-90535858D01*
X122385858Y-90356253D01*
X122400000Y-90370395D01*
X123266635Y-89503760D01*
X123198847Y-89292288D01*
X123362569Y-89182893D01*
X123572893Y-88972569D01*
X123738144Y-88725253D01*
X123851971Y-88450451D01*
X123910000Y-88158722D01*
X123910000Y-87861278D01*
X123851971Y-87569549D01*
X123738144Y-87294747D01*
X123582229Y-87061403D01*
X125139999Y-85503632D01*
X125140000Y-86782667D01*
G37*
%TD.AperFunction*%
D29*
X122593748Y-80885858D02*
X122579605Y-80900000D01*
X124603148Y-82923543D01*
X124803000Y-82791493D01*
X124803000Y-83478896D01*
X121838579Y-86443318D01*
X121806709Y-86469473D01*
X121734034Y-86558029D01*
X121702364Y-86596619D01*
X121649594Y-86695345D01*
X121437431Y-86837107D01*
X121227107Y-87047431D01*
X121061856Y-87294747D01*
X120948029Y-87569549D01*
X120890000Y-87861278D01*
X120890000Y-88158722D01*
X120919932Y-88309200D01*
X120563573Y-88665560D01*
X120560000Y-88668492D01*
X120560000Y-83380931D01*
X120652627Y-83521118D01*
X121197557Y-83811649D01*
X121788696Y-83990287D01*
X122403328Y-84050168D01*
X123017831Y-83988990D01*
X123608592Y-83809103D01*
X124147373Y-83521118D01*
X124423543Y-83103148D01*
X122400000Y-81079605D01*
X122385858Y-81093748D01*
X122206253Y-80914143D01*
X122220395Y-80900000D01*
X122206253Y-80885858D01*
X122385858Y-80706253D01*
X122400000Y-80720395D01*
X122414143Y-80706253D01*
X122593748Y-80885858D01*
%TA.AperFunction,Conductor*%
D30*
G36*
X122593748Y-80885858D02*
G01*
X122579605Y-80900000D01*
X124603148Y-82923543D01*
X124803000Y-82791493D01*
X124803000Y-83478896D01*
X121838579Y-86443318D01*
X121806709Y-86469473D01*
X121734034Y-86558029D01*
X121702364Y-86596619D01*
X121649594Y-86695345D01*
X121437431Y-86837107D01*
X121227107Y-87047431D01*
X121061856Y-87294747D01*
X120948029Y-87569549D01*
X120890000Y-87861278D01*
X120890000Y-88158722D01*
X120919932Y-88309200D01*
X120563573Y-88665560D01*
X120560000Y-88668492D01*
X120560000Y-83380931D01*
X120652627Y-83521118D01*
X121197557Y-83811649D01*
X121788696Y-83990287D01*
X122403328Y-84050168D01*
X123017831Y-83988990D01*
X123608592Y-83809103D01*
X124147373Y-83521118D01*
X124423543Y-83103148D01*
X122400000Y-81079605D01*
X122385858Y-81093748D01*
X122206253Y-80914143D01*
X122220395Y-80900000D01*
X122206253Y-80885858D01*
X122385858Y-80706253D01*
X122400000Y-80720395D01*
X122414143Y-80706253D01*
X122593748Y-80885858D01*
G37*
%TD.AperFunction*%
%TD*%
M02*
